<svg width="31" height="31" viewBox="0 0 31 31" fill="none" xmlns="http://www.w3.org/2000/svg">
<path d="M15.5 2.13188C22.8738 2.13188 28.8807 8.13876 28.8807 15.5125C28.8807 22.8863 22.8738 28.8932 15.5 28.8932C8.12621 28.8932 2.11934 22.8863 2.11934 15.5125C2.11934 8.13876 8.12621 2.13188 15.5 2.13188ZM15.5 0C6.93487 0 0 6.93487 0 15.5C0 24.0651 6.93487 31 15.5 31C24.0651 31 31 24.0651 31 15.5C31 6.93487 24.0651 0 15.5 0Z" fill="#EE1C26"/>
<path fill-rule="evenodd" clip-rule="evenodd" d="M17.4947 9.74387C18.059 9.73133 18.6233 9.74387 19.1876 9.74387H19.4259V6.8094C19.1249 6.78432 18.8114 6.73416 18.4979 6.72162C17.921 6.69654 17.3442 6.67146 16.7673 6.684C15.8895 6.69654 15.0493 6.92227 14.3219 7.43642C13.4817 8.03837 13.0303 8.89112 12.8547 9.88182C12.7795 10.2957 12.7669 10.722 12.7544 11.1359C12.7418 11.788 12.7544 12.4526 12.7544 13.1047V13.3555H9.94531V16.6286H12.7293V24.8677H16.1403V16.6411H18.9243C19.0622 15.5501 19.2002 14.4716 19.3507 13.3555C19.1249 13.3555 18.9243 13.3555 18.7236 13.3555C17.9336 13.3555 16.1152 13.3555 16.1152 13.3555C16.1152 13.3555 16.1152 11.7378 16.1403 11.023C16.1654 10.0574 16.7422 9.76895 17.5072 9.73133L17.4947 9.74387Z" fill="#EE1C26"/>
</svg>
