<svg width="31" height="31" viewBox="0 0 31 31" fill="none" xmlns="http://www.w3.org/2000/svg">
<path d="M15.5 2.13188C22.8738 2.13188 28.8807 8.13876 28.8807 15.5125C28.8807 22.8863 22.8738 28.8932 15.5 28.8932C8.12621 28.8932 2.11934 22.8863 2.11934 15.5125C2.11934 8.13876 8.12621 2.13188 15.5 2.13188ZM15.5 0C6.93487 0 0 6.93487 0 15.5C0 24.0651 6.93487 31 15.5 31C24.0651 31 31 24.0651 31 15.5C31 6.93487 24.0651 0 15.5 0Z" fill="#EE1C26"/>
<path d="M23.7397 11.4497C23.6268 10.3712 23.213 9.41816 22.4104 8.65319C21.5702 7.8506 20.5293 7.48693 19.4007 7.43677C17.4694 7.33644 12.8922 7.2612 11.2745 7.52455C9.43101 7.82552 8.22714 8.89146 7.72552 10.7098C7.33676 12.1018 7.41201 18.5476 7.63774 19.9271C7.95125 21.8207 9.06734 23.0245 10.9359 23.5136C12.2275 23.8522 18.5981 23.8021 20.0277 23.5763C21.9213 23.2754 23.1377 22.1593 23.6268 20.2907C24.003 18.8611 23.8651 12.7539 23.7397 11.4622V11.4497ZM22.2223 19.6512C21.9965 21.0808 21.056 21.9712 19.6139 22.1342C18.2846 22.2847 12.378 22.3599 11.1491 22.0213C9.97025 21.6953 9.30561 20.8801 9.10497 19.7013C8.91686 18.5727 8.8667 12.9295 9.10497 11.4121C9.31815 9.99502 10.2712 9.10465 11.7008 8.94163C13.1555 8.7786 18.3849 8.76606 19.7894 8.97924C21.219 9.20497 22.1094 10.158 22.2599 11.6002C22.4104 12.942 22.448 18.209 22.2223 19.6637V19.6512ZM15.6636 11.3243C13.3436 11.3243 11.45 13.2054 11.45 15.5379C11.45 17.8579 13.3311 19.7515 15.6636 19.7515C17.9836 19.7515 19.8772 17.8704 19.8772 15.5379C19.8772 13.2179 17.9961 11.3243 15.6636 11.3243ZM15.626 18.2592C14.1211 18.2466 12.9173 17.0177 12.9298 15.5128C12.9423 14.008 14.1713 12.8041 15.6762 12.8166C17.181 12.8292 18.3849 14.0581 18.3724 15.563C18.3598 17.0678 17.1309 18.2717 15.626 18.2592ZM21.0184 11.1613C21.0184 11.7005 20.5795 12.152 20.0277 12.1394C19.4885 12.1394 19.037 11.7005 19.0495 11.1487C19.0495 10.6095 19.4885 10.158 20.0402 10.1706C20.5795 10.1706 21.0309 10.6095 21.0184 11.1613Z" fill="#EE1C26"/>
<path d="M23.7397 11.4497C23.6268 10.3712 23.213 9.41816 22.4104 8.65319C21.5702 7.8506 20.5293 7.48693 19.4007 7.43677C17.4694 7.33644 12.8922 7.2612 11.2745 7.52455C9.43101 7.82552 8.22714 8.89146 7.72552 10.7098C7.33676 12.1018 7.41201 18.5476 7.63774 19.9271C7.95125 21.8207 9.06734 23.0245 10.9359 23.5136C12.2275 23.8522 18.5981 23.8021 20.0277 23.5763C21.9213 23.2754 23.1377 22.1593 23.6268 20.2907C24.003 18.8611 23.8651 12.7539 23.7397 11.4622V11.4497ZM22.2223 19.6512C21.9965 21.0808 21.056 21.9712 19.6139 22.1342C18.2846 22.2847 12.378 22.3599 11.1491 22.0213C9.97025 21.6953 9.30561 20.8801 9.10497 19.7013C8.91686 18.5727 8.8667 12.9295 9.10497 11.4121C9.31815 9.99502 10.2712 9.10465 11.7008 8.94163C13.1555 8.7786 18.3849 8.76606 19.7894 8.97924C21.219 9.20497 22.1094 10.158 22.2599 11.6002C22.4104 12.942 22.448 18.209 22.2223 19.6637V19.6512ZM15.6636 11.3243C13.3436 11.3243 11.45 13.2054 11.45 15.5379C11.45 17.8579 13.3311 19.7515 15.6636 19.7515C17.9836 19.7515 19.8772 17.8704 19.8772 15.5379C19.8772 13.2179 17.9961 11.3243 15.6636 11.3243ZM15.626 18.2592C14.1211 18.2466 12.9173 17.0177 12.9298 15.5128C12.9423 14.008 14.1713 12.8041 15.6762 12.8166C17.181 12.8292 18.3849 14.0581 18.3724 15.563C18.3598 17.0678 17.1309 18.2717 15.626 18.2592ZM21.0184 11.1613C21.0184 11.7005 20.5795 12.152 20.0277 12.1394C19.4885 12.1394 19.037 11.7005 19.0495 11.1487C19.0495 10.6095 19.4885 10.158 20.0402 10.1706C20.5795 10.1706 21.0309 10.6095 21.0184 11.1613Z" fill="#EE1C26"/>
</svg>
