<svg width="31" height="31" viewBox="0 0 31 31" fill="none" xmlns="http://www.w3.org/2000/svg">
<path d="M15.5 2.11933C22.8738 2.11933 28.8807 8.1262 28.8807 15.5C28.8807 22.8738 22.8738 28.8807 15.5 28.8807C8.12621 28.8807 2.11934 22.8738 2.11934 15.5C2.11934 8.1262 8.12621 2.11933 15.5 2.11933ZM15.5 0C6.93487 0 0 6.93486 0 15.5C0 24.0651 6.93487 31 15.5 31C24.0651 31 31 24.0651 31 15.5C31 6.93486 24.0651 0 15.5 0Z" fill="#EE1C26"/>
<path d="M8.86522 12.252H12.0129V22.3596H8.86522V12.252ZM10.4453 7.23584C11.4486 7.23584 12.2637 8.05097 12.2637 9.0542C12.2637 10.0574 11.4486 10.8726 10.4453 10.8726C9.44208 10.8726 8.62695 10.0574 8.62695 9.0542C8.62695 8.05097 9.44208 7.23584 10.4453 7.23584Z" fill="#EE1C26"/>
<path d="M13.9827 12.2518H16.9924V13.6312H17.03C17.4564 12.8412 18.4721 12.001 20.0021 12.001C23.1873 12.001 23.7642 14.0952 23.7642 16.8165V22.3594H20.6291V17.4435C20.6291 16.2647 20.604 14.7599 18.9988 14.7599C17.3937 14.7599 17.1178 16.039 17.1178 17.3557V22.3594H13.9827V12.2518Z" fill="#EE1C26"/>
</svg>
