<svg width="31" height="31" viewBox="0 0 31 31" fill="none" xmlns="http://www.w3.org/2000/svg">
<path d="M15.5 2.11933C22.8738 2.11933 28.8807 8.1262 28.8807 15.5C28.8807 22.8738 22.8738 28.8807 15.5 28.8807C8.12621 28.8807 2.11934 22.8738 2.11934 15.5C2.11934 8.1262 8.12621 2.11933 15.5 2.11933ZM15.5 0C6.93487 0 0 6.93486 0 15.5C0 24.0651 6.93487 31 15.5 31C24.0651 31 31 24.0651 31 15.5C31 6.93486 24.0651 0 15.5 0Z" fill="#EE1C26"/>
<path d="M15.9505 5.99384C15.9505 5.99384 16.0007 5.98129 16.0132 5.98129C17.0039 5.98129 17.9946 5.98129 18.9853 5.98129C18.9979 5.98129 19.0104 5.9813 19.0355 5.99384C19.048 6.09416 19.0355 6.20702 19.048 6.31988C19.048 6.43275 19.0731 6.54561 19.0982 6.65848C19.1107 6.77134 19.1358 6.87167 19.1609 6.98453C19.186 7.0974 19.2236 7.21025 19.2487 7.31058C19.2863 7.4109 19.3239 7.52377 19.3615 7.62409C19.3992 7.72441 19.4493 7.82474 19.4995 7.92507C19.5496 8.02539 19.6123 8.12571 19.6625 8.22604C19.7252 8.31382 19.7754 8.41414 19.8506 8.50193C19.9133 8.58971 19.9886 8.69004 20.0638 8.77782C20.139 8.8656 20.2143 8.94084 20.2895 9.01608C20.3648 9.09132 20.4526 9.16657 20.5278 9.24181C20.6156 9.31705 20.7034 9.39229 20.8037 9.45499C20.8915 9.5177 20.9792 9.5804 21.0796 9.6431C21.1799 9.70581 21.2802 9.75597 21.3805 9.80613C21.4809 9.8563 21.5812 9.90645 21.6815 9.94407C21.7818 9.98169 21.8822 10.0193 21.995 10.0569C22.1079 10.0946 22.2208 10.1196 22.3211 10.1447C22.4339 10.1698 22.5343 10.1949 22.6471 10.2074C22.76 10.22 22.8729 10.2325 22.9857 10.245C23.0986 10.245 23.1989 10.245 23.3118 10.2701V13.33C23.3118 13.33 23.2491 13.3425 23.2114 13.33C22.9356 13.3175 22.6597 13.3049 22.3838 13.2673C21.8195 13.2046 21.2677 13.0666 20.741 12.866C20.1892 12.6528 19.6625 12.3895 19.1734 12.0509C19.1358 12.0258 19.0982 12.0007 19.0606 11.9756C19.0606 11.9756 19.0606 11.9756 19.048 11.9756C19.0229 11.9756 19.0229 12.0133 19.0229 12.0383C19.0229 12.0885 19.0229 12.1387 19.0229 12.1763C19.0229 14.1828 19.0229 16.1767 19.0229 18.1832C19.0229 20.8292 17.2422 22.9861 14.9222 23.6508C14.2826 23.8389 13.6305 23.9016 12.9784 23.864C10.37 23.6884 8.35101 21.7948 7.82431 19.4748C7.69891 18.923 7.64875 18.3587 7.69891 17.7944C7.88702 15.2738 9.66776 13.3175 11.8874 12.7155C12.389 12.5776 12.8907 12.5149 13.4048 12.5274C13.618 12.5274 13.8186 12.5525 14.0318 12.5776C14.0569 12.5776 14.082 12.5776 14.1071 12.5901C14.1071 12.6403 14.1071 12.6779 14.1071 12.7155C14.1071 14.1828 14.1071 15.5998 14.0945 15.7001C14.0444 15.7127 14.0068 15.7001 13.9691 15.6876C13.7309 15.6249 13.4801 15.5998 13.2292 15.6124C12.6148 15.6374 12.0881 15.8632 11.6241 16.2645C11.1726 16.6658 10.8842 17.1799 10.7839 17.7819C10.5832 19.0108 11.2729 20.1771 12.4016 20.616C13.919 21.2054 15.5367 20.2774 15.8627 18.7475C15.9004 18.5719 15.9254 18.3963 15.9254 18.2208C15.9254 18.1957 15.9254 18.1706 15.9254 18.1455C15.9254 15.3741 15.9254 12.5901 15.9254 9.81867C15.9254 8.5897 15.9254 7.36075 15.9254 6.13178C15.9254 6.08162 15.9254 6.03145 15.9254 5.96875L15.9505 5.99384Z" fill="#EE1C26"/>
</svg>
