<svg width="31" height="31" viewBox="0 0 31 31" fill="none" xmlns="http://www.w3.org/2000/svg">
<path d="M15.5 2.11934C22.8738 2.11934 28.8807 8.12621 28.8807 15.5C28.8807 22.8738 22.8738 28.8807 15.5 28.8807C8.12621 28.8807 2.11934 22.8738 2.11934 15.5C2.11934 8.12621 8.12621 2.11934 15.5 2.11934ZM15.5 0C6.93487 0 0 6.93487 0 15.5C0 24.0651 6.93487 31 15.5 31C24.0651 31 31 24.0651 31 15.5C31 6.93487 24.0651 0 15.5 0Z" fill="#EE1C26"/>
<path fill-rule="evenodd" clip-rule="evenodd" d="M9.01703 20.8802C8.40255 20.6795 7.98871 20.2782 7.76298 19.6638C7.22374 18.1714 7.06071 11.9388 8.10156 10.7099C8.4527 10.296 8.91671 10.0452 9.46849 9.98252C12.2775 9.68155 20.9681 9.71918 21.9713 10.0828C22.5607 10.296 22.9746 10.6723 23.2003 11.2617C23.7897 12.8041 23.8148 18.4097 23.125 19.8895C22.9369 20.2908 22.6359 20.5792 22.2472 20.7799C21.1938 21.3316 10.409 21.3191 9.02956 20.8676L9.01703 20.8802ZM13.4814 17.9583C15.1744 17.0804 16.8423 16.2151 18.5478 15.3373C16.8423 14.4469 15.1744 13.5816 13.4814 12.6913V17.9583Z" fill="#EE1C26"/>
</svg>
