<svg width="1188" height="335" viewBox="0 0 1188 335" fill="none" xmlns="http://www.w3.org/2000/svg" xmlns:xlink="http://www.w3.org/1999/xlink">
<rect y="149" width="1188" height="186" rx="29" fill="url(#pattern0_895_11247)"/>
<ellipse cx="500.5" cy="282.5" rx="51.5" ry="5.5" fill="black" fill-opacity="0.25"/>
<ellipse cx="669.5" cy="286.5" rx="50.5" ry="5.5" fill="black" fill-opacity="0.25"/>
<g clip-path="url(#clip0_895_11247)">
<path d="M598.712 168.606C603.868 158.443 607.098 155.321 615.527 150.047C612.645 148.473 609.924 146.795 607.41 145.008C596.516 137.226 590.382 126.859 589.64 114.975C588.711 99.9456 596.461 83.2935 610.359 70.4337C611.482 69.3744 612.634 68.3826 613.812 67.412C610.978 62.9313 605.723 52.4291 612.359 44.0597C619.787 34.7021 637.88 33.6082 643.376 39.2842C647.459 43.4164 648.939 48.4394 649.505 51.5099C657.905 50.3491 666.792 50.569 676.172 52.2387C685.532 53.9564 693.899 56.8632 701.267 60.8896C702.944 58.2327 706.265 54.0826 711.638 51.661C718.959 48.2812 735.374 55.6282 738.694 66.9484C741.682 77.0389 732.754 84.9753 728.4 88.1572C729.097 89.4524 729.798 90.7938 730.429 92.1637C738.44 108.988 739.268 127.183 732.62 140.873C729.869 146.537 725.869 151.249 720.811 154.994C721.818 156.243 722.884 157.65 724.038 159.26C733.626 172.737 725.642 186.247 718.319 194.436C722.305 204.359 729.339 222.928 721.709 238.921C721.877 240.534 722 242.825 722.243 246.082C722.243 246.082 722.63 253.533 719.432 266.407C717.641 273.672 713.43 283.928 705.659 285.785C692.702 289.028 686.882 283.515 685.178 277.115C684.045 272.879 683.717 266.539 685.176 262.249C680.179 263.272 674.729 264.004 668.799 264.446C662.87 264.888 657.393 264.948 652.278 264.703C654.356 268.706 654.971 275.024 654.481 279.405C653.745 285.987 648.807 292.301 635.513 291.017C627.576 290.331 621.89 280.813 619.042 273.894C613.993 261.635 613.247 254.211 613.247 254.211C613.004 250.954 612.811 248.692 612.713 247.05C602.793 232.343 607.015 212.888 609.485 202.483C601.052 195.47 591.203 183.312 598.665 168.61" fill="#E60012"/>
<path d="M614.779 74.8891C626.269 64.2297 639.698 58.3037 654.832 57.1751C661.239 56.6972 667.975 57.0775 674.992 58.3196C698.514 62.6511 715.224 74.9239 724.637 94.7558C731.789 109.739 732.623 126.401 726.872 138.259C722.39 147.466 714.34 153.641 702.951 156.628C689.934 160.037 673.91 160.187 655.36 157.088C636.893 153.494 622.065 147.771 611.247 140.03C601.776 133.28 596.664 124.695 596.029 114.568C595.225 101.527 602.408 86.3109 614.779 74.8891Z" fill="white"/>
<path d="M660.124 132.97C655.69 132.186 652.547 129.052 653.182 125.961C653.791 122.85 657.933 121.008 662.345 121.817C666.829 122.621 669.949 125.78 669.338 128.868C668.705 131.981 664.607 133.774 660.124 132.97Z" fill="#E60012"/>
<path d="M683.279 89.1765C684.503 88.8296 685.994 88.8346 687.382 88.7543C688.561 89.0845 689.722 89.1837 690.865 89.6792C695.605 91.6717 699.013 94.8089 702.665 98.3228C704.939 100.453 706.932 102.999 708.766 105.347C712.801 110.459 714.157 117.349 711.449 123.591C709.955 127.093 707.016 129.264 703.388 130.58C699.949 131.858 695.922 131.369 693.091 129.513C688.59 126.55 687.035 122.461 684.392 118.292C681.886 114.344 678.455 110.883 676.595 106.585C673.65 99.6505 675.863 91.611 683.303 89.1747M680.738 103.14C684.989 105.657 686.609 108.37 686.635 108.392C686.883 108.814 687.356 109.035 687.81 109.001C687.978 108.988 688.166 108.928 688.328 108.846C688.929 108.522 689.138 107.787 688.808 107.231C688.728 107.121 687.321 104.694 683.695 102.177C685.391 101.702 687.674 102.019 688.627 102.227C689.288 102.387 689.956 101.988 690.125 101.349C690.293 100.709 689.885 100.066 689.224 99.906C688.612 99.7657 683.134 98.525 680.458 101.326C680.214 101.6 680.097 101.957 680.123 102.304C680.174 102.671 680.39 102.981 680.692 103.167" fill="#E60012"/>
<path d="M625.471 90.2818C628.074 88.7636 630.93 87.0872 633.844 85.8711C638.601 83.8903 642.991 82.146 648.146 81.9706C649.391 81.9009 650.496 82.2134 651.731 82.3304C652.997 82.8631 654.382 83.387 655.375 84.1259C661.34 89.0004 660.345 97.251 654.931 102.672C651.576 106.035 647.038 108.046 643.183 110.842C639.124 113.793 636.122 117.06 630.778 118.248C627.417 118.963 623.501 118.024 620.799 115.647C617.92 113.144 616.01 110.104 615.969 106.321C615.826 99.5724 619.735 93.6364 625.447 90.2836M643.17 100.669C643.433 100.974 643.83 101.131 644.212 101.102C644.451 101.084 644.709 100.995 644.912 100.818C644.912 100.818 647.505 98.8358 652.418 97.9816C652.773 97.9087 653.094 97.6989 653.287 97.3825C653.479 97.0662 653.5 96.693 653.354 96.3554C651.914 92.8392 646.373 92.0446 645.743 91.9754C645.087 91.885 644.449 92.3507 644.354 93.0082C644.258 93.6657 644.735 94.2573 645.415 94.346C646.409 94.4577 648.66 94.9866 650.06 96.0204C645.717 97.1108 643.468 98.8581 643.355 98.9595C642.833 99.3701 642.746 100.143 643.168 100.646" fill="#E60012"/>
<path d="M641.787 130.156C643.165 129.287 645.02 129.66 645.912 130.987C647.102 132.756 648.918 134.549 651.312 136.345C653.453 137.974 655.64 139.251 657.092 140.025C657.567 140.268 658.062 140.464 658.67 140.558C659.183 140.659 659.712 140.666 660.26 140.602C661.927 140.384 664.442 139.941 667.079 139.187C669.997 138.342 672.371 137.306 674.155 136.081C675.506 135.167 677.355 135.471 678.318 136.77C679.256 138.07 678.934 139.883 677.584 140.796C675.251 142.387 672.273 143.724 668.742 144.731C665.776 145.579 662.928 146.07 661.072 146.325C660.833 146.343 660.617 146.359 660.378 146.377C659.398 146.45 658.457 146.404 657.53 146.218C656.338 146.028 655.202 145.625 654.149 145.053C652.521 144.175 650.058 142.733 647.611 140.871C644.708 138.695 642.447 136.425 640.905 134.124C640.013 132.797 640.384 131.004 641.785 130.133" fill="#E60012"/>
<path d="M626.515 138.775C627.83 138.677 629.633 138.031 631.662 135.905C632.497 134.844 633.01 133.343 632.463 132.129C632.206 131.591 631.56 130.663 629.867 130.534C629.335 130.481 628.967 130.392 628.672 130.298C628.083 130.133 627.396 129.952 626.259 130.176C624.954 130.413 623.126 131.687 622.362 133.37C621.802 134.573 621.873 135.846 622.555 136.933C623.208 137.953 624.367 138.656 625.699 138.789C625.941 138.817 626.23 138.819 626.517 138.798M627.102 132.784C627.389 132.763 627.562 132.82 627.905 132.91C628.298 133.02 628.814 133.168 629.611 133.224C629.878 133.251 629.953 133.292 629.953 133.292C629.956 133.338 629.823 133.813 629.539 134.182C627.82 135.96 626.56 136.147 625.979 136.097C625.446 136.044 625.089 135.768 624.951 135.523C624.814 135.301 624.67 134.987 624.919 134.457C625.313 133.615 626.366 132.909 626.793 132.831C626.913 132.822 627.031 132.79 627.126 132.783" fill="#E60012"/>
<path d="M696.244 252.713C688.79 255.592 679.482 257.471 668.365 258.3C657.248 259.129 647.788 258.65 639.989 256.909C630.475 251.509 617.944 243.059 617.801 243.07C617.801 243.07 617.777 243.072 617.753 243.074C610.258 231.229 613.15 215.194 615.363 205.552C621.496 210.414 628.784 211.752 633.191 208.311C638.761 204.016 641.477 197.24 634.866 189.185C632.695 186.513 630.346 184.992 627.389 182.728C624.663 180.678 625.235 176.733 626.243 173.173C626.748 171.556 627.423 169.973 628.199 168.451C630.058 165.014 632.966 161.778 637.5 159.07C641.583 160.299 645.897 161.417 650.417 162.381L645.272 163.02L645.399 164.73C645.399 164.73 645.315 171.658 652.248 171.141L671.375 169.714C675.08 169.438 676.486 167.336 676.996 165.463C681.018 165.557 684.906 165.476 688.612 165.2C690.979 165.024 693.243 164.762 695.478 164.433C696.212 165.562 696.921 166.694 697.491 167.883C699.04 171.252 700.165 175.047 697.775 177.501C695.185 180.157 693.113 182.03 691.338 184.996C685.995 193.943 689.687 200.241 695.832 203.662C700.675 206.39 707.662 204.011 712.987 198.364C716.606 207.572 721.818 222.978 716.162 235.781C716.162 235.781 716.138 235.783 716.114 235.784C715.97 235.795 704.834 246.033 696.224 252.761" fill="white"/>
<path d="M660.971 159.155C676.535 157.994 690.119 169.292 691.241 184.33C692.362 199.368 680.604 212.556 665.04 213.717C649.476 214.877 635.916 203.578 634.794 188.54C633.672 173.502 645.407 160.315 660.971 159.155ZM664.418 205.378C675.224 204.572 683.389 195.415 682.61 184.974C681.831 174.532 672.397 166.665 661.591 167.471C650.785 168.277 642.62 177.433 643.401 187.898C644.181 198.362 653.612 206.184 664.418 205.378Z" fill="white"/>
<path d="M660.606 154.257C678.967 152.888 694.962 166.213 696.284 183.931C697.605 201.648 683.741 217.223 665.404 218.591C647.066 219.958 631.047 206.635 629.724 188.895C628.401 171.154 642.268 155.625 660.606 154.257ZM665.039 213.694C680.603 212.533 692.361 199.345 691.239 184.307C690.118 169.269 676.535 157.994 660.971 159.155C645.407 160.315 633.673 173.502 634.793 188.517C635.912 203.532 649.475 214.854 665.039 213.694Z" fill="#E60012"/>
<path d="M661.791 170.15C671.067 169.458 679.166 176.195 679.835 185.157C680.503 194.12 673.493 201.983 664.217 202.675C654.94 203.367 646.865 196.629 646.196 187.666C645.528 178.703 652.515 170.842 661.791 170.15Z" fill="white"/>
<path d="M661.591 167.471C672.397 166.665 681.829 174.51 682.61 184.974C683.39 195.438 675.224 204.572 664.418 205.378C653.611 206.184 644.179 198.339 643.401 187.898C642.622 177.457 650.784 168.277 661.591 167.471ZM664.216 202.675C673.493 201.983 680.503 194.12 679.835 185.158C679.166 176.195 671.067 169.459 661.791 170.15C652.514 170.842 645.528 178.704 646.196 187.666C646.865 196.629 654.94 203.367 664.216 202.675Z" fill="#E60012"/>
<path d="M634.841 189.164C641.452 197.219 638.736 203.995 633.166 208.289C629.03 211.501 622.395 210.533 616.534 206.417L627.668 182.916C630.472 185.053 632.725 186.581 634.839 189.141" fill="#E60012"/>
<path d="M697.462 177.803L711.958 199.393C706.793 204.285 700.397 206.202 695.854 203.637C689.709 200.216 686.018 193.918 691.361 184.971C693.048 182.128 695.026 180.285 697.462 177.803Z" fill="#E60012"/>
</g>
<g clip-path="url(#clip1_895_11247)">
<path d="M453.505 92.4327C454.255 91.3937 455.028 90.3773 455.801 89.3835C453.414 88.2541 451.345 86.5375 449.868 84.2788C444.911 76.6444 448.435 65.6897 457.802 59.7041C467.078 53.7411 478.65 55.0963 483.583 62.7082C484.766 64.4925 485.448 66.4802 485.72 68.513C492.655 66.2995 500.225 65.1476 508.41 65.1024C516.572 65.125 524.142 66.2769 531.076 68.513C531.349 66.4576 532.031 64.4925 533.191 62.7082C538.124 55.1189 549.696 53.7637 558.972 59.7267C568.339 65.6897 571.863 76.667 566.906 84.3014C565.451 86.5601 563.383 88.2767 560.995 89.4061C561.768 90.3773 562.541 91.3937 563.292 92.4327C573.318 106.369 577.228 122.745 573.772 136.229C571.226 146.1 564.769 154.005 555.107 159.313C557.335 162.407 559.745 166.586 561.177 171.759C563.928 181.335 560.654 188.654 555.675 194.029C555.88 194.684 556.085 195.339 556.267 196.017C564.11 223.709 561.132 241.598 560.995 242.343L560.654 244.331L558.654 244.76C558.654 244.76 558.063 244.873 557.29 245.031C557.29 245.709 557.29 246.454 557.29 247.267C557.29 247.267 557.13 254.111 553.425 265.721C551.356 272.248 546.9 281.374 539.852 282.548C528.075 284.626 523.256 279.16 522.164 273.197C521.46 269.289 521.55 263.575 523.074 259.758C518.572 260.345 513.707 260.661 508.387 260.661C503.067 260.661 498.202 260.345 493.7 259.758C495.224 263.575 495.337 269.289 494.61 273.197C493.518 279.183 488.699 284.626 476.922 282.548C469.897 281.374 465.441 272.248 463.372 265.721C459.666 254.134 459.507 247.267 459.507 247.267C459.507 246.454 459.507 245.731 459.507 245.031C458.734 244.873 458.257 244.782 458.143 244.76L456.142 244.331L455.801 242.343C455.665 241.598 452.687 223.709 460.53 196.017C460.735 195.339 460.939 194.707 461.121 194.029C456.142 188.654 452.869 181.335 455.597 171.759C457.052 166.586 459.439 162.407 461.69 159.313C452.027 154.005 445.548 146.077 443.024 136.206C439.546 122.722 443.479 106.346 453.505 92.4327ZM462.099 201.912C462.099 201.912 462.053 202.093 462.031 202.206C462.053 202.116 462.076 202.025 462.099 201.912ZM554.675 201.89C554.675 201.89 554.698 202.025 554.721 202.116C554.721 202.048 554.698 201.98 554.675 201.89Z" fill="#E578AC"/>
<path d="M441.615 82.1334C445.275 79.8295 450.777 79.6262 455.142 81.5687C455.779 80.6652 456.597 79.8973 457.575 79.2874C458.507 78.7002 459.53 78.3162 460.621 78.1355C460.712 73.3696 463.213 68.536 466.873 66.2321C468.715 65.0576 470.625 64.6736 472.534 65.0802C475.558 65.7352 478.4 68.3327 481.515 73.2341C482.128 74.1827 482.629 75.0636 483.106 75.9445C490.631 72.8049 499.089 71.2013 508.41 71.1787C529.826 71.2464 546.627 79.5811 558.358 95.9341C567.225 108.267 570.885 123.129 567.907 134.739C565.588 143.751 559.609 150.617 550.151 155.157C542.239 158.952 532.6 161.437 521.437 162.589C519.868 161.527 518.186 160.488 516.367 159.449C513.343 157.71 513.161 156.151 513.161 156.151C513.207 155.315 512.798 154.593 512.07 154.141C511.343 153.712 510.433 153.78 509.706 154.231L508.205 155.135L506.409 153.96C505.5 153.373 504.318 153.509 503.545 154.276L502.044 155.79L500.384 155.203C499.589 154.931 498.702 155.112 498.088 155.677C497.474 156.242 497.224 157.122 497.452 157.936C497.452 157.936 497.497 159.472 494.996 161.708C494.724 161.956 494.451 162.205 494.178 162.453C483.538 161.256 474.308 158.816 466.691 155.18C457.211 150.64 451.232 143.773 448.913 134.761C446.753 126.336 448.094 116.217 452.369 106.595C452.323 106.595 452.3 106.595 452.255 106.595C447.094 106.595 443.252 100.632 441.774 98.3509C439.955 95.4823 434.431 86.7637 441.638 82.156" fill="white"/>
<path d="M498.748 202.974C499.862 201.709 500.476 200.422 500.726 199.134C501.635 199.202 502.567 199.247 503.545 199.247C505.477 199.247 507.524 199.134 509.729 198.908C511.957 198.682 514.026 198.344 515.935 197.937C515.981 199.631 516.595 201.325 518.027 202.974C524.506 210.36 534.987 207.22 543.967 202.613C546.059 201.528 548.378 200.151 550.629 198.479C556.335 219.124 555.721 234.076 555.221 239.294C549.219 240.401 530.986 243.382 508.365 243.382C485.744 243.382 467.51 240.401 461.508 239.294C461.008 234.076 460.394 219.146 466.101 198.479C468.351 200.151 470.67 201.528 472.762 202.613C481.719 207.22 492.246 210.36 498.702 202.974" fill="white"/>
<path d="M488.857 167.806C486.197 170.923 484.333 174.085 483.469 177.564C479.741 173.137 480.264 169.094 481.469 166.406C483.856 166.948 486.311 167.422 488.857 167.806Z" fill="white"/>
<path d="M532.6 178.377C532.054 174.198 530.326 170.81 527.644 167.851C530.304 167.445 532.85 166.948 535.328 166.406C536.601 169.252 537.124 173.634 532.6 178.377Z" fill="white"/>
<path d="M477.764 247.696C486.085 248.6 496.588 249.368 508.365 249.368H508.41C520.187 249.368 530.668 248.6 539.011 247.696C540.125 247.583 541.194 247.448 542.217 247.335C539.943 248.803 537.306 250.068 534.305 251.084C527.485 253.433 518.845 254.608 508.387 254.608C497.929 254.608 489.267 253.411 482.47 251.084C479.469 250.045 476.831 248.803 474.558 247.335C475.581 247.448 476.65 247.583 477.764 247.696Z" fill="white"/>
<path d="M517.436 167.309C516.299 166.134 515.026 164.779 513.639 163.085C513.639 163.085 513.616 163.04 513.594 163.04C513.776 163.153 513.912 163.266 514.094 163.356C525.188 169.681 528.781 174.582 528.258 182.713C527.985 187.14 525.075 190.303 519.459 192.313C521.983 189.67 523.756 185.988 523.642 181.29C523.438 173.656 521.051 171.126 517.436 167.332" fill="white"/>
<path d="M511.115 165.276C512.57 167.016 513.866 168.393 515.003 169.59C518.436 173.204 520.141 175.011 520.3 181.358C520.459 187.547 516.503 191.477 512.547 193.149C513.889 189.806 514.457 185.605 514.685 182.533C515.162 176.186 513.866 171.059 511.115 165.276Z" fill="white"/>
<path d="M501.453 183.911C502.317 186.847 503.749 190.845 505.772 193.826C501.544 193.013 496.86 189.987 495.724 183.911C494.541 177.654 495.837 175.531 498.429 171.307C499.293 169.884 500.293 168.258 501.339 166.248C499.861 172.482 499.657 177.79 501.453 183.911Z" fill="white"/>
<path d="M495.565 169.613C492.837 174.085 491.018 177.044 492.427 184.543C493.291 189.151 495.77 192.358 498.771 194.436C490.04 193.216 488.744 188.676 488.222 186.914C486.016 179.054 488.472 173.543 497.998 165.05C498.157 164.915 498.27 164.779 498.407 164.644C498.407 164.644 498.407 164.666 498.407 164.689C497.384 166.654 496.429 168.235 495.565 169.635" fill="white"/>
<path d="M511.411 182.284C511.07 186.779 510.206 190.484 509.092 192.787C507.5 190.755 505.886 187.299 504.613 182.985C502.59 176.096 503.431 170.155 505.863 162.205C509.91 169.478 511.979 175.102 511.433 182.284" fill="white"/>
<path d="M442.388 83.3306C445.912 81.117 451.527 81.0493 455.71 83.4209C456.256 82.3141 457.097 81.2751 458.348 80.4846C459.507 79.7618 460.78 79.423 462.099 79.423C461.69 74.6571 464.1 69.6428 467.669 67.4067C472.489 64.3348 476.672 68.1972 480.355 73.9795C484.015 79.6715 485.811 85.0923 480.901 88.119C477.536 90.31 472.193 90.4229 468.078 88.2997C467.532 89.6098 466.646 90.7165 465.327 91.5071C464.054 92.2976 462.667 92.6364 461.235 92.5913C461.417 97.2668 459.075 101.965 455.642 104.065C450.822 107.137 446.616 103.275 442.956 97.583C439.296 91.7781 437.523 86.425 442.388 83.3306Z" fill="#E578AC"/>
<path d="M508.387 152.108C517.322 152.108 521.369 145.739 521.528 145.467C522.369 144.112 521.937 142.35 520.573 141.537C519.209 140.724 517.436 141.131 516.617 142.486C516.526 142.622 514.025 146.394 508.387 146.394C502.749 146.394 500.203 142.531 500.18 142.486C499.339 141.131 497.565 140.724 496.224 141.537C494.86 142.373 494.428 144.135 495.269 145.467C495.428 145.739 499.452 152.108 508.41 152.108" fill="#E578AC"/>
<path d="M500.998 138.194C500.998 141.108 504.318 143.412 508.387 143.412C512.457 143.412 515.799 141.086 515.799 138.194C515.799 135.303 512.48 132.932 508.387 132.932C504.295 132.932 500.998 135.281 500.998 138.194Z" fill="#E578AC"/>
<path d="M533.6 99.548C535.601 100.203 539.193 99.4803 540.921 97.7411C541.557 97.0635 542.535 97.8992 541.625 100.09C541.194 101.174 540.511 101.942 539.602 102.439C541.421 102.281 543.376 101.491 544.558 100.135C545.263 99.3899 546.332 100.61 545.74 103.275C545.513 104.291 544.99 105.601 543.831 106.821C544.013 107.002 544.195 107.182 544.376 107.363C552.356 115.72 555.744 123.287 549.083 129.657C542.33 135.936 534.873 132.254 526.893 123.829C518.936 115.517 515.321 103.953 520.141 99.3899C523.028 96.7021 528.212 97.0861 533.6 99.5706M524.529 105.285C525.347 106.934 526.939 107.679 528.189 107.092C529.485 106.482 529.849 104.675 529.053 103.049C528.189 101.445 526.53 100.519 525.302 101.197C524.006 101.829 523.665 103.569 524.529 105.285Z" fill="#E578AC"/>
<path d="M464.031 121.796C464.031 121.796 464.145 121.751 464.19 121.728C464.372 117.279 467.509 112.467 472.42 107.34C472.602 107.16 472.784 106.979 472.966 106.798C471.784 105.578 471.283 104.268 471.033 103.252C470.42 100.609 471.511 99.367 472.216 100.112C473.375 101.468 475.353 102.258 477.172 102.416C476.285 101.919 475.58 101.174 475.171 100.067C474.262 97.8762 475.239 97.0405 475.876 97.7181C477.604 99.4573 481.173 100.18 483.196 99.5477C488.585 97.0631 493.768 96.6791 496.655 99.367C501.475 103.93 497.86 115.494 489.903 123.806C483.378 130.695 477.194 134.422 471.465 132.096C470.26 134.467 468.669 136.206 466.85 137.11C465.895 137.584 464.872 137.833 463.849 137.833C463.076 137.833 462.303 137.697 461.53 137.426C458.938 136.523 457.324 134.603 457.12 132.118C456.824 128.391 459.666 124.145 464.031 121.796ZM488.607 107.092C489.858 107.679 491.449 106.911 492.268 105.285C493.154 103.591 492.813 101.829 491.517 101.197C490.29 100.542 488.63 101.445 487.766 103.049C486.97 104.675 487.311 106.482 488.63 107.092M462.621 134.241C463.554 134.558 464.418 134.512 465.281 134.083C466.941 133.27 468.464 131.011 469.396 128.098C470.078 125.929 470.942 124.393 471.852 123.196C469.624 123.535 467.328 123.874 465.645 124.777C462.076 126.697 460.325 129.86 460.507 131.87C460.598 132.999 461.303 133.79 462.644 134.241" fill="#E578AC"/>
</g>
<defs>
<clipPath id="clip0_895_11247">
<rect width="152.549" height="255.292" fill="white" transform="matrix(-0.99723 0.0743734 0.0743734 0.99723 736.126 28)"/>
</clipPath>
<clipPath id="clip1_895_11247">
<rect width="137" height="227" fill="white" transform="matrix(-1 0 0 1 575 56)"/>
</clipPath>
<pattern id="pattern0_895_11247" patternUnits="userSpaceOnUse" patternTransform="matrix(5 0 0 5 0 149)" preserveAspectRatio="none" viewBox="0 0 5 5" width="1" height="1">
<g id="pattern0_895_11247_inner">
<path d="M3.75 1.25H5V3.75H3.75V5H1.25V3.75H0V1.25H1.25V0H3.75V1.25Z" fill="#E8E8E8"/>
</g>
</pattern></defs>
</svg>
