<svg width="315" height="337" viewBox="0 0 315 337" fill="none" xmlns="http://www.w3.org/2000/svg">
<g filter="url(#filter0_d_195_2896)">
<g clip-path="url(#clip0_195_2896)">
<path d="M65.3805 115.146C64.4291 115.261 63.6449 115.948 63.3777 116.873C62.5118 120.106 63.2844 122.249 64.1046 123.463C65.5361 125.616 67.8345 126.296 68.7136 126.502L71.4216 127.596C71.6029 127.676 71.788 127.73 71.9769 127.756C72.4086 127.817 72.8592 127.743 73.2672 127.58C73.856 127.305 74.3094 126.819 74.5313 126.217C74.535 126.19 75.7587 122.76 77.4897 120.226C78.2496 119.123 78.3193 117.84 77.6961 116.79C77.1581 115.918 75.9311 113.876 65.3498 115.17" fill="#EF1923"/>
<path d="M40.2683 98.0164C39.345 97.1446 37.9192 97.1097 37.0007 97.9707L33.4186 101.345C33.1304 101.635 32.9194 101.963 32.7817 102.356L31.5785 106.229C31.2422 107.254 31.6652 108.358 32.6031 108.929L37.9487 112.208C38.2267 112.385 38.5429 112.484 38.8667 112.529C39.4873 112.616 40.1419 112.461 40.6379 112.063L46.294 107.632C46.8207 107.211 47.1543 106.598 47.1948 105.916C47.2354 105.234 46.9677 104.592 46.4848 104.112L40.2953 98.0202L40.2683 98.0164Z" fill="#EF1923"/>
<path d="M43.514 142.38L51.1502 143.451C51.8788 143.553 52.6295 143.3 53.1444 142.768L55.865 140.042C56.2186 139.679 56.4485 139.217 56.5203 138.704L56.9474 135.657C57.1289 134.363 56.2202 133.191 54.952 133.013L53.36 132.79L51.8188 131.419C51.3785 131.028 50.8038 130.809 50.195 130.834L45.5021 130.946C44.4502 130.991 43.5543 131.69 43.272 132.723L41.5564 139.466C41.3847 140.102 41.5061 140.806 41.8698 141.352C42.2604 141.902 42.8395 142.286 43.4871 142.376" fill="#EF1923"/>
<path d="M63.4283 162.438C63.6149 163.069 64.0671 163.572 64.6305 163.871L66.8182 164.948C67.0498 165.063 67.2888 165.124 67.5317 165.158C67.6666 165.177 67.8015 165.196 67.9132 165.184L72.6062 165.072C73.2689 165.055 73.9154 164.761 74.3494 164.217C74.7795 163.699 74.9587 163.01 74.8568 162.363L73.633 154.411C73.5504 153.822 73.2369 153.31 72.7928 152.946C68.5913 149.552 64.0686 152.767 62.2789 154.936C61.7796 155.553 61.6123 156.355 61.834 157.128L63.4283 162.438Z" fill="#EF1923"/>
<path d="M86.0425 162.254C83.0285 161.969 80.631 164.547 80.3698 164.84C80.1739 165.06 79.9974 165.338 79.9019 165.627L78.6134 169.323C78.4757 169.716 78.446 170.125 78.528 170.521L78.9622 172.919C79.1537 173.908 79.9534 174.68 80.9518 174.82C81.0328 174.831 81.1137 174.843 81.1947 174.854L88.9097 175.166C89.2913 175.192 89.6609 175.106 90.015 174.936C90.369 174.765 91.5347 174.104 92.0157 172.439C92.6155 170.516 92.062 168.184 90.3471 165.304C88.9922 162.997 87.2605 162.397 86.0425 162.254Z" fill="#EF1923"/>
<path d="M58.1853 185.706C36.8022 178.089 27.8766 173.264 24.0063 169.862L58.1853 185.706Z" fill="white"/>
<path d="M58.1855 185.706C79.5687 193.323 89.5113 195.211 94.6549 195.025L58.1855 185.706Z" fill="white"/>
<path d="M292.306 92.6004C283.463 75.6064 270.683 63.3395 254.098 55.8455C255.307 48.399 255.201 39.146 249.044 33.6089C237.591 23.2601 214.43 24.9899 209.644 33.6122C207.179 38.0506 205.872 43.6413 205.175 48.0252C185.61 50.0115 168.636 58.4375 154.554 73.3176C141.61 86.9549 134.068 103.659 133.448 119.272C128.941 119.629 125.321 122.092 124.834 125.57C124.237 129.83 128.606 133.99 134.542 134.822C134.839 134.863 135.116 134.847 135.413 134.889C138.578 145.286 145.411 154.244 155.652 161.069C161.968 165.281 169.434 168.94 177.784 171.98C172.816 178.569 167.354 186.519 161.392 197.259C159.101 198.092 156.876 198.66 154.772 198.75C143.638 199.279 136.737 202.188 133.319 206.548C130.499 205.466 127.468 204.326 124.374 203.232C114.601 199.745 102.779 195.559 98.1933 193.926C97.5879 192.356 96.5087 190.83 94.8904 189.421C90.2593 185.363 83.5835 180.385 62.7249 172.952C41.8663 165.519 33.5539 165.151 27.3893 165.359C22.161 165.561 18.954 168.026 17.8031 172.704C15.5433 181.955 17.8051 187.606 25.802 192.384C33.6985 197.093 38.932 200.191 51.4324 204.637C63.9329 209.084 69.9156 209.978 78.9975 211.333L79.2673 211.371L79.5641 211.413C87.1733 212.48 92.146 210.372 95.9674 204.309L120.833 213.184C124.343 214.446 127.814 215.592 130.969 216.639C131.102 217.455 131.259 218.302 131.5 219.133C133.122 224.832 140.019 227.449 147.986 228.318C144.94 240.236 143.613 255.584 150.679 269.167C154.382 276.313 160.054 282.167 167.557 286.738C167.254 288.51 167.004 290.097 166.745 291.353C164.802 300.704 167.489 322.361 182.83 324.209C188.943 324.956 193.557 322.853 197.085 319.471C199.654 323.131 203.218 325.775 208.02 326.448C223.193 328.52 229.287 312.328 232.081 302.794C232.776 300.389 233.789 297.287 234.546 293.846C239.165 291.909 243.331 289.276 246.963 285.936C265.544 268.992 265.646 238.818 264.85 226.636C263.955 213.396 260.857 191.928 256.865 179.189C260.431 178.479 263.846 177.665 267.046 176.629C281.737 171.925 292.285 162.626 297.614 149.735C304.366 133.361 302.351 112.017 292.252 92.5928" fill="#EF1923"/>
<path d="M232.888 181.437C225.567 181.455 217.874 180.982 209.903 179.947L209.822 179.936C203.924 179.026 198.28 177.878 192.882 176.544C190.34 178.387 185.961 180.77 180.171 181.058C178.013 184.082 175.787 187.4 173.447 191.141C179.237 187.718 184.949 184.065 189.957 182.292C198.765 179.128 206.119 182.606 210.014 191.125C214.553 200.945 210.463 208.73 202.341 214.657C191.085 222.922 171.521 226.861 171.521 226.861C167.285 227.834 161.43 228.581 155.508 228.63C152.57 239.381 150.895 253.691 157.177 265.79C159.885 271.008 163.916 275.422 169.182 279.075C171.966 268.44 178.212 257.246 196.318 264.293C210.88 269.936 211.604 281.255 209.784 290.705C223.399 291.129 234.271 287.759 242.128 280.585C258.402 265.765 258.404 238.271 257.654 227.14C257.412 223.367 256.957 218.766 256.342 213.924C253.093 210.609 238.061 194.782 232.884 181.464" fill="white"/>
<path d="M98.4765 198.97C98.3966 199.344 98.2665 199.683 98.1288 200.076L122.416 208.759C125.378 209.807 128.267 210.789 131.002 211.695C131.047 211.372 131.143 211.082 131.242 210.766C128.58 209.734 125.73 208.674 122.795 207.63C114.147 204.548 103.872 200.909 98.4495 198.966" fill="white"/>
<path d="M91.3009 200.109L92.2914 197.361C91.3626 197.313 90.3605 197.2 89.3081 197.053C82.2656 196.065 71.8961 193.099 57.4324 187.938C39.2737 181.46 28.313 176.432 23.084 172.125C22.7963 172.607 22.5782 173.181 22.4373 173.794C20.6844 180.999 22.1007 184.634 28.0675 188.193C35.9409 192.871 40.993 195.888 53.073 200.194C65.1261 204.495 70.9469 205.366 79.7628 206.657L80.0326 206.695C80.0326 206.695 80.2215 206.722 80.3024 206.733C85.753 207.497 88.9749 206.299 91.6844 202.28C91.2203 201.665 91.0294 200.868 91.3009 200.109Z" fill="white"/>
<path d="M58.989 183.509C74.2125 188.942 84.8825 191.923 91.4232 192.564C88.0398 189.616 82.1389 184.802 61.1724 177.354C40.2329 169.909 32.5918 169.855 28.1109 170.025C33.6001 173.653 43.7347 178.099 58.989 183.509Z" fill="white"/>
<path d="M285.9 95.9091C274.047 73.1043 254.293 59.5573 227.252 55.6016C200.196 51.9464 177.502 59.5704 159.808 78.2334C147.989 90.7088 140.95 106.384 140.66 120.42C144.495 122.113 146.939 125.287 146.482 128.55C146.183 130.68 144.7 132.424 142.588 133.558C144.247 138.602 146.961 143.189 150.702 147.315C163.112 148.478 169.494 141.619 169.559 141.545C170.862 140.106 173.108 139.981 174.549 141.282C175.989 142.584 176.115 144.829 174.813 146.268C174.521 146.585 168.95 152.568 158.523 154.13C158.925 154.407 159.292 154.733 159.72 155.013C172.347 163.464 190.031 169.6 210.878 172.797C231.774 175.452 250.463 174.415 264.927 169.761C277.689 165.666 286.465 158.016 291.013 146.968C296.858 132.748 294.925 113.176 285.927 95.9128" fill="white"/>
<path d="M207.441 112.13C205.269 109.571 202.938 106.77 200.396 104.489C196.19 100.738 192.281 97.4128 187.043 95.3313C185.793 94.8262 184.533 94.787 183.226 94.4938C181.666 94.6325 180.09 94.6865 178.754 95.1867C170.84 98.2564 168.869 107.411 172.5 115.068C174.752 119.811 178.689 123.524 181.656 127.872C184.762 132.404 186.663 136.905 191.781 140.042C194.946 141.997 199.382 142.344 203.015 140.764C206.883 139.079 210.001 136.464 211.435 132.514C214.009 125.341 212.115 117.652 207.472 112.107M186.586 122.734C184.535 122.447 183.019 120.502 183.31 118.426C183.601 116.35 185.566 114.893 187.644 115.184C189.722 115.475 191.187 117.385 190.892 119.489C190.598 121.592 188.69 123.029 186.586 122.734Z" fill="#EF1923"/>
<path d="M68.3819 160.465L69.8191 160.419L69.1643 156.259C68.2889 156.026 67.3849 156.586 66.7583 157.131L67.6372 160.086L68.3819 160.465Z" fill="white"/>
<path d="M51.8966 137.341C51.4649 137.281 51.0558 137.059 50.7353 136.794L49.3679 135.557L47.3797 135.608L46.7584 138.078L50.617 138.619L51.8966 137.341Z" fill="white"/>
<path d="M68.047 120.854C68.5656 121.669 69.7183 121.886 69.7183 121.886C69.9072 121.912 70.0961 121.939 70.2736 122.046L71.0296 122.345C71.3972 121.489 71.8684 120.483 72.4476 119.492C71.1875 119.452 69.4767 119.487 67.7201 119.654C67.733 120.15 67.8382 120.578 68.0433 120.881" fill="white"/>
<path d="M37.095 104.363L36.6329 105.893L39.0144 107.354L41.2714 105.581L38.5862 102.95L37.095 104.363Z" fill="white"/>
<path d="M86.3269 167.683C86.0366 167.202 85.7701 166.945 85.6351 166.926C85.3113 166.88 84.6804 167.259 84.2077 167.688L83.3013 170.228L87.5134 170.406C87.3964 169.867 87.105 169.001 86.3501 167.713L86.3269 167.683Z" fill="white"/>
</g>
</g>
<defs>
<filter id="filter0_d_195_2896" x="-4" y="0" width="322.889" height="344.8" filterUnits="userSpaceOnUse" color-interpolation-filters="sRGB">
<feFlood flood-opacity="0" result="BackgroundImageFix"/>
<feColorMatrix in="SourceAlpha" type="matrix" values="0 0 0 0 0 0 0 0 0 0 0 0 0 0 0 0 0 0 127 0" result="hardAlpha"/>
<feOffset dy="4"/>
<feGaussianBlur stdDeviation="2"/>
<feComposite in2="hardAlpha" operator="out"/>
<feColorMatrix type="matrix" values="0 0 0 0 0 0 0 0 0 0 0 0 0 0 0 0 0 0 0.25 0"/>
<feBlend mode="normal" in2="BackgroundImageFix" result="effect1_dropShadow_195_2896"/>
<feBlend mode="normal" in="SourceGraphic" in2="effect1_dropShadow_195_2896" result="shape"/>
</filter>
<clipPath id="clip0_195_2896">
<rect width="275.711" height="301.444" fill="white" transform="translate(41.8477) rotate(7.9798)"/>
</clipPath>
</defs>
</svg>
