<svg width="1188" height="335" viewBox="0 0 1188 335" fill="none" xmlns="http://www.w3.org/2000/svg" xmlns:xlink="http://www.w3.org/1999/xlink">
<rect y="149" width="1188" height="186" rx="29" fill="url(#pattern0_895_11475)"/>
<ellipse cx="477.5" cy="282.5" rx="87.5" ry="5.5" fill="black" fill-opacity="0.25"/>
<ellipse cx="667.5" cy="259.5" rx="50.5" ry="5.5" fill="black" fill-opacity="0.25"/>
<g clip-path="url(#clip0_895_11475)">
<path d="M733.146 73.0172C734.385 76.2739 736.512 78.5893 739.489 79.8647C736.523 81.2253 734.447 83.5671 733.298 86.8501C732.059 83.5934 729.932 81.278 726.954 80.0026C729.921 78.642 731.996 76.3002 733.146 73.0172Z" fill="white"/>
<path d="M735.915 140.297C736.892 142.586 738.437 144.253 740.532 145.281C738.46 146.354 736.952 148.055 736.026 150.365C735.049 148.076 733.504 146.409 731.409 145.381C733.481 144.308 734.989 142.607 735.915 140.297Z" fill="white"/>
<path d="M743.38 115.221C742.831 114.217 742.086 113.432 741.181 112.847C742.09 112.243 742.8 111.422 743.328 110.425C743.878 111.43 744.623 112.215 745.545 112.799C744.636 113.404 743.926 114.224 743.38 115.221Z" fill="white"/>
<path d="M594.768 88.3941C593.528 85.1373 591.401 82.8219 588.424 81.5465C591.39 80.1859 593.466 77.8441 594.615 74.5611C595.855 77.8179 597.981 80.1333 600.959 81.4087C597.992 82.7693 595.917 85.1111 594.768 88.3941Z" fill="white"/>
<path d="M582.683 109.914C583.233 110.918 583.978 111.703 584.883 112.288C583.973 112.892 583.264 113.713 582.736 114.709C582.186 113.705 581.441 112.92 580.537 112.335C581.446 111.731 582.156 110.91 582.683 109.914Z" fill="white"/>
<path d="M592.32 141.876C593.297 144.165 594.842 145.833 596.937 146.86C594.866 147.933 593.358 149.635 592.431 151.944C591.454 149.655 589.909 147.988 587.814 146.96C589.886 145.887 591.394 144.186 592.32 141.876Z" fill="white"/>
<path d="M596.019 95.9521L593.684 95.9778C593.585 86.9804 589.75 82.8207 581.579 82.9106L581.55 80.3342C589.703 80.2446 593.464 76.0013 593.365 67.0039L595.7 66.9782C595.799 75.9756 599.634 80.1353 607.805 80.0455L607.834 82.6218C599.681 82.7115 595.92 86.9548 596.019 95.9521ZM594.616 74.5417C593.448 77.8249 591.373 80.1865 588.424 81.5271C591.42 82.8221 593.547 85.1177 594.768 88.3747C595.935 85.0915 598.01 82.7298 600.959 81.3893C597.964 80.0942 595.837 77.7986 594.616 74.5417Z" fill="#E578AC"/>
<path d="M591.079 135.091L593.413 135.066C593.492 142.26 596.564 145.576 603.065 145.504L603.094 148.08C596.593 148.152 593.594 151.535 593.674 158.728L591.339 158.754C591.26 151.56 588.188 148.244 581.669 148.316L581.641 145.74C588.16 145.668 591.158 142.285 591.079 135.091ZM592.432 151.944C593.358 149.634 594.866 147.933 596.938 146.86C594.843 145.832 593.298 144.165 592.321 141.876C591.394 144.186 589.886 145.887 587.815 146.96C589.909 147.988 591.454 149.655 592.432 151.944Z" fill="#E578AC"/>
<path d="M581.456 104.436L583.79 104.41C583.841 108.988 585.713 111.009 589.843 110.964L589.872 113.54C585.723 113.586 583.914 115.647 583.964 120.205L581.63 120.231C581.579 115.653 579.707 113.652 575.559 113.698L575.531 111.121C579.679 111.076 581.506 109.014 581.456 104.436ZM582.736 114.729C583.264 113.712 583.992 112.911 584.883 112.307C583.961 111.722 583.233 110.918 582.684 109.933C582.156 110.949 581.428 111.75 580.537 112.355C581.46 112.939 582.187 113.744 582.736 114.729Z" fill="#E578AC"/>
<path d="M731.896 65.4795L734.23 65.4538C734.329 74.4512 738.165 78.6109 746.336 78.521L746.364 81.0974C738.211 81.1871 734.45 85.4105 734.549 94.4277L732.214 94.4534C732.115 85.456 728.28 81.2963 720.109 81.3861L720.081 78.8098C728.234 78.7201 731.995 74.4967 731.896 65.4795ZM733.298 86.8701C734.466 83.5869 736.541 81.2252 739.49 79.8847C736.494 78.5896 734.367 76.2941 733.146 73.0371C731.979 76.3203 729.904 78.682 726.955 80.0225C729.95 81.3175 732.077 83.6131 733.298 86.8701Z" fill="#E578AC"/>
<path d="M734.674 133.512L737.008 133.487C737.087 140.681 740.159 143.997 746.66 143.925L746.688 146.501C740.187 146.573 737.189 149.955 737.268 157.149L734.934 157.175C734.855 149.981 731.783 146.665 725.264 146.737L725.236 144.161C731.755 144.089 734.753 140.706 734.674 133.512ZM736.026 150.365C736.953 148.055 738.461 146.354 740.532 145.281C738.438 144.253 736.893 142.586 735.916 140.297C734.989 142.606 733.481 144.308 731.41 145.381C733.504 146.409 735.049 148.076 736.026 150.365Z" fill="#E578AC"/>
<path d="M744.608 120.699L742.273 120.724C742.223 116.146 740.351 114.145 736.221 114.191L736.192 111.614C740.341 111.569 742.15 109.507 742.1 104.949L744.435 104.923C744.485 109.501 746.357 111.502 750.505 111.457L750.534 114.033C746.385 114.079 744.558 116.14 744.608 120.699ZM743.327 110.406C742.8 111.423 742.072 112.223 741.181 112.828C742.103 113.412 742.831 114.217 743.38 115.202C743.908 114.185 744.635 113.384 745.545 112.78C744.622 112.195 743.895 111.391 743.327 110.406Z" fill="#E578AC"/>
<path d="M608.888 137.71C603.504 134.776 600.34 126.328 600.21 114.536C600.021 97.374 606.055 90.7273 611.598 90.1114C611.849 90.0888 612.118 90.0462 612.369 90.0434C612.477 90.0422 612.585 90.0609 612.711 90.0793C612.82 88.5321 613.505 87.1966 614.967 86.1301C616.303 85.1838 618.022 84.6892 619.835 84.6296C617.574 78.2922 620.395 70.2339 626.882 65.5642C634.116 60.3313 643.216 61.3808 647.167 67.9574C648.1 69.4931 648.658 71.1915 648.893 72.9728C654.331 70.9904 660.246 69.9145 666.675 69.824C673.104 69.7731 679.042 70.7186 684.504 72.5811C684.7 70.8149 685.22 69.1047 686.119 67.5488C689.926 60.9067 699 59.6375 706.347 64.71C713.749 69.8017 716.637 79.2639 712.813 85.9062C711.685 87.8808 710.085 89.3651 708.21 90.3767C708.83 91.2222 709.45 92.0677 710.035 92.973C718.033 104.936 721.278 119.052 718.712 130.734C718.37 132.304 717.883 133.796 717.343 135.249C717.676 136.196 717.992 137.144 718.29 138.092C720.842 146.448 722.739 160.5 711.003 167.963C707.936 169.939 704.877 171.082 702.226 171.746C703.449 175.181 704.622 178.914 705.709 183.045C712.154 207.274 709.974 222.995 709.892 223.65L709.642 225.417L708.065 225.811C707.976 225.832 707.6 225.935 706.99 226.061C706.997 226.675 707.004 227.309 707.012 228.023C707.012 228.023 706.952 234.029 704.137 244.228C702.548 249.973 699.134 258.018 693.578 259.11C684.314 261.035 680.436 256.282 679.516 251.059C678.922 247.637 678.939 242.622 680.105 239.259C676.573 239.814 672.697 240.134 668.513 240.18C664.328 240.226 660.465 240.011 656.903 239.515C658.143 242.851 658.288 247.864 657.751 251.298C656.947 256.54 653.192 261.378 643.87 259.657C638.309 258.687 634.701 250.719 632.986 245.01C629.965 234.876 629.755 228.872 629.755 228.872C629.748 228.159 629.741 227.525 629.734 226.91C629.122 226.778 628.744 226.703 628.654 226.684L627.069 226.325L626.78 224.564C626.665 223.912 624.14 208.242 630.069 183.877C630.619 181.611 631.206 179.464 631.794 177.416C628.926 176.338 626.199 174.921 623.758 173.441L623.704 173.442C623.324 173.208 622.998 172.974 622.637 172.76C622.619 172.76 622.582 172.721 622.564 172.701C619.869 170.967 617.604 169.188 616.116 167.758C610.107 161.957 604.726 154.425 608.288 146.834C608.482 146.436 608.693 146.076 608.923 145.757C609.064 145.537 609.206 145.377 609.366 145.177C609.401 145.137 609.436 145.077 609.472 145.037L609.4 138.537C609.397 138.2 609.196 137.885 608.87 137.69M624.09 146.541C621.348 143.777 619.211 140.55 617.681 136.94C617.469 137.259 617.329 137.597 617.332 137.934L617.393 143.424C619.663 144.073 622.011 145.276 624.108 146.541" fill="#E578AC"/>
<path d="M676.231 99.3503C678.486 97.0066 682.548 97.2988 686.828 99.4122C688.415 99.9497 691.209 99.2847 692.558 97.7635C693.054 97.1635 693.834 97.8684 693.137 99.7788C692.824 100.734 692.274 101.374 691.578 101.818C692.996 101.663 694.533 100.973 695.454 99.793C696.003 99.1329 696.859 100.194 696.417 102.498C696.229 103.372 695.865 104.526 694.943 105.586C695.088 105.743 695.233 105.88 695.379 106.057C701.744 113.221 704.474 119.752 699.29 125.319C694.035 130.808 688.145 127.681 681.798 120.477C675.469 113.332 672.504 103.375 676.249 99.3898M678.28 110.883C678.942 112.283 680.188 112.943 681.17 112.417C682.188 111.891 682.44 110.302 681.814 108.922C681.117 107.542 679.815 106.763 678.851 107.349C677.834 107.915 677.581 109.424 678.28 110.883Z" fill="#E578AC"/>
<path d="M639.218 106.179C638.272 105.139 637.864 103.994 637.675 103.124C637.183 100.83 638.016 99.7706 638.579 100.399C639.508 101.558 641.078 102.214 642.498 102.338C641.793 101.909 641.247 101.281 640.895 100.334C640.174 98.4387 640.921 97.7169 641.43 98.306C642.793 99.7973 645.62 100.381 647.194 99.8282C651.409 97.6412 655.481 97.2397 657.787 99.5333C661.62 103.435 658.893 113.475 652.704 120.738C646.517 128.099 640.698 131.355 635.322 125.963C630.036 120.511 632.603 113.922 638.809 106.62C638.951 106.46 639.093 106.299 639.235 106.139M641.374 112.855C642.368 113.359 643.6 112.692 644.231 111.258C644.897 109.783 644.629 108.28 643.599 107.736C642.623 107.172 641.321 107.98 640.672 109.374C640.059 110.788 640.363 112.351 641.392 112.855" fill="#E578AC"/>
<path d="M657.83 136.042C658.881 135.297 660.268 135.658 660.945 136.82C660.946 136.86 662.994 140.167 667.447 140.118C671.901 140.069 673.823 136.778 673.893 136.658C674.527 135.482 675.924 135.109 676.991 135.811C678.058 136.513 678.399 138.055 677.765 139.232C677.642 139.471 674.524 145.015 667.52 145.092C660.516 145.169 657.277 139.695 657.149 139.458C656.489 138.296 656.796 136.767 657.847 136.022" fill="#E578AC"/>
<path d="M667.378 135.383C664.181 135.418 661.555 133.445 661.528 130.928C661.5 128.411 664.082 126.341 667.278 126.306C670.475 126.271 673.119 128.283 673.147 130.8C673.174 133.317 670.593 135.347 667.378 135.383Z" fill="#E578AC"/>
<path d="M660.938 163.896L674.461 163.747C678.034 163.708 678.738 160.767 678.864 159.16C682.756 158.641 686.412 157.907 689.868 156.978C693.889 163.315 697.848 172.151 701.127 184.523C706.036 202.981 705.68 216.384 705.336 221.025C700.606 222.049 686.232 224.823 668.363 225.02C650.459 225.216 636.063 222.759 631.312 221.84C630.866 217.207 630.216 203.815 634.717 185.253C637.758 172.693 641.539 163.792 645.349 157.467C648.825 158.341 652.496 158.994 656.417 159.427C656.578 161.03 657.346 163.955 660.92 163.916" fill="white"/>
<path d="M668.457 230.29C679.017 230.174 688.238 229.201 695.142 228.193C689.298 232.499 680.378 234.738 668.49 234.869C656.601 234.999 647.635 232.957 641.698 228.781C648.622 229.637 657.862 230.407 668.422 230.291L668.457 230.29Z" fill="white"/>
<path d="M623.129 104.929C623.937 104.881 624.76 104.594 625.615 103.99C628.271 102.157 630.076 98.0544 629.888 94.0131C631.002 94.0405 632.094 93.7312 633.074 93.0267C634.09 92.3416 634.798 91.3824 635.199 90.2285C638.451 92.036 642.652 91.8907 645.271 89.9591C649.104 87.3007 647.633 82.6194 644.706 77.7163C641.759 72.754 638.436 69.4211 634.676 72.1382C631.896 74.1112 630.058 78.472 630.409 82.571C629.367 82.5825 628.365 82.8908 627.474 83.5348C626.511 84.2193 625.857 85.1184 625.436 86.0943C622.128 84.0892 617.71 84.1774 614.966 86.1301C613.487 87.1969 612.819 88.5322 612.71 90.0794C612.603 90.0806 612.494 90.0421 612.369 90.0435C612.117 90.0463 611.848 90.069 611.597 90.1115C611.7 88.0292 612.616 86.3542 614.362 85.1061C617.213 83.0729 621.539 82.8668 624.988 84.4937C625.482 83.6955 626.121 83.0344 626.87 82.5108C627.6 81.9875 628.387 81.6419 629.247 81.4738C629.274 77.3509 631.203 73.1476 634.054 71.1144C639.685 67.0685 644.15 74.5908 645.614 77.0523C646.108 77.8793 646.512 78.6478 646.897 79.3968C652.794 76.6165 659.405 75.1762 666.732 75.056C683.56 74.9304 696.856 81.9987 706.224 96.0475C712.908 106.043 715.967 118.02 714.404 127.789C713.096 126.436 711.29 125.484 708.861 125.135C703.123 124.326 699.211 129.542 698.592 135.296C698.314 137.837 698.825 140.15 699.285 142.761C699.859 145.986 697.681 148.844 694.318 150.05C686.86 152.907 677.915 154.512 667.591 154.764C654.317 154.712 643.247 152.435 634.703 148.05C627.658 144.421 623.073 138.981 620.947 131.889C622.964 127.447 624.116 121.211 624.04 114.255C624.003 110.925 623.663 107.758 623.093 104.89M667.277 126.286C664.081 126.321 661.499 128.391 661.527 130.908C661.555 133.424 664.181 135.397 667.377 135.362C670.574 135.327 673.174 133.297 673.146 130.78C673.118 128.263 670.492 126.25 667.277 126.286ZM699.272 125.3C704.437 119.733 701.707 113.202 695.36 106.037C695.215 105.881 695.07 105.724 694.924 105.567C695.846 104.506 696.211 103.372 696.399 102.478C696.859 100.174 695.985 99.1331 695.435 99.7734C694.532 100.953 692.995 101.644 691.56 101.798C692.256 101.354 692.787 100.714 693.118 99.7593C693.816 97.8489 693.036 97.1439 692.539 97.744C691.209 99.2451 688.396 99.9103 686.81 99.3926C682.548 97.2989 678.468 97.0068 676.213 99.3506C672.467 103.336 675.432 113.313 681.761 120.438C688.109 127.662 694.016 130.788 699.254 125.28M657.131 139.479C657.259 139.715 660.481 145.19 667.502 145.113C674.524 145.035 677.624 139.491 677.747 139.252C678.381 138.076 678.041 136.553 676.973 135.832C675.906 135.11 674.527 135.502 673.875 136.678C673.805 136.798 671.865 140.09 667.43 140.138C662.994 140.187 660.946 136.86 660.928 136.84C660.268 135.678 658.863 135.317 657.812 136.062C656.761 136.807 656.454 138.337 657.113 139.499M635.305 126.003C640.68 131.375 646.499 128.12 652.687 120.778C658.857 113.515 661.585 103.476 657.77 99.5733C655.464 97.2796 651.409 97.6612 647.176 99.8483C645.62 100.42 642.794 99.8173 641.412 98.3261C640.903 97.7371 640.138 98.459 640.878 100.354C641.229 101.301 641.775 101.929 642.48 102.358C641.06 102.235 639.508 101.578 638.579 100.419C638.016 99.7707 637.183 100.85 637.675 103.144C637.883 104.014 638.29 105.139 639.218 106.199C639.076 106.359 638.934 106.519 638.792 106.679C632.604 113.982 630.018 120.571 635.305 126.023" fill="white"/>
<path d="M643.599 107.737C644.629 108.281 644.915 109.784 644.231 111.258C643.618 112.672 642.368 113.36 641.375 112.855C640.345 112.351 640.059 110.789 640.654 109.375C641.321 107.98 642.605 107.173 643.581 107.737" fill="white"/>
<path d="M678.833 107.349C679.797 106.764 681.098 107.523 681.796 108.922C682.422 110.323 682.17 111.891 681.152 112.418C680.188 112.944 678.924 112.304 678.262 110.884C677.563 109.425 677.816 107.916 678.833 107.349Z" fill="white"/>
<path d="M610.322 114.544C610.19 102.554 612.238 99.3603 613.334 99.3483C614.271 99.6947 616.649 105.258 616.751 114.473C616.861 124.481 614.637 129.659 613.667 129.67C612.787 129.679 610.437 125.048 610.322 114.544ZM615.393 108.641L613.806 106.34C613.513 105.907 612.938 105.814 612.546 106.155C612.155 106.497 612.072 107.112 612.382 107.545L613.97 109.846C614.152 110.102 614.423 110.237 614.693 110.235C614.872 110.233 615.069 110.171 615.229 110.03C615.621 109.709 615.704 109.074 615.393 108.641ZM615.847 115.554L613.324 111.578C613.032 111.125 612.474 111.012 612.064 111.334C611.655 111.655 611.554 112.271 611.846 112.704L614.368 116.68C614.551 116.955 614.822 117.111 615.109 117.108C615.289 117.106 615.468 117.044 615.61 116.924C616.02 116.602 616.121 115.987 615.828 115.534M614.52 122.267C614.699 122.265 614.896 122.204 615.056 122.063C615.447 121.722 615.531 121.107 615.22 120.674L613.633 118.392C613.323 117.96 612.765 117.887 612.374 118.208C611.982 118.549 611.899 119.165 612.209 119.597L613.797 121.879C613.979 122.135 614.25 122.27 614.52 122.267Z" fill="white"/>
<path d="M614.477 142.941C613.759 142.91 613.059 142.977 612.396 143.162L612.309 138.525C612.292 136.98 611.469 135.562 610.15 134.863C605.849 132.512 603.215 124.91 603.101 114.525C602.94 99.9193 607.645 93.3268 612.404 93.2745C616.517 93.2293 621.028 101.683 621.167 114.326C621.265 123.225 619.249 131.016 616.015 134.184C614.985 135.206 614.389 136.58 614.405 138.007L614.46 142.981L614.477 142.941ZM619.66 114.442C619.562 105.544 617.303 96.1144 613.298 96.1584C609.293 96.2025 607.296 102.408 607.43 114.577C607.523 123.039 609.23 132.93 613.702 132.881C617.958 132.834 619.76 123.578 619.66 114.442Z" fill="white"/>
</g>
<g clip-path="url(#clip1_895_11475)">
<path d="M449.344 253.727C450.34 253.272 451.24 252.671 452.061 251.988H511.488C512.309 252.671 513.208 253.251 514.205 253.727C518.916 255.922 523.764 255.073 528.299 251.988H535.493V256.646H428.036V251.988H435.23C439.765 255.073 444.613 255.922 449.324 253.727" fill="white"/>
<path d="M414.313 144.191C417.343 139.554 421.995 140.175 426.511 142.473C424.693 139.451 423.305 136.159 422.425 132.577C419.278 119.535 422.836 103.698 431.945 90.2206C432.688 89.1234 433.45 88.0469 434.232 87.0118C431.241 83.5338 425.357 75.1494 429.345 66.765C433.802 57.3662 448.131 53.5363 453.448 57.656C457.378 60.6371 459.371 64.7983 460.29 67.4068C466.839 65.0467 474.013 63.846 481.793 63.8046C489.574 63.8253 496.748 65.0467 503.277 67.4068C504.196 64.819 506.19 60.6371 510.139 57.656C515.456 53.5363 529.785 57.3662 534.242 66.765C538.23 75.1494 532.346 83.5338 529.355 87.0118C530.137 88.0469 530.899 89.1234 531.642 90.2206C540.751 103.718 544.309 119.556 541.162 132.598C540.302 136.18 538.894 139.492 537.057 142.514C539.735 141.148 542.452 140.361 544.876 140.92C544.798 140.734 544.72 140.568 544.681 140.382V140.341C544.641 140.175 544.602 139.989 544.602 139.802C545.599 132.888 556.214 106.679 557.934 102.456L557.895 102.414L557.739 102.29C556.703 101.421 554.592 99.0605 555.002 95.1063C555.217 93.0568 555.843 90.6347 556.879 88.2746C557.446 86.9911 558.404 85.0865 559.752 83.2854C563.212 78.6688 566.985 76.288 570.504 77.7165C574.023 79.1656 575.313 83.6373 574.941 89.496C574.785 91.794 574.296 93.8849 573.905 95.2513C573.163 97.7355 572.087 99.9714 570.954 101.648C568.745 104.857 565.695 105.106 564.385 105.002H564.19C562.958 108.811 554.337 135.496 550.741 141.748C550.232 142.556 549.372 142.991 548.453 143.073C548.747 143.405 549.04 143.777 549.314 144.191C554.396 151.975 549.235 161.084 543.136 168.351C539.637 172.512 531.7 179.385 523.021 182.905C523.803 185.389 524.585 187.977 525.308 190.73C525.504 191.434 525.738 192.283 526.031 193.256C528.807 202.799 534.594 222.674 524.409 237.31C517.02 247.91 502.691 253.271 481.813 253.271C460.935 253.271 446.606 247.91 439.217 237.31C429.013 222.674 434.799 202.799 437.595 193.256C437.868 192.283 438.122 191.413 438.318 190.709C439.061 187.935 439.823 185.347 440.625 182.863C431.965 179.323 424.028 172.471 420.529 168.309C414.43 161.022 409.269 151.934 414.352 144.15" fill="#E60012"/>
<path d="M481.793 69.3115C501.342 69.3736 516.687 77.4889 527.4 93.4089C535.512 105.416 538.836 119.887 536.118 131.211C534.007 140.01 528.534 146.696 519.874 151.127C509.982 156.178 497.178 158.849 481.793 159.076C466.409 158.849 453.605 156.178 443.733 151.127C435.073 146.696 429.599 139.989 427.488 131.211C424.751 119.908 428.094 105.416 436.207 93.4089C446.9 77.4889 462.245 69.3736 481.833 69.3115" fill="white"/>
<path d="M481.813 137.153C478.098 137.153 475.088 134.917 475.088 132.102C475.088 129.286 478.098 127.009 481.813 127.009C485.527 127.009 488.498 129.286 488.498 132.102C488.498 134.917 485.488 137.153 481.813 137.153Z" fill="#E60012"/>
<path d="M465.373 136.511C466.546 135.766 468.071 136.139 468.775 137.381C468.814 137.443 472.743 144.088 481.774 144.088C490.806 144.088 494.618 137.671 494.794 137.381C495.517 136.159 497.022 135.766 498.195 136.532C499.368 137.298 499.739 138.913 499.016 140.134C498.801 140.507 493.562 149.347 481.774 149.347C469.987 149.347 464.748 140.507 464.533 140.134C463.829 138.892 464.181 137.277 465.354 136.532" fill="#E60012"/>
<path d="M447.192 105.209C449.03 103.449 451.043 101.524 453.213 100.013C456.693 97.5286 459.938 95.3134 464.063 94.3197C465.04 94.0713 465.998 94.1541 466.995 94.0713C468.09 94.3404 469.302 94.5888 470.22 95.0857C475.792 98.3981 476.28 105.809 472.82 111.42C470.67 114.898 467.347 117.382 464.708 120.446C461.912 123.675 460.036 127.029 455.95 128.913C453.37 130.072 450.066 129.865 447.525 128.209C444.827 126.47 442.794 124.11 442.168 120.798C440.976 114.898 443.165 109.08 447.212 105.23M463.711 114.215C465.021 114.215 466.057 113.159 466.057 111.792C466.057 110.426 465.04 109.35 463.711 109.35C462.381 109.35 461.404 110.426 461.404 111.792C461.404 113.159 462.421 114.215 463.711 114.215Z" fill="#E60012"/>
<path d="M490.786 111.399C487.306 105.789 487.814 98.3568 493.386 95.0652C494.304 94.5683 495.497 94.3199 496.611 94.0508C497.608 94.1543 498.546 94.0508 499.543 94.2992C503.668 95.2929 506.893 97.5081 510.393 99.9923C512.543 101.504 514.556 103.429 516.414 105.189C520.46 109.039 522.649 114.857 521.457 120.757C520.831 124.069 518.798 126.429 516.101 128.168C513.559 129.824 510.256 130.031 507.675 128.872C503.59 126.988 501.713 123.634 498.918 120.405C496.279 117.341 492.975 114.857 490.805 111.379M502.163 111.793C502.163 110.426 501.146 109.35 499.856 109.35C498.566 109.35 497.51 110.426 497.51 111.793C497.51 113.159 498.546 114.215 499.856 114.215C501.166 114.215 502.163 113.159 502.163 111.793Z" fill="#E60012"/>
<path d="M473.974 169.034H489.613C493.913 169.034 494.676 165.474 494.774 163.755C499.289 163.238 503.531 162.451 507.519 161.437C512.113 168.517 516.609 178.392 520.265 192.221C520.46 192.966 520.714 193.856 521.027 194.892C523.549 203.586 528.827 221.66 520.186 234.039C513.833 243.148 500.912 247.765 481.774 247.765C462.636 247.765 449.715 243.148 443.381 234.039C434.74 221.639 439.999 203.566 442.54 194.892C442.834 193.856 443.107 192.966 443.303 192.221C446.958 178.371 451.435 168.496 455.99 161.416C459.997 162.43 464.259 163.217 468.794 163.735C468.911 165.432 469.654 169.014 473.955 169.014" fill="white"/>
<path d="M438.905 261.035H445.258C444.476 262.898 443.694 264.782 442.892 266.604C438.201 277.369 436.832 279.025 435.132 278.466C434.526 278.259 434.448 278.094 434.408 278.032C433.666 276.479 436.031 269.461 437.438 265.279C437.908 263.892 438.416 262.464 438.905 261.056" fill="white"/>
<path d="M526.148 265.259C527.556 269.44 529.921 276.459 529.178 278.011C529.159 278.073 529.061 278.26 528.455 278.446C526.735 278.984 525.386 277.349 520.694 266.584C519.912 264.762 519.13 262.878 518.329 261.015H524.682C525.171 262.422 525.679 263.851 526.148 265.238" fill="white"/>
<path d="M470.279 159.304H480.093V166.446H470.279V159.304Z" fill="white"/>
<path d="M468.872 186.3C470.455 182.222 474.815 179.158 480.093 178.599C480.66 178.537 481.226 178.495 481.793 178.495C481.911 178.495 482.028 178.495 482.165 178.495C482.869 178.495 483.553 178.578 484.237 178.661C489.202 179.406 493.21 182.366 494.734 186.258" fill="white"/>
<path d="M472.528 182.221L474.522 181C474.795 180.834 475.167 180.938 475.323 181.228L476.476 183.339C476.555 183.484 476.574 183.65 476.535 183.815C476.496 183.981 476.398 184.105 476.261 184.188L474.268 185.41C474.268 185.41 474.072 185.492 473.974 185.492C473.779 185.492 473.564 185.389 473.466 185.182L472.313 183.091C472.235 182.946 472.215 182.78 472.254 182.615C472.293 182.449 472.391 182.325 472.528 182.242M475.167 183.422L474.6 182.387L473.622 182.987L474.189 184.002L475.167 183.401V183.422Z" fill="#E60012"/>
<path d="M486.719 182.884L488.831 181.931C488.967 181.869 489.143 181.869 489.28 181.931C489.417 181.993 489.534 182.118 489.593 182.263L490.492 184.498C490.551 184.643 490.551 184.83 490.492 184.975C490.434 185.119 490.316 185.244 490.179 185.306L488.068 186.258C488.068 186.258 487.931 186.3 487.853 186.3H487.814C487.579 186.3 487.384 186.155 487.286 185.927L486.387 183.691C486.27 183.38 486.387 183.008 486.7 182.884M489.182 184.416L488.752 183.318L487.716 183.774L488.146 184.871L489.182 184.416Z" fill="#E60012"/>
<path d="M484.218 180.11C484.843 180.11 485.352 180.649 485.352 181.332C485.352 182.015 484.843 182.533 484.218 182.553C483.592 182.553 483.064 182.015 483.064 181.332C483.064 180.649 483.573 180.11 484.218 180.11Z" fill="#E60012"/>
<path d="M479.506 183.629C479.721 183.629 479.916 183.712 480.092 183.836C480.327 184.002 480.503 184.25 480.581 184.54C480.601 184.643 480.64 184.747 480.64 184.85C480.64 185.513 480.131 186.072 479.486 186.072C478.841 186.072 478.333 185.534 478.333 184.85C478.333 184.167 478.841 183.629 479.486 183.629" fill="#E60012"/>
<path d="M464.161 190.688H504.86V190.813C504.86 193.877 503.531 197.955 492.056 197.955H471.53C460.056 197.955 458.726 193.877 458.726 190.813V190.688H464.18H464.161Z" fill="white"/>
<path d="M456.654 186.3H464.513C466.174 179.82 472.41 174.851 480.093 174.189V170.815H468.207C467.054 170.815 466.135 169.842 466.135 168.62V157.089C466.135 155.868 467.054 154.895 468.207 154.895H482.165C483.299 154.895 484.237 155.868 484.237 157.089V174.272C491.568 175.162 497.471 180.006 499.074 186.279H506.933C508.067 186.279 509.005 187.273 509.005 188.474V190.792C509.005 196.051 506.053 202.323 492.056 202.323H471.531C457.514 202.323 454.582 196.051 454.582 190.792V188.474C454.582 187.273 455.501 186.279 456.654 186.279M480.093 159.304H470.28V166.446H480.093V159.304ZM484.237 178.702C483.553 178.599 482.869 178.536 482.165 178.516C482.048 178.516 481.93 178.516 481.794 178.516C481.207 178.516 480.64 178.557 480.093 178.619C474.815 179.178 470.456 182.221 468.872 186.3H487.834C487.834 186.3 487.834 186.3 487.854 186.3H494.715C493.21 182.408 489.183 179.447 484.218 178.702M458.726 190.834C458.726 193.898 460.056 197.976 471.531 197.976H492.056C503.531 197.976 504.861 193.898 504.861 190.834V190.709H458.726V190.834Z" fill="#E60012"/>
<path d="M403.072 197.852H560.515C561.649 197.852 562.587 198.825 562.587 200.046V280.764C562.587 281.965 561.649 282.958 560.515 282.958H551.405C550.271 282.958 549.333 281.965 549.333 280.764V211.888H534.965C542.159 217.022 545.56 227.766 539.5 238.738C537.624 242.154 535.512 245.135 533.284 247.578H537.585C538.718 247.578 539.657 248.551 539.657 249.773V258.82C539.657 260.02 538.718 261.014 537.585 261.014H529.101C529.413 261.925 529.746 262.877 530.058 263.767C533.284 273.332 534.183 277.224 532.893 279.977C532.287 281.261 531.212 282.151 529.667 282.648C528.964 282.876 528.299 282.979 527.674 282.979C523.49 282.979 521.047 277.866 516.941 268.425C515.886 266.024 514.85 263.519 513.814 261.035H449.793C448.757 263.54 447.701 266.024 446.665 268.425C442.56 277.866 440.116 282.979 435.933 282.979C435.308 282.979 434.643 282.876 433.939 282.648C432.414 282.151 431.32 281.261 430.714 279.977C429.404 277.224 430.323 273.332 433.548 263.767C433.841 262.857 434.193 261.925 434.506 261.014H426.002C424.869 261.014 423.93 260.041 423.93 258.82V249.773C423.93 248.572 424.849 247.578 426.002 247.578H430.323C428.094 245.115 426.002 242.154 424.106 238.738C418.046 227.766 421.428 217.022 428.622 211.888H414.254V280.764C414.254 281.965 413.316 282.958 412.182 282.958H403.072C401.938 282.958 401 281.965 401 280.764V200.046C401 198.845 401.938 197.852 403.072 197.852ZM447.564 211.888C451.083 214.372 454.113 218.347 455.97 223.874C458.902 232.569 458.883 241.513 455.638 247.599H507.949C504.704 241.533 504.685 232.569 507.617 223.874C509.494 218.347 512.504 214.372 516.042 211.888H447.564ZM520.695 266.604C525.386 277.369 526.735 279.004 528.455 278.466C529.061 278.259 529.159 278.093 529.179 278.031C529.922 276.479 527.556 269.461 526.149 265.279C525.68 263.892 525.171 262.463 524.683 261.056H518.329C519.111 262.919 519.893 264.803 520.695 266.624M434.389 278.011C434.389 278.011 434.506 278.259 435.112 278.445C436.813 279.004 438.181 277.348 442.873 266.583C443.655 264.761 444.437 262.877 445.238 261.014H438.904C438.416 262.422 437.907 263.85 437.438 265.237C436.031 269.419 433.665 276.437 434.408 277.99M428.055 251.988V256.646H535.512V251.988H528.319C523.783 255.073 518.935 255.921 514.224 253.727C513.227 253.271 512.328 252.671 511.507 251.988H452.08C451.259 252.671 450.36 253.251 449.363 253.727C444.652 255.921 439.804 255.073 435.268 251.988H428.075H428.055Z" fill="#E60012"/>
</g>
<defs>
<clipPath id="clip0_895_11475">
<rect width="174.96" height="197.875" fill="white" transform="matrix(-0.99994 0.0109979 0.0109979 0.99994 749.95 61)"/>
</clipPath>
<clipPath id="clip1_895_11475">
<rect width="174" height="227" fill="white" transform="matrix(-1 0 0 1 575 56)"/>
</clipPath>
<pattern id="pattern0_895_11475" patternUnits="userSpaceOnUse" patternTransform="matrix(5 0 0 5 0 149)" preserveAspectRatio="none" viewBox="0 0 5 5" width="1" height="1">
<g id="pattern0_895_11475_inner">
<path d="M3.75 1.25H5V3.75H3.75V5H1.25V3.75H0V1.25H1.25V0H3.75V1.25Z" fill="#E8E8E8"/>
</g>
</pattern></defs>
</svg>
