<svg width="176" height="211" viewBox="0 0 176 211" fill="none" xmlns="http://www.w3.org/2000/svg">
<g clip-path="url(#clip0_895_11905)">
<path d="M175.37 70.3714C177.252 57.6288 172.102 42.9243 161.604 31.0339C160.753 30.0629 159.881 29.1315 158.99 28.2199C161.664 24.5933 166.754 15.9926 161.921 8.42235C156.494 -0.0396528 141.679 -2.19974 136.727 2.25916C133.043 5.5092 131.458 9.69066 130.785 12.2669C123.951 10.7013 116.603 10.305 108.759 11.0779C100.916 11.93 93.8251 13.8325 87.467 16.7456C86.2786 14.3676 83.8622 10.6023 79.6037 8.18454C73.8399 4.8156 59.777 9.9681 56.2117 19.3813C53.0228 27.7839 59.777 35.1361 63.1243 38.1484C62.4509 39.2185 61.7775 40.3084 61.1436 41.438C53.3001 55.2309 51.2798 70.6884 55.7363 82.777C59.262 92.3092 66.6896 99.3839 77.2269 103.189C80.1583 104.239 83.268 105.111 86.5757 105.785C85.3081 108.163 84.0801 110.779 82.8916 113.613C80.6931 115.694 78.4549 117.378 76.1771 118.23C62.748 123.165 60.2523 130.418 64.6891 137.156C66.65 140.128 70.1558 141.02 74.1766 140.862C71.879 150.691 70.6312 163.81 78.2964 174.194C81.2873 178.257 85.4269 181.507 90.656 183.945C90.4579 185.034 90.2994 186.006 90.1212 186.778C88.6555 193.457 90.3985 208.974 101.352 210.401C112.186 211.847 116.643 200.71 118.722 194.17C119.138 192.862 119.693 191.237 120.188 189.454C120.624 189.454 121.04 189.454 121.476 189.454C125.16 189.454 128.626 189.295 131.894 188.978C132.884 191.416 133.934 193.576 134.548 195.102C137.222 201.661 147.66 214.107 157.663 209.311C167.546 204.594 164.813 192.525 162.733 185.728C162.159 183.845 161.446 181.309 160.416 178.713C162.001 177.326 163.427 175.819 164.635 174.175C174.974 160.164 169.111 141.159 166.279 132.003C165.982 131.072 165.744 130.24 165.546 129.566C161.664 115.674 156.851 105.607 151.84 98.3138C154.197 97.204 156.474 96.015 158.554 94.7269C168.101 88.8411 173.924 80.3989 175.41 70.3515" fill="#E60012"/>
<path d="M83.7242 131.448L58.1336 122.095C58.9655 120.588 59.322 119.538 59.322 119.538C61.5404 113.474 43.8528 105.171 33.0581 101.207C22.2633 97.2635 3.38727 92.1902 1.1689 98.2544C1.1689 98.2544 -7.44712 119.657 22.1444 131.072C39.6736 137.136 49.4186 132.142 54.4892 126.97L81.7237 136.938C82.0604 137.057 82.3971 137.116 82.7338 137.116C83.9223 137.116 85.0513 136.383 85.4672 135.194C86.0218 133.688 85.2493 132.003 83.7242 131.448ZM28.3242 113.969C13.4294 108.52 5.64526 102.456 5.78391 100.831C6.71484 99.5028 16.5787 99.8794 31.4735 105.329C46.3683 110.779 54.1524 116.843 54.0138 118.468C53.0829 119.796 43.219 119.419 28.3242 113.969Z" fill="#E60012"/>
<path d="M31.4736 105.329C46.3684 110.779 54.1526 116.843 54.0139 118.468C53.083 119.796 43.2191 119.419 28.3243 113.97C13.4295 108.52 5.6454 102.456 5.78405 100.831C6.71497 99.5029 16.5788 99.8794 31.4736 105.329Z" fill="white"/>
<path d="M28.1113 89.3183L27.875 93.3938L31.9484 93.6302L32.1847 89.5547L28.1113 89.3183Z" fill="white"/>
<path d="M31.9491 94.3702H31.9094L27.849 94.1324C27.651 94.1324 27.4727 94.0333 27.3539 93.8946C27.2152 93.7558 27.1558 93.5577 27.1756 93.3595L27.4133 89.2771C27.4133 89.0789 27.5123 88.9006 27.651 88.7817C27.7896 88.643 27.9679 88.6033 28.1857 88.6033L32.266 88.8411C32.464 88.8411 32.6423 88.9402 32.7611 89.079C32.88 89.2177 32.9592 89.4158 32.9394 89.614L32.6819 93.6766C32.6621 94.0729 32.3452 94.3702 31.9491 94.3702ZM28.6611 92.7055L31.2756 92.8641L31.4341 90.2482L28.8196 90.0896L28.6611 92.7055Z" fill="#E60012"/>
<path d="M55.0203 97.9353L53.4307 101.695L57.1885 103.286L58.7782 99.5258L55.0203 97.9353Z" fill="white"/>
<path d="M57.2022 104.021C57.2022 104.021 57.0042 104.021 56.9249 103.962L53.1616 102.376C52.9834 102.297 52.8447 102.158 52.7655 101.98C52.6862 101.802 52.6862 101.603 52.7655 101.425L54.35 97.6598C54.5085 97.2833 54.9244 97.1248 55.3008 97.2635L59.0641 98.8489C59.2423 98.9281 59.381 99.0669 59.4602 99.2452C59.5394 99.4236 59.5394 99.6217 59.4602 99.8001L57.8559 103.565C57.737 103.843 57.4795 104.001 57.1824 104.001M54.3896 101.326L56.8061 102.357L57.8361 99.9388L55.4196 98.9083L54.3896 101.326Z" fill="#E60012"/>
<path d="M30.3936 67.3403L27.6094 70.3245L30.592 73.1102L33.3763 70.126L30.3936 67.3403Z" fill="white"/>
<path d="M30.5819 73.8592C30.4036 73.8592 30.2254 73.78 30.0867 73.6611L27.1157 70.8668C26.8186 70.5894 26.7988 70.1336 27.0761 69.8363L29.8688 66.8637C30.0075 66.725 30.1857 66.6457 30.3838 66.6259C30.6215 66.6259 30.7601 66.6854 30.9186 66.8241L33.9094 69.6183C34.0481 69.7571 34.1273 69.9354 34.1471 70.1336C34.1471 70.3318 34.0877 70.5101 33.9491 70.6488L31.1563 73.6214C31.0176 73.7602 30.8394 73.8394 30.6413 73.8592H30.6215H30.5819ZM28.6408 70.2921L30.5423 72.0955L32.3447 70.1732L30.4234 68.3897L28.6408 70.3119V70.2921Z" fill="#E60012"/>
<path d="M48.3885 72.6305L44.5856 74.0772L43.1396 70.2723L46.9426 68.8058L48.3885 72.6305Z" fill="white"/>
<path d="M44.5851 74.8104C44.4861 74.8104 44.387 74.7906 44.288 74.751C44.1097 74.6717 43.9711 74.533 43.9117 74.3546L42.4658 70.5497C42.3271 70.1732 42.5054 69.757 42.8817 69.5985L46.6846 68.132C46.8629 68.0527 47.061 68.0725 47.2392 68.132C47.4175 68.2113 47.5561 68.35 47.6156 68.5283L49.0615 72.3333C49.2001 72.7098 49.0219 73.126 48.6455 73.2647L44.8426 74.7312C44.8426 74.7312 44.6643 74.7708 44.5851 74.7708M44.0701 70.6884L45.0011 73.1458L47.4373 72.2144L46.5064 69.757L44.0701 70.6884Z" fill="#E60012"/>
<path d="M42.6124 80.5103L39.0928 82.5755L41.1569 86.097L44.6765 84.0318L42.6124 80.5103Z" fill="white"/>
<path d="M41.1788 86.7999C40.9213 86.7999 40.6836 86.681 40.545 86.4432L38.4851 82.9356C38.386 82.777 38.3662 82.559 38.4058 82.3807C38.4455 82.2023 38.5841 82.0438 38.7426 81.9447L42.2682 79.8837C42.4465 79.7846 42.6445 79.7648 42.8228 79.8044C43.0209 79.8441 43.1793 79.9828 43.2784 80.1413L45.3383 83.6688C45.5363 84.0255 45.4175 84.4615 45.0808 84.6795L41.575 86.7405C41.4561 86.7999 41.3373 86.8396 41.1986 86.8396M40.1092 82.8167L41.4363 85.0758L43.6943 83.7481L42.3672 81.4889L40.1092 82.8167Z" fill="#E60012"/>
<path d="M54.3498 89.2771L51.3589 92.0119L48.5859 89.0195L51.5966 86.2451L54.3498 89.2771Z" fill="white"/>
<path d="M51.3593 92.7452C51.1613 92.7452 50.9632 92.6659 50.8246 92.5074L48.0516 89.4951C47.9129 89.3564 47.8535 89.1582 47.8535 88.9799C47.8535 88.7817 47.9526 88.6033 48.0912 88.4646L51.1019 85.71C51.2405 85.5713 51.4188 85.5118 51.6366 85.5118C51.8347 85.5118 52.013 85.6109 52.1516 85.7496L54.9048 88.7619C55.1821 89.0591 55.1623 89.5149 54.8652 89.7924L51.8743 92.547C51.7357 92.6659 51.5574 92.7452 51.3792 92.7452M49.6163 89.0591L51.399 91.0012L53.3202 89.2375L51.5574 87.2954L49.6163 89.079V89.0591Z" fill="#E60012"/>
<path d="M45.0872 97.4807L41.1748 98.6395L42.333 102.554L46.2454 101.395L45.0872 97.4807Z" fill="white"/>
<path d="M42.3276 103.288C42.0106 103.288 41.7135 103.09 41.6343 102.753L40.4855 98.829C40.3667 98.4525 40.5845 98.0364 40.9807 97.9175L44.9025 96.768C45.2986 96.669 45.6947 96.8671 45.8136 97.2635L46.9822 101.187C47.0416 101.366 47.0218 101.564 46.9228 101.742C46.8237 101.921 46.6851 102.039 46.487 102.099L42.5652 103.248C42.5652 103.248 42.4266 103.288 42.3672 103.288M42.0899 99.1263L42.8425 101.643L45.358 100.91L44.6054 98.3931L42.0899 99.1461V99.1263Z" fill="#E60012"/>
<path d="M36.746 107.783L32.7158 108.42L33.3527 112.452L37.3829 111.815L36.746 107.783Z" fill="white"/>
<path d="M33.3751 113.177C33.0186 113.177 32.7215 112.919 32.6621 112.562L32.0282 108.54C31.9886 108.341 32.0282 108.163 32.1669 108.004C32.2857 107.846 32.4442 107.747 32.6422 107.707L36.6829 107.073C36.8809 107.033 37.079 107.093 37.2176 107.212C37.3761 107.331 37.4751 107.489 37.5148 107.687L38.1486 111.73C38.208 112.127 37.9307 112.503 37.5346 112.562L33.5138 113.197C33.5138 113.197 33.4345 113.197 33.3949 113.197M33.5534 109.015L33.9693 111.611L36.564 111.195L36.1481 108.599L33.5534 109.015Z" fill="#E60012"/>
<path d="M116.366 15.9926C114.049 15.9926 111.692 16.1115 109.295 16.3493C89.587 18.4697 74.9299 27.7839 65.7197 44.0539C58.7278 56.3407 56.8066 70.4704 60.6689 80.9538C63.6796 89.0987 69.8395 94.9052 79.0101 98.2147C89.4682 102 102.64 103.209 118.168 101.802C133.657 99.9785 146.294 96.0943 155.742 90.2482C164.041 85.1353 168.894 78.1794 170.162 69.5787C171.786 58.5206 167.012 45.0844 157.663 34.502C146.809 22.1756 132.964 15.9529 116.386 15.9529" fill="white"/>
<path d="M128.963 105.488C128.963 105.626 129.003 105.725 129.003 105.884C129.003 105.884 136.886 108.322 145.106 114.009C145.106 114.009 139.837 117.517 132.43 125.642H109.671C104.165 132.221 98.223 134.362 91.1717 136.74C87.9036 137.83 83.8035 139.237 79.7629 140.109C77.4257 149.145 75.6431 161.769 82.4963 171.063C88.9335 179.783 102.026 184.202 121.417 184.202C124.467 184.202 127.359 184.083 130.092 183.865C128.25 176.81 129.023 169.22 141.204 166.882C149.84 165.237 154.811 168.982 157.901 173.838C158.793 172.966 159.605 172.054 160.338 171.063C169.092 159.193 163.744 141.912 161.189 133.589C160.892 132.598 160.615 131.746 160.417 131.032C159.902 129.189 159.367 127.425 158.812 125.721H147.186C148.691 121.242 155.564 119.003 155.564 119.003H156.455C155.108 115.495 153.702 112.364 152.256 109.57C150.097 108.302 144.769 105.468 137.48 103.526C134.767 104.259 131.934 104.913 128.983 105.488" fill="white"/>
<path d="M116.009 80.9538C119.713 80.5773 122.525 78.12 122.248 75.4446C121.971 72.7693 118.703 70.9065 114.999 71.3028C111.255 71.6793 108.443 74.1763 108.72 76.8517C108.997 79.527 112.246 81.3502 115.989 80.9538" fill="#E60012"/>
<path d="M132.469 78.6154C131.221 78.001 129.715 78.5361 129.121 79.7648C128.983 80.0422 125.655 86.5819 116.663 87.5133C107.651 88.4646 103.075 82.7176 102.897 82.4996C102.065 81.3898 100.48 81.1916 99.3712 82.0239C98.262 82.8563 98.0639 84.4417 98.8958 85.5514C99.1335 85.8685 104.442 92.646 114.682 92.646C115.474 92.646 116.306 92.6064 117.178 92.5073C129.042 91.2786 133.459 82.3212 133.637 81.9447C134.231 80.6962 133.697 79.2099 132.469 78.6154Z" fill="#E60012"/>
<path d="M100.163 42.0722C99.1729 41.6957 97.9448 41.5966 96.8158 41.438C95.8255 41.6362 94.8549 41.6362 93.8844 41.9929C89.824 43.3603 86.7935 45.8177 83.5254 48.5525C81.5051 50.2171 79.663 52.2583 77.9794 54.1211C74.2954 58.2035 72.6514 63.9902 74.434 69.4796C75.4045 72.5513 77.6625 74.6123 80.5742 75.9797C83.3075 77.2876 86.6549 77.1489 89.1307 75.7617C93.0723 73.5421 94.6371 70.1534 97.1327 66.7844C99.4898 63.5938 102.58 60.8789 104.402 57.3514C107.353 51.644 106.105 44.6286 100.183 42.0722M95.5086 60.9978C94.2013 61.1365 93.0723 60.2447 92.9337 58.9169C92.795 57.6288 93.726 56.4992 95.0134 56.3605C96.3405 56.2218 97.4695 57.1532 97.6081 58.4413C97.7468 59.7493 96.8158 60.859 95.4888 60.9978" fill="#E60012"/>
<path d="M147.701 46.9076C145.68 45.4213 143.462 43.7963 141.125 42.5874C137.361 40.5859 133.895 38.8023 129.637 38.2871C128.607 38.1484 127.676 38.3267 126.666 38.3465C125.576 38.7231 124.388 39.0798 123.516 39.6545C118.228 43.4 118.466 50.4946 122.506 55.4885C125.022 58.58 128.607 60.5816 131.578 63.2371C134.707 66.0314 136.945 69.0238 141.244 70.3912C143.957 71.2235 147.265 70.6884 149.661 68.8454C152.217 66.9231 154.019 64.446 154.336 61.2356C154.95 55.4885 152.157 50.1775 147.701 46.9473M131.934 57.2325C130.607 57.3712 129.478 56.4794 129.34 55.1715C129.201 53.8833 130.132 52.7339 131.459 52.5952C132.766 52.4565 133.895 53.3879 134.014 54.676C134.153 55.984 133.222 57.0937 131.934 57.2325Z" fill="#E60012"/>
</g>
<defs>
<clipPath id="clip0_895_11905">
<rect width="175.747" height="210.539" fill="white"/>
</clipPath>
</defs>
</svg>
