<svg width="1188" height="335" viewBox="0 0 1188 335" fill="none" xmlns="http://www.w3.org/2000/svg" xmlns:xlink="http://www.w3.org/1999/xlink">
<rect y="149" width="1188" height="186" rx="29" fill="url(#pattern0_895_9993)"/>
<ellipse cx="511" cy="285.5" rx="63" ry="5.5" fill="black" fill-opacity="0.25"/>
<ellipse cx="699.5" cy="277.5" rx="50.5" ry="5.5" fill="black" fill-opacity="0.25"/>
<g clip-path="url(#clip0_895_9993)">
<path d="M618.362 119.628C613.308 104.887 616.397 86.2979 626.651 69.909C627.419 68.6869 628.214 67.488 629.037 66.3124C626.226 65.2559 623.728 63.5177 621.884 61.1229C615.582 53.0338 618.708 40.5191 628.847 33.0524C638.909 25.6166 652.193 26.12 658.443 34.213C659.937 36.1021 660.879 38.2603 661.333 40.5055C669.042 37.4489 677.563 35.5219 686.85 34.7786C696.143 34.1109 704.856 34.7525 712.935 36.657C713.075 34.3422 713.688 32.0934 714.859 30.0055C719.87 21.1233 732.906 18.6571 743.986 24.5159C755.118 30.3709 760.068 42.3087 755.061 51.2412C753.593 53.883 751.38 55.9725 748.757 57.4343C749.718 58.4516 750.682 59.5192 751.622 60.6139C764.194 75.3005 770.007 93.2261 767.168 108.556C765.091 119.777 758.398 129.139 747.841 135.877C750.633 139.113 753.725 143.592 755.786 149.237C759.713 159.681 756.595 168.118 751.375 174.535C751.662 175.248 751.95 175.96 752.213 176.701C763.444 206.909 761.515 227.108 761.448 227.949L761.227 230.219L758.985 230.868C758.985 230.868 758.322 231.044 757.455 231.285C757.513 232.066 757.573 232.872 757.641 233.779C757.641 233.779 758.029 241.422 754.774 254.656C752.936 262.111 748.648 272.661 740.724 274.569C727.517 277.884 721.55 272.201 719.812 265.645C719.344 263.907 719.031 261.804 718.897 259.661C716.977 261.121 714.676 262.027 712.218 262.211L688.642 263.969C688.669 265.385 688.615 266.756 688.499 267.981C687.754 274.747 682.72 281.225 669.142 279.908C662.385 279.323 657.21 272.391 653.998 265.97C652.279 265.592 650.64 264.904 649.208 263.846L640.473 257.331C638.021 255.513 636.419 252.873 635.964 249.918L629.605 210.712C629.352 209.059 629.799 207.38 630.846 206.061C631.92 204.765 633.498 203.939 635.206 203.811L640.46 203.419C640.978 197.81 641.843 191.617 643.263 184.826C643.413 184.055 643.594 183.333 643.77 182.56C637.656 176.989 633.321 169.108 635.63 158.199C636.856 152.308 639.226 147.447 641.505 143.808C630.065 138.71 622.056 130.419 618.337 119.63M750.916 183.381C750.916 183.381 750.984 183.604 751.02 183.728C750.984 183.604 750.951 183.505 750.916 183.381Z" fill="#EC7BB1"/>
<path d="M612.262 59.4602C616.262 56.5789 622.482 55.8871 627.613 57.6822C628.262 56.6209 629.13 55.6952 630.192 54.9323C631.204 54.1984 632.337 53.6834 633.564 53.3893C633.271 48.068 635.716 42.4666 639.691 39.5872C641.689 38.1214 643.831 37.5312 646.039 37.8223C649.535 38.2959 652.986 40.9507 656.939 46.1509C657.717 47.1565 658.359 48.0962 658.948 49.0145C667.253 44.8753 676.749 42.3945 687.329 41.5547C711.713 39.8122 731.557 47.6764 746.244 64.9147C757.362 77.9118 762.765 94.1714 760.34 107.368C758.45 117.613 752.214 125.776 741.826 131.641C729.94 138.352 714.176 142.617 694.992 144.301C675.771 145.481 659.575 143.599 646.824 138.726C635.655 134.469 628.278 127.321 624.915 117.468C621.756 108.258 622.441 96.8625 626.505 85.7466C626.453 85.7505 626.401 85.7544 626.375 85.7563C625.806 85.7988 625.259 85.7889 624.68 85.7055C621.21 85.2299 617.737 82.6275 613.762 77.4795C611.453 74.4357 604.439 65.1841 612.26 59.435" fill="white"/>
<path d="M613.241 60.7291C617.068 57.9621 623.455 57.4098 628.388 59.7008C628.917 58.4205 629.814 57.1887 631.146 56.2031C632.405 55.2988 633.826 54.813 635.327 54.7011C634.465 49.4222 636.793 43.6523 640.668 40.831C645.899 36.9969 650.982 40.9481 655.655 47.0822C660.295 53.1175 662.79 59.0089 657.452 62.8003C653.804 65.5287 647.732 66.1081 642.872 64.0903C642.359 65.5972 641.416 66.9084 640.005 67.8746C638.622 68.8641 637.071 69.3596 635.437 69.4308C636.033 74.6282 633.732 80.0669 630.025 82.6985C624.77 86.5596 619.685 82.5833 615.045 76.548C610.396 70.3867 607.932 64.5689 613.213 60.7059" fill="#EC7BB1"/>
<path d="M684.307 114.077C684.549 117.326 688.519 119.612 693.152 119.267C697.784 118.921 701.395 116.044 701.154 112.82C700.914 109.597 696.938 107.235 692.28 107.582C687.622 107.929 684.065 110.828 684.307 114.077Z" fill="#EC7BB1"/>
<path d="M649.398 84.9509C649.59 84.734 649.782 84.5171 649.974 84.3002C648.527 83.0407 647.849 81.6225 647.505 80.5086C646.587 77.6143 647.728 76.1618 648.59 76.9078C650.023 78.3204 652.34 79.0338 654.423 79.0557C653.373 78.577 652.508 77.8058 651.927 76.6337C650.707 74.243 651.752 73.2534 652.533 73.9548C654.643 75.722 658.768 76.25 660.993 75.3751C666.945 72.1456 672.788 71.2794 676.322 74.0039C682.188 78.6817 679.035 91.8821 670.668 101.825C662.285 111.896 654.103 116.633 645.895 110.206C637.783 103.67 641.009 94.946 649.398 84.9509ZM660.488 93.0374C660.705 93.1479 660.941 93.1809 661.174 93.1635C661.64 93.1288 662.063 92.8693 662.29 92.4219C662.336 92.3425 663.674 90.0396 668.838 89.5025C669.33 89.4659 669.749 89.156 669.95 88.7106C670.151 88.2651 670.062 87.7653 669.773 87.3817C665.654 82.3964 660.579 83.4333 660.348 83.4758C659.631 83.6306 659.162 84.324 659.32 85.0466C659.476 85.744 660.186 86.1974 660.904 86.0427C661.059 86.0311 663.393 85.5784 665.896 87.3922C661.3 88.5707 659.933 91.1796 659.891 91.3093C659.576 91.9659 659.841 92.7312 660.516 93.0607" fill="#EC7BB1"/>
<path d="M690.575 131.487C693.681 131.256 695.745 130.317 695.92 130.228C697.554 129.448 698.245 127.547 697.476 125.959C696.681 124.372 694.731 123.707 693.096 124.462C692.919 124.526 688.179 126.576 682.774 123.181C677.368 119.786 677.347 114.621 677.343 114.571C677.393 112.795 675.957 111.332 674.132 111.291C672.304 111.199 670.799 112.653 670.749 114.43C670.749 114.784 670.595 123.178 679.168 128.565C683.426 131.236 687.494 131.692 690.548 131.464" fill="#EC7BB1"/>
<path d="M703.081 72.0081C706.17 68.7643 712.078 68.7795 718.442 71.065C720.774 71.6255 724.801 70.4895 726.623 68.4037C727.291 67.5942 728.474 68.443 727.621 70.9629C727.219 72.2084 726.507 73.1225 725.511 73.7285C727.568 73.3979 729.728 72.3505 730.961 70.7391C731.701 69.8483 733.045 71.1155 732.566 74.114C732.366 75.2685 731.905 76.7715 730.661 78.2317C730.883 78.4178 731.105 78.6038 731.327 78.7898C741.106 87.43 745.591 95.5787 738.538 103.246C731.374 110.82 722.58 107.348 712.795 98.6323C703.047 90.0405 697.97 77.4538 703.051 71.9597M714.31 86.1365C715.378 87.9053 717.252 88.6013 718.626 87.8404C720.051 87.0504 720.315 85.0049 719.274 83.2593C718.157 81.5447 716.191 80.6531 714.85 81.5128C713.401 82.3298 713.184 84.2959 714.31 86.1365Z" fill="#EC7BB1"/>
<path d="M664.204 193.444C672.99 196.106 681.936 196.376 687.344 189.338C689.646 186.355 689.764 183.409 688.645 180.606C692.737 184.884 695.919 191.61 697.007 199.227L663.339 201.738C663.334 198.877 663.621 196.096 664.18 193.471" fill="white"/>
<path d="M729.807 198.68C728.551 197.533 726.868 196.95 725.16 197.077L707.355 198.405C704.875 179.117 691.957 164.659 677.594 165.73C676.248 165.83 674.916 166.107 673.642 166.48C671.513 165.145 669.822 164.106 669.045 163.455C663.155 158.45 663.402 153.392 664.609 150.036C669.265 150.701 674.135 151.098 679.272 151.247C679.631 153.271 681.02 156.89 686.118 156.51L705.605 155.056C710.729 154.674 711.542 150.916 711.595 148.836C716.654 147.927 721.435 146.785 725.914 145.438C727.632 148.577 728.599 153.519 723.518 159.367C720.474 162.861 698.719 177.525 709.259 187.653C717.223 195.339 728.918 190.947 738.757 185.048C741.048 183.661 743.573 181.928 745.996 179.874C754.208 202.406 754.753 219.129 754.617 224.989C750.788 225.984 742.505 227.969 731.352 229.864L731.668 203.049C731.674 201.377 730.982 199.783 729.752 198.634" fill="white"/>
<path d="M653.011 202.483L647.447 202.898C647.921 198.077 648.696 192.777 649.86 187.094C651.388 188.044 652.934 188.891 654.448 189.639C653.447 193.664 652.91 197.984 653.013 202.509" fill="white"/>
<path d="M731.346 236.753C733.299 236.43 735.15 236.114 736.92 235.78C738.179 235.559 739.384 235.318 740.539 235.105C738.073 236.935 735.176 238.569 731.845 239.957C731.669 240.046 731.492 240.11 731.317 240.199L731.346 236.753Z" fill="white"/>
<path d="M681.86 172.325C680.668 171.35 679.426 170.405 678.19 169.534C690.321 168.883 701.215 181.669 703.475 198.72L700.887 198.913C699.006 185.202 691.005 174.226 681.86 172.325Z" fill="white"/>
<path d="M659.481 202.001L656.893 202.194C656.815 198.351 657.243 194.672 658.026 191.221C658.833 191.566 659.663 191.883 660.492 192.176C659.811 195.266 659.433 198.561 659.481 202.001Z" fill="white"/>
<path d="M716.273 254.818C715.086 255.995 713.5 256.721 711.818 256.847L657.239 260.917C655.557 261.043 653.882 260.56 652.531 259.546L644.871 253.838L722.974 248.013L716.245 254.795L716.273 254.818Z" fill="white"/>
<path d="M635.153 209.386C635.153 209.386 635.371 209.167 635.604 209.15L725.559 202.441C725.792 202.424 725.955 202.513 726.04 202.608C726.125 202.703 726.24 202.846 726.229 203.05L725.756 242.766C725.762 243.196 725.691 243.632 725.591 244.044L641.718 250.3C641.558 249.906 641.449 249.484 641.365 249.06L635.006 209.853C634.989 209.626 635.055 209.469 635.126 209.363" fill="white"/>
</g>
<g clip-path="url(#clip1_895_9993)">
<path d="M429.602 101.654C425.154 84.3403 430.183 63.3171 443.058 45.3992C444.108 43.9427 445.186 42.5137 446.291 41.1396C442.063 36.5228 433.747 25.3928 439.383 14.2629C445.683 1.78634 465.936 -3.29771 473.451 2.17108C479.004 6.12839 481.823 11.6521 483.121 15.1148C492.377 11.9819 502.517 10.3605 513.514 10.333C524.51 10.3605 534.65 11.9819 543.879 15.1148C545.177 11.6521 547.996 6.12839 553.577 2.17108C561.092 -3.29771 581.345 1.78634 587.644 14.2629C593.281 25.3928 584.964 36.5228 580.737 41.1396C581.842 42.5137 582.92 43.9152 583.969 45.3992C596.817 63.3171 601.873 84.3403 597.397 101.654C594.165 114.213 585.986 124.326 573.746 131.114C576.813 133.477 581.262 137.846 585.71 145.541C595.629 162.525 586.318 177.392 577.283 186.516C581.013 199.102 585.793 219.576 576.454 236.395C576.509 238.318 576.454 241.039 576.454 244.914C576.454 244.914 576.233 253.735 571.481 268.713C568.801 277.149 563.081 288.911 553.991 290.423C538.823 293.116 532.606 286.081 531.197 278.359C530.257 273.247 530.423 265.717 532.468 260.771C526.638 261.54 520.311 261.925 513.459 261.925C506.606 261.925 500.307 261.54 494.449 260.771C496.494 265.69 496.66 273.22 495.72 278.359C494.311 286.053 488.094 293.116 472.926 290.423C463.863 288.939 458.144 277.149 455.436 268.713C450.684 253.763 450.463 244.914 450.463 244.914C450.491 241.039 450.435 238.318 450.463 236.395C441.152 219.576 445.904 199.075 449.634 186.516C440.599 177.42 431.288 162.552 441.207 145.569C444.937 139.111 448.584 134.741 453.226 131.196C440.931 124.381 432.725 114.267 429.492 101.681" fill="#EF1923"/>
<path d="M551.919 166.482C541.42 172.528 541.42 181.047 545.426 187.945C549.294 194.623 560.429 195.475 570.652 190.061C573.912 201.438 577.449 218.532 570.376 232.162C570.376 232.162 570.348 232.162 570.32 232.162C570.155 232.162 556.45 243.265 546.006 250.493C537.192 253.241 526.334 254.642 513.514 254.642C500.694 254.642 489.835 253.241 481.021 250.493C470.55 243.265 456.873 232.162 456.707 232.162C456.707 232.162 456.68 232.162 456.652 232.162C449.606 218.559 453.115 201.438 456.376 190.061C466.626 195.475 477.733 194.623 481.629 187.945C485.635 181.047 485.635 172.528 475.136 166.482C472.235 164.806 468.809 163.514 465.3 162.635C469.058 153.263 473.092 145.871 477.125 139.99C482.79 141.337 488.785 142.381 495.168 143.068C495.333 145.349 496.383 150.076 502.462 150.076H524.566C530.672 150.076 531.722 145.349 531.86 143.068C538.242 142.381 544.238 141.337 549.874 139.99C553.964 145.926 558.025 153.346 561.728 162.635C558.219 163.514 554.82 164.806 551.891 166.482" fill="white"/>
<path d="M513.514 17.6704C541.144 17.7803 562.833 28.5255 577.974 49.6587C589.44 65.5979 594.137 84.8348 590.297 99.8396C587.285 111.492 579.576 120.396 567.336 126.277C553.383 132.982 535.286 136.555 513.514 136.83C491.769 136.527 473.672 132.982 459.719 126.277C447.479 120.396 439.743 111.492 436.759 99.8396C432.891 84.8074 437.615 65.5979 449.054 49.6587C464.167 28.5255 485.857 17.7529 513.541 17.6704" fill="white"/>
<path d="M513.487 107.754C508.292 107.754 504.037 104.786 504.037 101.049C504.037 97.3115 508.292 94.2886 513.487 94.2886C518.681 94.2886 522.991 97.3115 522.991 101.049C522.991 104.786 518.736 107.754 513.487 107.754Z" fill="#EF1923"/>
<path d="M490.277 106.903C491.907 105.886 494.062 106.38 495.085 108.002C495.306 108.359 500.887 116.906 513.486 116.906C526.085 116.906 531.666 108.359 531.887 108.029C532.91 106.38 535.065 105.886 536.695 106.875C538.353 107.864 538.878 110.035 537.855 111.657C537.551 112.151 530.147 123.886 513.486 123.886C496.825 123.886 489.421 112.151 489.117 111.657C488.122 110.035 488.619 107.892 490.249 106.903" fill="#EF1923"/>
<path d="M526.196 73.5401C521.305 66.0927 521.996 56.2543 529.87 51.8573C531.169 51.1978 532.854 50.868 534.429 50.5107C535.838 50.6481 537.165 50.5107 538.574 50.868C544.404 52.1871 548.962 55.1276 553.908 58.4254C556.947 60.4315 559.793 62.9873 562.418 65.3232C568.137 70.4347 571.232 78.157 569.547 85.9892C568.635 90.3862 565.789 93.5191 561.976 95.8275C558.384 98.026 553.715 98.3008 550.068 96.7619C544.293 94.261 541.641 89.8091 537.69 85.522C533.96 81.4273 529.29 78.157 526.223 73.5401M542.304 74.0623C542.304 72.276 540.867 70.8195 539.043 70.8195C537.22 70.8195 535.728 72.2485 535.728 74.0623C535.728 75.876 537.192 77.3051 539.043 77.3051C540.895 77.3051 542.304 75.9035 542.304 74.0623Z" fill="#EF1923"/>
<path d="M464.609 65.3232C467.206 62.9873 470.052 60.4315 473.119 58.4254C478.037 55.1276 482.623 52.1871 488.453 50.868C489.835 50.5107 491.189 50.6481 492.598 50.5107C494.173 50.868 495.83 51.1978 497.157 51.8573C505.031 56.2543 505.722 66.0927 500.831 73.5401C497.765 78.157 493.095 81.4547 489.365 85.522C485.414 89.8091 482.762 94.261 476.987 96.7619C473.34 98.3008 468.67 98.026 465.079 95.8275C461.266 93.5191 458.392 90.3862 457.508 85.9892C455.823 78.157 458.945 70.4072 464.637 65.3232M487.956 77.3051C489.807 77.3051 491.272 75.9035 491.272 74.0623C491.272 72.221 489.835 70.8195 487.956 70.8195C486.077 70.8195 484.696 72.2485 484.696 74.0623C484.696 75.876 486.132 77.3051 487.956 77.3051Z" fill="#EF1923"/>
<path d="M443.528 166.042C447.535 159.145 464.582 160.436 475.109 166.482C480.745 169.725 483.343 173.682 483.923 177.694H498.788V173.188C478.784 166.235 477.568 145.679 477.568 145.431C477.568 144.827 477.761 144.25 478.176 143.81C478.59 143.37 479.171 143.123 479.778 143.123H480.524C480.607 142.491 480.718 141.886 480.911 141.254C482.541 136.363 485.111 133.12 488.123 130.894C488.288 130.234 488.592 129.602 489.007 128.97C490.499 126.772 493.345 125.068 496.632 124.408C499.92 123.776 503.236 124.243 505.446 125.727C505.502 125.755 505.557 125.81 505.612 125.865C513.21 125.452 517.603 126.964 519.261 127.733C521.112 128.585 523.267 129.767 524.732 131.251C525.174 131.196 525.616 131.141 526.058 131.141C529.816 131.141 533.131 133.147 534.623 136.115C539.458 135.813 543.603 138.973 544.404 143.095H547.25C547.858 143.095 548.438 143.343 548.853 143.782C549.267 144.222 549.488 144.799 549.46 145.404C549.46 145.651 548.245 166.207 528.241 173.16V177.667H543.106C543.713 173.627 546.283 169.697 551.919 166.455C562.446 160.409 579.466 159.117 583.5 166.015C587.506 172.913 582.229 183.411 571.73 189.456C563.137 194.403 553.688 194.815 548.355 191.05H478.701C473.341 194.843 463.919 194.403 455.298 189.456C444.799 183.411 439.522 172.913 443.528 166.015" fill="#EF1923"/>
<path d="M469.887 182.394C469.887 182.394 470.108 182.119 470.495 182.119H556.506C556.865 182.119 557.058 182.311 557.114 182.394C557.224 182.559 557.169 182.696 557.169 182.751L556.506 184.427C555.953 185.774 554.544 186.681 552.941 186.681H474.086C472.484 186.681 471.075 185.774 470.522 184.427L469.859 182.751C469.859 182.696 469.804 182.559 469.914 182.394" fill="white"/>
<path d="M512.464 140.54C513.708 140.375 515.061 140.292 516.332 140.21C518.156 140.1 519.897 139.99 521.168 139.66C523.986 138.918 525.754 137.434 526.196 135.565C528.545 135.62 530.589 137.077 530.949 139.001C531.059 139.605 531.418 140.127 531.943 140.457C532.468 140.787 533.076 140.897 533.684 140.732C534.236 140.595 534.706 140.512 535.148 140.512C537.248 140.512 539.072 141.584 539.79 143.095H507.767C509.038 141.831 510.42 140.787 512.464 140.512" fill="white"/>
<path d="M520.007 135.428C519.15 135.648 517.575 135.758 516.056 135.84C514.674 135.923 513.21 136.005 511.856 136.198C507.767 136.747 505.335 139.248 503.567 141.089C502.517 142.189 501.771 142.903 501.08 143.123H484.862C484.972 142.683 485.166 142.271 485.359 141.886C486.105 139.88 487.045 138.204 488.26 136.775C488.564 136.417 488.841 136.06 489.2 135.73C489.393 135.95 489.559 136.143 489.78 136.363C490.029 136.582 490.277 136.775 490.554 136.967C491.521 137.599 492.681 138.039 493.98 138.286C494.698 138.424 495.416 138.506 496.19 138.534C496.301 138.534 496.383 138.534 496.494 138.534C497.433 138.534 498.4 138.451 499.367 138.259C501.136 137.901 502.766 137.242 504.12 136.363C505.308 135.621 506.302 134.714 506.993 133.697C507.573 132.845 507.877 131.938 508.016 131.031C508.043 130.756 508.071 130.481 508.071 130.179C508.651 130.179 509.231 130.179 509.756 130.207C513.21 130.372 515.807 130.976 517.382 131.691C520.559 133.175 521.526 134.191 521.803 134.576C521.582 134.769 521.057 135.043 520.283 135.291C520.173 135.318 520.117 135.346 520.007 135.401" fill="white"/>
<path d="M500.859 131.196C500.555 131.306 500.224 131.388 499.864 131.416C499.56 131.443 499.284 131.416 499.008 131.416C498.759 131.416 498.566 131.361 498.345 131.306C497.35 131.059 496.632 130.509 496.576 129.767C496.576 129.657 496.632 129.575 496.632 129.492C496.742 128.503 497.903 127.651 499.505 127.486C499.671 127.486 499.837 127.486 500.002 127.486C500.306 127.486 500.638 127.514 500.942 127.569C501.605 127.706 502.158 127.981 502.489 128.393C502.683 128.613 502.793 128.86 502.821 129.162C502.876 129.712 502.572 130.234 502.019 130.674C501.716 130.921 501.329 131.086 500.887 131.224" fill="white"/>
<path d="M523.82 174.424V177.694H503.236V174.424C506.303 175.084 509.701 175.468 513.542 175.468C517.382 175.468 520.781 175.084 523.848 174.424" fill="white"/>
<path d="M528.157 168.516C527.467 168.79 526.776 169.065 526.03 169.285C522.631 170.384 518.625 171.044 513.9 171.071C513.762 171.071 513.652 171.071 513.541 171.071C513.431 171.071 513.293 171.071 513.182 171.071C508.457 171.044 504.451 170.384 501.053 169.312C500.307 169.065 499.588 168.818 498.925 168.543C489.338 164.696 485.166 157.331 483.397 151.862C482.845 150.185 482.513 148.674 482.32 147.52H544.846C544.017 152.356 540.729 163.486 528.24 168.516" fill="white"/>
</g>
<defs>
<clipPath id="clip0_895_9993">
<rect width="156.354" height="253.79" fill="white" transform="matrix(-0.99723 0.0743734 0.0743734 0.99723 761.921 19)"/>
</clipPath>
<clipPath id="clip1_895_9993">
<rect width="171" height="291" fill="white" transform="matrix(-1 0 0 1 599 0)"/>
</clipPath>
<pattern id="pattern0_895_9993" patternUnits="userSpaceOnUse" patternTransform="matrix(5 0 0 5 0 149)" preserveAspectRatio="none" viewBox="0 0 5 5" width="1" height="1">
<g id="pattern0_895_9993_inner">
<path d="M3.75 1.25H5V3.75H3.75V5H1.25V3.75H0V1.25H1.25V0H3.75V1.25Z" fill="#E8E8E8"/>
</g>
</pattern></defs>
</svg>
