<svg width="552" height="337" viewBox="0 0 552 337" fill="none" xmlns="http://www.w3.org/2000/svg">
<g filter="url(#filter0_d_504_5446)">
<g clip-path="url(#clip0_504_5446)">
<path d="M302.492 115.146C301.54 115.261 300.756 115.948 300.489 116.873C299.623 120.106 300.396 122.249 301.216 123.463C302.647 125.616 304.946 126.296 305.825 126.502L308.533 127.596C308.714 127.676 308.899 127.73 309.088 127.756C309.52 127.817 309.971 127.743 310.379 127.58C310.967 127.305 311.421 126.819 311.643 126.217C311.646 126.19 312.87 122.76 314.601 120.226C315.361 119.123 315.431 117.84 314.807 116.79C314.269 115.918 313.042 113.876 302.461 115.17" fill="#EF1923"/>
<path d="M277.38 98.0164C276.456 97.1446 275.031 97.1097 274.112 97.9707L270.53 101.345C270.242 101.635 270.031 101.963 269.893 102.356L268.69 106.229C268.354 107.254 268.777 108.358 269.714 108.929L275.06 112.208C275.338 112.385 275.654 112.484 275.978 112.529C276.599 112.616 277.253 112.461 277.749 112.063L283.405 107.632C283.932 107.211 284.266 106.598 284.306 105.916C284.347 105.234 284.079 104.592 283.596 104.112L277.407 98.0202L277.38 98.0164Z" fill="#EF1923"/>
<path d="M280.625 142.38L288.262 143.451C288.99 143.553 289.741 143.3 290.256 142.768L292.976 140.042C293.33 139.679 293.56 139.217 293.632 138.704L294.059 135.657C294.24 134.363 293.332 133.191 292.063 133.013L290.471 132.79L288.93 131.419C288.49 131.028 287.915 130.809 287.306 130.834L282.613 130.946C281.562 130.991 280.666 131.69 280.383 132.723L278.668 139.466C278.496 140.102 278.617 140.806 278.981 141.352C279.372 141.902 279.951 142.286 280.598 142.376" fill="#EF1923"/>
<path d="M300.54 162.438C300.726 163.069 301.178 163.572 301.742 163.871L303.93 164.948C304.161 165.063 304.4 165.124 304.643 165.158C304.778 165.177 304.913 165.196 305.025 165.184L309.717 165.072C310.38 165.055 311.027 164.761 311.461 164.217C311.891 163.699 312.07 163.01 311.968 162.363L310.744 154.411C310.662 153.822 310.348 153.31 309.904 152.946C305.703 149.552 301.18 152.767 299.39 154.936C298.891 155.553 298.724 156.355 298.945 157.128L300.54 162.438Z" fill="#EF1923"/>
<path d="M323.154 162.254C320.14 161.969 317.742 164.547 317.481 164.84C317.285 165.06 317.109 165.338 317.013 165.627L315.725 169.323C315.587 169.716 315.557 170.125 315.639 170.521L316.074 172.919C316.265 173.908 317.065 174.68 318.063 174.82C318.144 174.831 318.225 174.843 318.306 174.854L326.021 175.166C326.403 175.192 326.772 175.106 327.126 174.936C327.48 174.765 328.646 174.104 329.127 172.439C329.727 170.516 329.173 168.184 327.458 165.304C326.104 162.997 324.372 162.397 323.154 162.254Z" fill="#EF1923"/>
<path d="M295.297 185.706C273.914 178.089 264.988 173.264 261.118 169.862L295.297 185.706Z" fill="white"/>
<path d="M295.297 185.706C316.68 193.323 326.623 195.211 331.766 195.025L295.297 185.706Z" fill="white"/>
<path d="M529.418 92.6004C520.575 75.6064 507.795 63.3395 491.209 55.8455C492.418 48.399 492.312 39.146 486.155 33.6089C474.702 23.2601 451.541 24.9899 446.755 33.6122C444.29 38.0506 442.983 43.6413 442.286 48.0252C422.721 50.0115 405.747 58.4375 391.666 73.3176C378.721 86.9549 371.18 103.659 370.559 119.272C366.052 119.629 362.433 122.092 361.945 125.57C361.348 129.83 365.717 133.99 371.653 134.822C371.95 134.863 372.228 134.847 372.524 134.889C375.689 145.286 382.522 154.244 392.764 161.069C399.079 165.281 406.545 168.94 414.895 171.98C409.927 178.569 404.466 186.519 398.503 197.259C396.213 198.092 393.987 198.66 391.883 198.75C380.749 199.279 373.848 202.188 370.43 206.548C367.611 205.466 364.579 204.326 361.486 203.232C351.712 199.745 339.891 195.559 335.305 193.926C334.699 192.356 333.62 190.83 332.002 189.421C327.371 185.363 320.695 180.385 299.836 172.952C278.978 165.519 270.665 165.151 264.501 165.359C259.272 165.561 256.065 168.026 254.914 172.704C252.655 181.955 254.916 187.606 262.913 192.384C270.81 197.093 276.043 200.191 288.544 204.637C301.044 209.084 307.027 209.978 316.109 211.333L316.379 211.371L316.675 211.413C324.285 212.48 329.257 210.372 333.079 204.309L357.945 213.184C361.455 214.446 364.926 215.592 368.08 216.639C368.214 217.455 368.37 218.302 368.611 219.133C370.234 224.832 377.13 227.449 385.097 228.318C382.051 240.236 380.725 255.584 387.79 269.167C391.493 276.313 397.166 282.167 404.669 286.738C404.365 288.51 404.115 290.097 403.857 291.353C401.913 300.704 404.6 322.361 419.941 324.209C426.054 324.956 430.669 322.853 434.197 319.471C436.765 323.131 440.329 325.775 445.132 326.448C460.304 328.52 466.398 312.328 469.193 302.794C469.887 300.389 470.9 297.287 471.658 293.846C476.276 291.909 480.442 289.276 484.074 285.936C502.655 268.992 502.758 238.818 501.962 226.636C501.066 213.396 497.968 191.928 493.976 179.189C497.542 178.479 500.958 177.665 504.157 176.629C518.848 171.925 529.396 162.626 534.725 149.735C541.477 133.361 539.462 112.017 529.364 92.5928" fill="#EF1923"/>
<path d="M469.999 181.437C462.678 181.455 454.986 180.982 447.014 179.947L446.933 179.936C441.035 179.026 435.391 177.878 429.993 176.544C427.451 178.387 423.073 180.77 417.282 181.058C415.125 184.082 412.899 187.4 410.558 191.141C416.348 187.718 422.06 184.065 427.069 182.292C435.876 179.128 443.23 182.606 447.126 191.125C451.665 200.945 447.574 208.73 439.452 214.657C428.196 222.922 408.633 226.861 408.633 226.861C404.397 227.834 398.542 228.581 392.619 228.63C389.682 239.381 388.006 253.691 394.289 265.79C396.996 271.008 401.027 275.422 406.293 279.075C409.077 268.44 415.324 257.246 433.43 264.293C447.991 269.936 448.716 281.255 446.896 290.705C460.51 291.129 471.383 287.759 479.239 280.585C495.513 265.765 495.516 238.271 494.765 227.14C494.524 223.367 494.068 218.766 493.454 213.924C490.204 210.609 475.172 194.782 469.995 181.464" fill="white"/>
<path d="M335.588 198.97C335.508 199.344 335.378 199.683 335.24 200.076L359.528 208.759C362.49 209.807 365.379 210.789 368.113 211.695C368.158 211.372 368.254 211.082 368.353 210.766C365.692 209.734 362.841 208.674 359.906 207.63C351.259 204.548 340.984 200.909 335.561 198.966" fill="white"/>
<path d="M328.412 200.109L329.403 197.361C328.474 197.313 327.472 197.2 326.419 197.053C319.377 196.065 309.007 193.099 294.544 187.938C276.385 181.46 265.424 176.432 260.195 172.125C259.908 172.607 259.69 173.181 259.549 173.794C257.796 180.999 259.212 184.634 265.179 188.193C273.052 192.871 278.104 195.888 290.184 200.194C302.237 204.495 308.058 205.366 316.874 206.657L317.144 206.695C317.144 206.695 317.333 206.722 317.414 206.733C322.864 207.497 326.086 206.299 328.796 202.28C328.332 201.665 328.141 200.868 328.412 200.109Z" fill="white"/>
<path d="M296.1 183.509C311.324 188.942 321.994 191.923 328.535 192.564C325.151 189.616 319.25 184.802 298.284 177.354C277.344 169.909 269.703 169.855 265.222 170.025C270.711 173.653 280.846 178.099 296.1 183.509Z" fill="white"/>
<path d="M523.011 95.9091C511.158 73.1043 491.404 59.5573 464.363 55.6016C437.307 51.9464 414.613 59.5704 396.919 78.2334C385.101 90.7088 378.061 106.384 377.772 120.42C381.606 122.113 384.05 125.287 383.593 128.55C383.294 130.68 381.812 132.424 379.699 133.558C381.358 138.602 384.072 143.189 387.813 147.315C400.224 148.478 406.605 141.619 406.671 141.545C407.973 140.106 410.219 139.981 411.66 141.282C413.101 142.584 413.226 144.829 411.924 146.268C411.632 146.585 406.061 152.568 395.635 154.13C396.036 154.407 396.403 154.733 396.831 155.013C409.458 163.464 427.142 169.6 447.989 172.797C468.885 175.452 487.574 174.415 502.038 169.761C514.801 165.666 523.577 158.016 528.124 146.968C533.97 132.748 532.036 113.176 523.038 95.9128" fill="white"/>
<path d="M444.553 112.13C442.38 109.571 440.049 106.77 437.508 104.489C433.301 100.738 429.393 97.4128 424.154 95.3313C422.904 94.8262 421.644 94.787 420.337 94.4938C418.777 94.6325 417.201 94.6865 415.866 95.1867C407.952 98.2564 405.98 107.411 409.612 115.068C411.863 119.811 415.8 123.524 418.767 127.872C421.874 132.404 423.774 136.905 428.892 140.042C432.057 141.997 436.493 142.344 440.126 140.764C443.994 139.079 447.112 136.464 448.546 132.514C451.12 125.341 449.226 117.652 444.584 112.107M423.697 122.734C421.646 122.447 420.131 120.502 420.422 118.426C420.713 116.35 422.678 114.893 424.755 115.184C426.833 115.475 428.299 117.385 428.004 119.489C427.709 121.592 425.802 123.029 423.697 122.734Z" fill="#EF1923"/>
<path d="M305.493 160.465L306.93 160.419L306.276 156.259C305.4 156.026 304.496 156.586 303.87 157.131L304.749 160.086L305.493 160.465Z" fill="white"/>
<path d="M289.008 137.341C288.576 137.281 288.167 137.059 287.847 136.794L286.479 135.557L284.491 135.608L283.87 138.078L287.728 138.619L289.008 137.341Z" fill="white"/>
<path d="M305.158 120.854C305.677 121.669 306.83 121.886 306.83 121.886C307.019 121.912 307.207 121.939 307.385 122.046L308.141 122.345C308.509 121.489 308.98 120.483 309.559 119.492C308.299 119.452 306.588 119.487 304.831 119.654C304.844 120.15 304.95 120.578 305.155 120.881" fill="white"/>
<path d="M274.206 104.363L273.744 105.893L276.126 107.354L278.383 105.581L275.698 102.95L274.206 104.363Z" fill="white"/>
<path d="M323.438 167.683C323.148 167.202 322.881 166.945 322.746 166.926C322.423 166.88 321.792 167.259 321.319 167.688L320.413 170.228L324.625 170.406C324.508 169.867 324.216 169.001 323.461 167.713L323.438 167.683Z" fill="white"/>
</g>
</g>
<g clip-path="url(#clip1_504_5446)">
<path d="M200.394 184.652L190.869 185.892C187.949 178.856 179.861 174.195 170.667 174.478L170.342 171.98C172.064 172.162 173.846 171.625 175.199 170.332C176.393 169.185 177.084 167.673 177.122 166.017C177.153 164.896 176.886 163.813 176.353 162.841C178.455 161.068 179.2 158.025 177.976 155.441C177.276 153.958 176.037 152.824 174.469 152.266C173.406 151.897 172.276 151.79 171.214 152.004C170.196 149.445 167.523 147.812 164.681 148.182C161.838 148.552 159.673 150.815 159.345 153.55C156.585 153.783 154.207 155.769 153.685 158.58C153.388 160.193 153.731 161.851 154.668 163.202C155.296 164.136 156.152 164.862 157.149 165.317C156.484 167.994 157.672 170.887 160.184 172.262C161.332 172.9 162.631 173.137 163.928 172.968C164.252 172.926 164.573 172.859 164.891 172.766C165.037 172.722 165.177 172.628 165.323 172.583L165.652 175.106C156.689 177.162 150.065 183.74 149.048 191.314L139.523 192.555C138.151 192.734 137.15 194.007 137.333 195.405L137.446 196.28C134.134 195.187 130.713 192.864 127.339 190.129C125.52 187.267 123.707 184.633 121.9 182.252C126.104 180.841 130.025 179.213 133.636 177.345C145.637 171.16 153.414 161.562 156.142 149.599C159.573 134.471 154.775 116.326 143.255 101.088C142.398 99.9552 141.518 98.8505 140.617 97.7741C143.233 96.4428 145.462 94.4761 147.005 91.913C152.271 83.2771 148.054 71.1521 137.508 64.7535C127.065 58.3669 114.321 60.2046 109.084 68.8622C107.85 70.8771 107.151 73.1017 106.917 75.3927C99.1658 73.1258 90.7851 72.0584 81.7312 72.2471C72.6871 72.5108 64.389 74.0234 56.7738 76.6916C56.4279 74.4254 55.6115 72.2458 54.266 70.2875C48.5912 61.959 35.7557 60.7607 25.6775 67.6867C15.4995 74.6257 11.9318 86.9519 17.6348 95.3021C19.3261 97.7741 21.6474 99.6307 24.3394 100.829C23.497 101.955 22.6796 103.078 21.8719 104.275C11.177 120.095 7.33299 138.477 11.5584 153.395C14.8936 165.177 23.1898 174.358 35.4779 179.92C38.8736 181.459 42.5457 182.784 46.4195 183.905C41.0379 193.597 36.347 207.035 33.6588 225.724C29.0443 257.464 34.8873 276.82 35.1443 277.624L35.8046 279.773L38.0608 279.962C38.3416 279.976 40.7007 280.177 44.6221 280.301C49.0966 284.671 55.0022 287.763 62.3106 289.554C60.9025 298.018 59.5097 312.829 72.0395 316.937C84.7287 321.101 95.2859 304.613 97.4313 296.358C97.957 294.36 98.8026 292.091 99.4325 289.723C100.352 289.577 101.243 289.41 102.134 289.244C102.94 291.145 103.797 292.862 104.438 294.277C107.928 301.798 114.995 314.39 127.716 311.006C140.583 307.578 140.235 288.751 137.449 280.986C136.929 279.53 136.335 277.499 135.587 275.26C138.176 272.942 140.327 270.376 141.99 267.568C145.745 266.419 147.953 265.648 148.245 265.56L150.378 264.799L150.466 262.553C150.496 261.812 151.001 246.608 143.017 223.468C148.543 223.256 153.291 221.749 155.37 217.465C156.808 214.484 157.267 211.579 156.609 208.871C157.642 208.813 158.742 208.695 159.889 208.545L184.725 205.31C201.706 203.098 204.314 195.469 203.526 189.425L203.178 186.753C202.996 185.354 201.728 184.376 200.331 184.558" fill="#EC7BB1"/>
<path d="M159.189 162.867C159.189 162.867 159.366 162.869 159.469 162.881C159.963 162.969 160.386 163.295 160.597 163.75C160.808 164.205 160.777 164.743 160.502 165.16C160.483 165.213 160.375 165.354 160.328 165.386C159.531 166.861 160.088 168.795 161.617 169.637C162.356 170.049 163.205 170.142 164.011 169.91C164.818 169.677 165.482 169.134 165.893 168.394C165.908 168.316 165.949 168.235 166.01 168.125C166.254 167.662 166.696 167.35 167.247 167.304C167.774 167.26 168.287 167.498 168.598 167.94C169.841 169.303 171.85 169.346 173.113 168.14C173.721 167.553 174.075 166.77 174.093 165.929C174.11 165.089 173.803 164.291 173.213 163.656C172.816 163.327 172.563 162.751 172.648 162.232C172.732 161.713 172.998 161.221 173.455 161.034C173.505 161.028 173.698 160.952 173.745 160.92C175.272 160.188 175.939 158.298 175.201 156.718C174.847 155.951 174.214 155.373 173.417 155.096C172.62 154.818 171.763 154.854 170.997 155.208C170.549 155.469 169.898 155.529 169.432 155.259C168.969 155.015 168.583 154.582 168.564 154.051C168.342 152.15 166.76 150.908 165.04 151.132C163.319 151.356 162.08 152.94 162.308 154.689C162.451 155.203 162.326 155.804 161.944 156.184C161.588 156.56 161.059 156.782 160.534 156.647C160.509 156.65 160.321 156.573 160.272 156.579C159.934 156.522 159.629 156.511 159.305 156.553C157.983 156.725 156.872 157.733 156.595 159.116C156.45 159.947 156.61 160.79 157.082 161.49C157.554 162.191 158.274 162.656 159.107 162.827M165.81 156.849C167.829 156.585 169.69 158.02 169.953 160.043C170.217 162.066 168.786 163.928 166.766 164.191C164.746 164.455 162.886 163.02 162.622 160.997C162.359 158.974 163.79 157.112 165.81 156.849Z" fill="white"/>
<path d="M162.335 189.558L159.627 188.819C159.443 188.767 159.299 188.633 159.201 188.468C159.104 188.303 159.077 188.103 159.13 187.918L159.867 185.206C159.919 185.022 160.027 184.881 160.192 184.783C160.357 184.685 160.556 184.659 160.741 184.712L163.449 185.451C163.817 185.555 164.047 185.957 163.943 186.326L163.206 189.038C163.139 189.301 162.912 189.509 162.638 189.544L185.579 186.556C183.113 182.229 177.578 179.445 171.299 179.526C170.463 179.534 169.631 179.566 168.758 179.68C167.885 179.793 167.072 179.975 166.262 180.182C160.176 181.737 155.538 185.846 154.26 190.636L162.538 189.557C162.538 189.557 162.389 189.577 162.307 189.537M175.938 184.383L177.022 181.803C177.176 181.428 177.587 181.273 177.962 181.427L180.538 182.514C180.726 182.591 180.845 182.728 180.918 182.896C180.991 183.064 180.967 183.271 180.915 183.455L179.831 186.035C179.735 186.276 179.502 186.433 179.253 186.466C179.128 186.482 179 186.473 178.891 186.411L176.315 185.324C176.127 185.247 176.008 185.11 175.935 184.942C175.862 184.774 175.886 184.567 175.938 184.383ZM172.072 185.267C172.072 185.267 172.24 185.195 172.34 185.182C173.113 185.081 173.818 185.624 173.915 186.374C174.013 187.123 173.474 187.853 172.701 187.954C172.402 187.993 172.136 187.901 171.892 187.78C171.511 187.576 171.209 187.209 171.147 186.734C171.06 186.06 171.49 185.47 172.097 185.264M166.081 181.908C166.231 181.888 166.387 181.919 166.518 181.952C167.089 182.056 167.578 182.5 167.66 183.124C167.741 183.749 167.407 184.3 166.856 184.55C166.738 184.616 166.592 184.661 166.442 184.68C165.669 184.781 164.989 184.234 164.889 183.46C164.788 182.686 165.33 181.98 166.078 181.883" fill="white"/>
<path d="M179.353 183.532L178.093 183.01L177.547 184.275L178.807 184.797L179.353 183.532Z" fill="white"/>
<path d="M161.071 186.296L160.705 187.632L162.038 187.999L162.405 186.664L161.071 186.296Z" fill="white"/>
<path d="M191.946 190.857L142.673 197.275L142.693 197.425C142.693 197.425 142.722 197.65 142.735 197.75C147.94 199.358 151.642 201.492 153.92 203.989C155.488 203.962 157.225 203.863 159.245 203.6L184.081 200.365C197.995 198.553 198.983 193.674 198.527 190.178L198.508 190.028L191.9 190.889L191.946 190.857Z" fill="white"/>
<path d="M100.284 282.83C113.924 280.469 124.077 276.454 130.672 270.82C121.985 273.044 110.52 275.553 97.3481 277.421C99.1967 278.959 100.049 280.829 100.284 282.83Z" fill="white"/>
<path d="M56.4385 280.489C58.5776 281.532 60.9465 282.391 63.5171 283.047C63.774 282.099 64.0624 281.198 64.457 280.334C61.5785 280.43 58.8963 280.474 56.4168 280.518" fill="white"/>
<path d="M135.857 223.207C131.534 222.729 127.209 221.844 123.668 221.137C114.142 219.254 106.15 217.475 97.8411 208.779C97.3705 208.281 96.9184 207.731 96.4631 207.155L62.5255 211.575C63.7666 202.803 65.6962 194.449 67.5348 187.733C64.0427 187.401 60.6688 187.002 57.4498 186.431C55.4595 193.929 53.3977 203.214 52.2021 212.92L42.6517 214.164C41.7866 218.036 40.9822 222.179 40.3297 226.709C36.7981 250.993 39.7106 267.708 41.0171 273.456C47.7596 273.822 68.1875 274.514 92.9986 271.282C117.81 268.051 137.379 262.149 143.802 260.068C143.616 254.936 142.464 241.421 135.857 223.207Z" fill="white"/>
<path d="M156.096 89.2811C151.971 86.8212 145.901 86.7483 141.104 89.0495C140.365 88.0535 139.447 87.2333 138.349 86.589C137.304 85.9632 136.16 85.5533 134.946 85.3813C134.711 80.078 131.813 74.766 127.686 72.2811C125.595 71.0294 123.491 70.6431 121.379 71.1722C118.065 72.0102 114.977 74.9778 111.691 80.511C111.045 81.5858 110.517 82.5943 110.036 83.5714C101.621 80.2987 92.2401 78.7521 81.9265 79.0033C58.2558 79.6989 39.9022 89.4807 27.4347 108.046C17.9747 122.054 14.3897 138.726 18.0177 151.588C20.8378 161.558 27.6434 169.028 38.2586 173.818C50.384 179.299 65.9723 181.968 84.6579 181.744C103.3 180.992 118.749 177.532 130.557 171.422C140.893 166.088 147.305 158.268 149.59 148.166C151.732 138.718 149.959 127.443 144.924 116.821C145.23 116.832 145.532 116.818 145.832 116.779C146.131 116.74 146.405 116.705 146.698 116.616C150.015 115.803 153.081 112.863 156.42 107.349C158.355 104.099 164.22 94.2172 156.099 89.3061" fill="white"/>
<path d="M69.7576 110.763C66.4638 107.864 60.7557 108.43 54.8731 111.355C52.6906 112.122 48.6944 111.423 46.7255 109.546C45.9947 108.803 44.955 109.777 46.0035 112.18C46.5153 113.384 47.3056 114.195 48.2879 114.728C46.2909 114.581 44.0813 113.777 42.7477 112.3C41.9574 111.488 40.7952 112.884 41.5347 115.836C41.8339 116.965 42.4281 118.412 43.767 119.736C43.5654 119.94 43.3637 120.144 43.1621 120.348C34.5671 129.9 31.0632 138.434 38.6049 145.325C46.2614 152.125 54.398 147.814 62.9833 138.187C71.535 128.692 75.1926 115.693 69.7294 110.741M60.3409 125.883C59.4898 127.721 57.7574 128.632 56.3566 128.002C54.9027 127.353 54.4647 125.353 55.2908 123.518C56.1949 121.698 57.9827 120.627 59.3932 121.333C60.8503 122.006 61.2786 123.932 60.3626 125.854" fill="#EC7BB1"/>
<path d="M122.799 118.281C122.595 118.079 122.366 117.88 122.162 117.678C123.427 116.294 123.943 114.804 124.178 113.682C124.779 110.708 123.54 109.371 122.765 110.234C121.519 111.768 119.359 112.709 117.361 112.944C118.325 112.361 119.075 111.502 119.524 110.275C120.468 107.79 119.363 106.892 118.677 107.667C116.829 109.635 112.891 110.555 110.651 109.907C104.605 107.291 98.8642 107.022 95.7646 110.093C90.5868 115.314 94.9129 128.085 103.954 137.143C113.008 146.302 121.376 150.19 128.655 142.994C135.821 135.71 131.868 127.361 122.799 118.281ZM110.064 126.62C108.711 127.329 106.932 126.52 105.962 124.716C104.957 122.84 105.261 120.895 106.686 120.151C108.029 119.367 109.906 120.341 110.898 122.117C111.815 123.902 111.495 125.925 110.067 126.645" fill="#EC7BB1"/>
<path d="M155.282 90.6314C151.296 88.2552 145.12 88.3483 140.563 91.1263C139.92 89.8893 138.962 88.7694 137.561 87.9361C136.268 87.1646 134.853 86.8155 133.388 86.854C133.687 81.5574 130.887 76.0294 126.897 73.6281C121.474 70.3468 116.953 74.7709 113.065 81.3225C109.188 87.7709 107.371 93.8749 112.887 97.0933C116.668 99.4456 122.575 99.4381 127.066 96.9228C127.71 98.3629 128.73 99.5762 130.207 100.4C131.609 101.233 133.177 101.588 134.76 101.483C134.704 106.697 137.433 111.879 141.272 114.097C146.699 117.403 151.216 112.954 155.118 106.502C159.007 99.9505 160.78 93.903 155.329 90.6" fill="#EC7BB1"/>
<path d="M86.3521 169.052C85.7038 169.137 85.0272 169.199 84.3193 169.215C74.4393 169.486 69.801 162.496 69.6091 162.191C68.6561 160.715 69.0821 158.729 70.5555 157.775C72.0288 156.821 74.0118 157.249 74.9648 158.725C75.0591 158.865 77.9572 163.008 84.1728 162.834C90.4132 162.656 93.0542 158.4 93.1561 158.209C94.0526 156.721 96.015 156.211 97.5263 157.107C99.0377 158.002 99.5408 159.918 98.6724 161.428C98.5054 161.704 94.8303 167.948 86.377 169.049" fill="#EC7BB1"/>
<path d="M92.0176 150.636C92.1099 153.875 88.5029 156.555 84.0058 156.683C79.4837 156.815 75.7335 154.306 75.6413 151.067C75.5491 147.828 79.1495 145.099 83.6748 144.992C88.172 144.863 91.9005 147.4 91.9927 150.639" fill="#EC7BB1"/>
</g>
<defs>
<filter id="filter0_d_504_5446" x="233.111" y="0" width="322.889" height="344.8" filterUnits="userSpaceOnUse" color-interpolation-filters="sRGB">
<feFlood flood-opacity="0" result="BackgroundImageFix"/>
<feColorMatrix in="SourceAlpha" type="matrix" values="0 0 0 0 0 0 0 0 0 0 0 0 0 0 0 0 0 0 127 0" result="hardAlpha"/>
<feOffset dy="4"/>
<feGaussianBlur stdDeviation="2"/>
<feComposite in2="hardAlpha" operator="out"/>
<feColorMatrix type="matrix" values="0 0 0 0 0 0 0 0 0 0 0 0 0 0 0 0 0 0 0.25 0"/>
<feBlend mode="normal" in2="BackgroundImageFix" result="effect1_dropShadow_504_5446"/>
<feBlend mode="normal" in="SourceGraphic" in2="effect1_dropShadow_504_5446" result="shape"/>
</filter>
<clipPath id="clip0_504_5446">
<rect width="275.711" height="301.444" fill="white" transform="translate(278.959) rotate(7.9798)"/>
</clipPath>
<clipPath id="clip1_504_5446">
<rect width="186.184" height="257.508" fill="white" transform="translate(0 68.1611) rotate(-7.4211)"/>
</clipPath>
</defs>
</svg>
