<svg width="175" height="227" viewBox="0 0 175 227" fill="none" xmlns="http://www.w3.org/2000/svg">
<ellipse cx="63.5133" cy="219.058" rx="53.1442" ry="4.75273" fill="black" fill-opacity="0.25"/>
<g clip-path="url(#clip0_895_11818)">
<path d="M157.241 133.285L149.675 132.266C148.908 126.136 143.68 120.788 136.569 119.087L136.843 117.06C138.126 117.563 139.604 117.515 140.913 116.783C142.069 116.134 142.915 115.092 143.29 113.801C143.549 112.928 143.57 112.023 143.365 111.149C145.348 110.198 146.556 107.967 146.158 105.684C145.931 104.374 145.219 103.226 144.132 102.46C143.395 101.948 142.551 101.628 141.691 101.574C141.446 99.3534 139.738 97.5135 137.48 97.2094C135.222 96.9053 133.088 98.2276 132.264 100.304C130.099 99.9095 127.859 100.97 126.871 103.066C126.306 104.269 126.222 105.641 126.658 106.896C126.944 107.761 127.449 108.51 128.118 109.075C127.048 111.035 127.354 113.553 128.993 115.157C129.74 115.897 130.687 116.355 131.717 116.494C131.974 116.528 132.234 116.543 132.497 116.537C132.619 116.533 132.746 116.488 132.867 116.484L132.591 118.531C125.287 118.269 118.83 122.043 116.466 127.772L108.9 126.753C107.811 126.606 106.777 127.396 106.624 128.531L106.529 129.24C104.217 127.691 102.079 125.153 100.063 122.302C99.2673 119.677 98.4272 117.231 97.5399 114.986C101.059 114.758 104.407 114.301 107.568 113.592C118.066 111.25 126.039 105.348 130.634 96.5349C136.431 85.3866 136.547 70.1504 130.9 55.7889C130.48 54.721 130.036 53.6706 129.57 52.6379C131.855 52.1408 133.977 51.0643 135.696 49.3765C141.541 43.704 140.844 33.3115 134.095 26.0869C127.421 18.8933 117.262 17.6693 111.434 23.3647C110.066 24.6871 109.064 26.2858 108.405 28.0339C102.935 24.6347 96.7307 22.0447 89.7471 20.2991C82.7553 18.6143 76.0743 18.0652 69.6754 18.5654C69.8843 16.7154 69.7141 14.8351 69.0919 13.0176C66.482 5.29808 56.8882 1.67364 47.7093 4.99838C38.4512 8.31244 33.136 17.2347 35.7629 24.9771C36.5429 27.2699 37.9348 29.2117 39.7487 30.715C38.8671 31.4217 38.0053 32.1312 37.1353 32.9015C25.6227 43.0734 18.8285 56.6878 18.948 69.2728C19.0408 79.2125 23.483 88.1488 31.744 95.0816C34.0264 96.9989 36.5656 98.8063 39.3021 100.496C33.1467 106.973 26.7374 116.532 20.7655 130.628C10.5853 154.56 11.0172 170.964 11.0459 171.649L11.1027 173.473L12.7936 174.093C13.006 174.163 14.7735 174.813 17.7551 175.731C20.2726 180.095 24.1552 183.755 29.3858 186.688C26.535 193.032 22.3678 204.359 31.1184 210.202C39.9795 216.122 51.5263 205.397 54.8989 199.371C55.7204 197.913 56.8437 196.31 57.8222 194.584C58.5577 194.663 59.2761 194.718 59.9945 194.774C60.2145 196.434 60.5131 197.96 60.7084 199.204C61.8117 205.833 64.5973 217.188 75.0616 217.194C85.6475 217.196 89.32 202.356 88.8075 195.683C88.7138 194.432 88.683 192.715 88.5777 190.802C91.0484 189.525 93.235 187.962 95.0979 186.108C98.2188 185.992 100.073 185.849 100.316 185.841L102.111 185.69L102.648 183.946C102.826 183.372 106.395 171.552 105.112 151.731C109.395 152.721 113.352 152.532 115.843 149.606C117.57 147.569 118.529 145.386 118.592 143.125C119.396 143.295 120.264 143.432 121.175 143.555L140.901 146.212C154.388 148.029 157.984 142.59 158.644 137.684L158.937 135.515C159.089 134.38 158.321 133.348 157.212 133.199" fill="#EC7BB1"/>
<path d="M130.195 107.579C130.195 107.579 130.331 107.618 130.407 107.649C130.767 107.821 131.023 108.166 131.09 108.567C131.157 108.968 131.021 109.383 130.722 109.652C130.697 109.69 130.584 109.778 130.542 109.793C129.622 110.784 129.644 112.417 130.641 113.398C131.121 113.875 131.753 114.125 132.42 114.112C133.088 114.099 133.711 113.811 134.181 113.317C134.209 113.259 134.257 113.203 134.327 113.13C134.611 112.818 135.015 112.666 135.448 112.745C135.861 112.821 136.204 113.115 136.35 113.527C137.018 114.855 138.55 115.309 139.771 114.627C140.361 114.294 140.796 113.754 140.985 113.099C141.175 112.443 141.106 111.753 140.787 111.132C140.55 110.79 140.477 110.285 140.651 109.896C140.824 109.506 141.131 109.176 141.521 109.125C141.56 109.131 141.724 109.112 141.766 109.097C143.091 108.842 143.998 107.498 143.762 106.105C143.652 105.429 143.287 104.844 142.734 104.459C142.181 104.075 141.515 103.924 140.854 104.041C140.456 104.153 139.944 104.063 139.643 103.754C139.339 103.466 139.133 103.046 139.23 102.625C139.458 101.087 138.504 99.7827 137.138 99.5986C135.771 99.4145 134.489 100.398 134.298 101.817C134.3 102.25 134.079 102.695 133.707 102.913C133.355 103.134 132.903 103.197 132.528 102.982C132.508 102.979 132.381 102.879 132.341 102.874C132.095 102.758 131.862 102.685 131.605 102.651C130.555 102.509 129.492 103.068 128.991 104.094C128.705 104.716 128.652 105.411 128.867 106.059C129.082 106.707 129.537 107.222 130.141 107.531M136.532 104.243C138.136 104.459 139.263 105.973 139.042 107.615C138.821 109.257 137.334 110.419 135.73 110.203C134.125 109.987 132.998 108.473 133.22 106.831C133.441 105.189 134.928 104.027 136.532 104.243Z" fill="white"/>
<path d="M127.024 129.173L125.101 128.027C124.971 127.948 124.888 127.813 124.848 127.663C124.808 127.513 124.829 127.351 124.908 127.217L126.041 125.244C126.119 125.11 126.232 125.022 126.379 124.98C126.526 124.937 126.684 124.959 126.815 125.038L128.737 126.185C128.998 126.344 129.09 126.707 128.933 126.975L127.8 128.948C127.694 129.14 127.477 129.255 127.259 129.226L145.479 131.68C144.493 127.77 140.83 124.429 135.998 123.179C135.355 123.01 134.71 122.861 134.016 122.768C133.323 122.675 132.662 122.647 131.997 122.641C127.004 122.587 122.587 124.84 120.604 128.329L127.179 129.215C127.179 129.215 127.061 129.199 127.007 129.151M138.54 127.959L139.911 126.163C140.108 125.9 140.455 125.864 140.711 126.064L142.459 127.455C142.587 127.555 142.649 127.687 142.67 127.834C142.69 127.982 142.629 128.138 142.55 128.272L141.179 130.069C141.056 130.238 140.844 130.313 140.646 130.286C140.547 130.273 140.451 130.239 140.38 130.168L138.631 128.776C138.504 128.677 138.441 128.544 138.42 128.397C138.4 128.25 138.461 128.093 138.54 127.959ZM135.389 127.844C135.389 127.844 135.534 127.822 135.613 127.833C136.227 127.916 136.654 128.489 136.572 129.097C136.49 129.706 135.924 130.166 135.31 130.083C135.072 130.051 134.888 129.923 134.726 129.778C134.476 129.537 134.321 129.186 134.373 128.801C134.447 128.254 134.9 127.882 135.409 127.847M131.497 123.956C131.616 123.972 131.729 124.029 131.823 124.082C132.24 124.283 132.522 124.734 132.453 125.241C132.385 125.747 132.014 126.11 131.539 126.191C131.435 126.218 131.313 126.222 131.194 126.206C130.58 126.123 130.173 125.553 130.258 124.924C130.342 124.296 130.906 123.856 131.5 123.936" fill="white"/>
<path d="M141.336 128.006L140.479 127.333L139.796 128.211L140.654 128.884L141.336 128.006Z" fill="white"/>
<path d="M126.737 126.35L126.177 127.321L127.123 127.889L127.683 126.918L126.737 126.35Z" fill="white"/>
<path d="M149.463 136.386L110.329 131.114L110.313 131.236C110.313 131.236 110.288 131.418 110.277 131.499C113.933 133.849 116.325 136.297 117.55 138.733C118.759 139.04 120.112 139.325 121.716 139.541L141.441 142.198C152.492 143.687 154.27 140.067 154.653 137.229L154.669 137.108L149.421 136.401L149.463 136.386Z" fill="white"/>
<path d="M59.9173 189.356C70.8727 190.357 79.4999 189.331 85.7368 186.292C78.6085 186.219 69.2901 185.789 58.797 184.5C59.8932 186.092 60.1555 187.737 59.9173 189.356Z" fill="white"/>
<path d="M26.7786 178.35C28.2012 179.615 29.8382 180.785 31.6726 181.837C32.0679 181.147 32.4776 180.5 32.9611 179.905C30.7334 179.378 28.6669 178.852 26.7561 178.367" fill="white"/>
<path d="M99.6754 150.029C96.4602 148.75 93.3282 147.151 90.7604 145.856C83.8477 142.386 78.0906 139.32 73.5371 130.761C73.2802 130.272 73.0487 129.746 72.8199 129.199L45.8657 125.568C48.653 118.947 51.8807 112.798 54.6961 107.915C52.0873 106.923 49.583 105.905 47.2337 104.784C44.1384 110.249 40.6143 117.101 37.6666 124.464L30.0814 123.442C28.6078 126.298 27.124 129.38 25.6757 132.796C17.8861 151.106 16.6229 164.826 16.4224 169.607C21.517 171.305 37.04 176.12 56.7456 178.775C76.4513 181.429 92.6951 180.893 98.0573 180.604C98.9879 176.539 100.932 165.698 99.6754 150.029Z" fill="white"/>
<path d="M143.219 49.2134C140.571 46.4213 135.93 45.0945 131.769 45.8962C131.411 44.9605 130.879 44.1251 130.171 43.39C129.5 42.6805 128.709 42.1199 127.814 41.731C128.743 37.5221 127.632 32.7494 124.986 29.937C123.645 28.518 122.112 27.7749 120.381 27.7482C117.664 27.7124 114.675 29.3942 110.997 33.0472C110.277 33.755 109.661 34.4357 109.087 35.1014C103.318 30.7745 96.4464 27.5993 88.4835 25.6392C70.1832 21.2342 54.0598 25.0682 40.6132 37.0229C30.4267 46.0319 24.189 58.3591 24.2805 69.2067C24.3574 77.617 28.0142 84.8996 35.1537 90.8765C43.3068 97.7122 54.7043 103.066 69.0826 106.798C83.538 110.107 96.1112 110.624 106.446 108.302C115.489 106.279 122.043 101.487 125.909 94.0409C129.529 87.0779 130.528 77.8633 128.889 68.4789C129.121 68.5515 129.356 68.6037 129.593 68.6358C129.831 68.6678 130.049 68.6971 130.292 68.6886C133.007 68.7447 135.973 67.0804 139.688 63.4531C141.852 61.3092 148.417 54.7843 143.216 49.2337" fill="white"/>
<path d="M72.5049 48.0056C70.5851 45.0434 66.0887 44.2932 60.9649 45.3573C59.1306 45.5024 56.2117 44.1186 55.0944 42.2344C54.6894 41.4988 53.6882 42.045 53.9895 44.1494C54.1303 45.2003 54.5667 46.0021 55.2087 46.6252C53.7076 46.0928 52.1812 44.9997 51.4675 43.5621C51.0311 42.7603 49.8476 43.6122 49.7972 46.082C49.7904 47.0305 49.9435 48.2894 50.6934 49.6081C50.4961 49.726 50.2987 49.8439 50.1013 49.9618C41.5106 55.6566 37.0379 61.6172 41.3802 68.6001C45.8298 75.5355 52.9724 73.8558 61.5713 68.1002C70.117 62.4405 75.6419 53.0099 72.4879 47.9827M62.1191 57.8959C61.0818 59.1596 59.5623 59.5122 58.6199 58.7248C57.6405 57.9118 57.723 56.2512 58.7405 54.9849C59.8147 53.7468 61.4099 53.2806 62.3442 54.1288C63.3208 54.962 63.2465 56.5618 62.1416 57.8783" fill="#EC7BB1"/>
<path d="M111.613 64.9962C111.499 64.7951 111.365 64.5913 111.251 64.3902C112.511 63.5692 113.219 62.5088 113.633 61.6771C114.717 59.4703 114.046 58.1623 113.271 58.6771C111.995 59.6196 110.141 59.9066 108.56 59.6729C109.421 59.4174 110.176 58.9 110.777 58.0315C112.021 56.2797 111.361 55.3446 110.673 55.8092C108.843 56.9662 105.631 56.8637 104.049 55.8869C99.9585 52.5704 95.6116 51.1593 92.5919 52.9196C87.5282 55.9319 88.1742 66.8541 93.2133 75.8503C98.2415 84.9274 103.846 89.7275 110.934 85.6052C117.954 81.3912 116.669 74.0152 111.613 64.9962ZM100.101 68.8735C98.9153 69.1471 97.7201 68.14 97.3533 66.522C96.9748 64.8406 97.6153 63.379 98.8637 63.0931C100.058 62.7586 101.294 63.9157 101.683 65.5161C102.013 67.1084 101.344 68.6282 100.099 68.8938" fill="#EC7BB1"/>
<path d="M142.313 50.1026C139.752 47.405 134.996 46.1865 130.92 47.4122C130.685 46.3074 130.185 45.2288 129.284 44.2819C128.455 43.4065 127.443 42.8368 126.31 42.5604C127.648 38.4684 126.657 33.5469 124.1 30.8289C120.627 27.1209 116.234 29.6455 111.88 33.9711C107.558 38.2183 104.887 42.6261 108.445 46.3043C110.852 48.9401 115.385 50.1697 119.355 49.136C119.548 50.4003 120.076 51.5653 121.037 52.5202C121.938 53.4671 123.066 54.0731 124.303 54.3223C123.168 58.4004 124.177 63.0355 126.658 65.578C130.128 69.3063 134.524 66.7614 138.866 62.5168C143.219 58.1913 145.845 53.8187 142.355 50.0877" fill="#EC7BB1"/>
<path d="M73.0375 97.1971C72.5226 97.1277 71.9906 97.0354 71.4442 96.8999C63.8098 95.046 61.7149 88.5929 61.6316 88.3134C61.2095 86.9563 61.9517 85.4878 63.2813 85.0477C64.6109 84.6076 66.0424 85.3577 66.4645 86.7148C66.5075 86.8444 67.8633 90.7007 72.667 91.8637C77.4905 93.0294 80.4064 90.2438 80.5246 90.1153C81.5236 89.1354 83.1353 89.1461 84.1071 90.1644C85.079 91.1828 85.064 92.7906 84.0821 93.7935C83.8963 93.9748 79.7711 98.1041 73.0573 97.1998" fill="#EC7BB1"/>
<path d="M81.2353 83.937C80.6283 86.497 77.3012 87.8444 73.8251 87.0046C70.3292 86.1622 67.9778 83.4102 68.5848 80.8502C69.1917 78.2902 72.5243 76.9023 76.0174 77.7649C79.4935 78.6046 81.8224 81.3743 81.2155 83.9343" fill="#EC7BB1"/>
</g>
<defs>
<clipPath id="clip0_895_11818">
<rect width="147.958" height="209.12" fill="white" transform="translate(27.916) rotate(7.67155)"/>
</clipPath>
</defs>
</svg>
