<svg width="431" height="357" viewBox="0 0 431 357" fill="none" xmlns="http://www.w3.org/2000/svg">
<g filter="url(#filter0_d_504_5446)">
<g clip-path="url(#clip0_504_5446)">
<path d="M413.087 141.526C420.798 122.632 418.521 98.0566 406.993 75.7675C406.053 73.9552 405.077 72.1696 404.061 70.4419C409.511 65.8791 420.558 54.5862 416.033 41.1105C410.982 26.0073 389.186 17.086 379.931 22.0984C373.105 25.7074 369.084 31.5169 367.086 35.2318C357.253 30.2388 346.193 26.8178 333.925 25.0663C321.648 23.377 310.074 23.6253 299.278 25.7265C298.378 21.6052 296.109 14.914 290.508 9.56299C282.988 2.19911 259.579 4.78346 250.57 17.9156C242.514 29.6277 250.03 43.5228 254.015 49.4083C252.564 50.7902 251.139 52.2075 249.732 53.7224C232.551 71.9871 223.574 94.9847 225.823 115.276C227.439 129.992 234.962 142.715 247.545 152.311C243.748 154.505 238.09 158.754 231.905 166.765C218.141 184.43 226.174 202.71 234.81 214.447C228.651 228.106 220.069 250.525 227.824 271.017C227.457 273.185 227.087 276.272 226.472 280.656C226.472 280.656 225.32 290.673 228.248 308.364C229.9 318.33 234.418 332.533 244.323 335.666C260.824 341.086 268.878 334.098 271.676 325.581C273.535 319.944 274.544 311.398 273.047 305.48C279.431 307.263 286.432 308.688 294.079 309.76C301.726 310.832 308.818 311.383 315.477 311.428C312.415 316.675 311.035 325.169 311.269 331.131C311.621 340.058 317.438 349.023 334.794 348.348C345.144 348.087 353.397 335.641 357.757 326.518C365.432 310.346 367.082 300.367 367.082 300.367C367.666 295.978 368.159 292.909 368.434 290.727C381.493 273.153 379.441 249.212 377.27 234.418C388.797 225.538 401.546 210.172 393.17 189.403C390.032 181.512 386.655 175.997 382.037 171.259C396.84 165.471 407.602 155.311 413.206 141.575" fill="#EF1923"/>
<path d="M266.295 195.746C277.054 204.23 275.702 213.87 270.137 221.048C264.761 227.999 252.199 227.221 241.648 219.496C236.205 231.86 229.547 250.648 235.279 267.179C235.279 267.179 235.309 267.183 235.34 267.187C235.525 267.213 249.059 281.92 259.568 291.732C268.969 296.221 280.865 299.506 295.172 301.511C309.48 303.517 321.821 303.63 332.093 301.899C344.926 295.359 361.951 284.936 362.136 284.962C362.136 284.962 362.167 284.966 362.198 284.97C372.219 270.68 371.018 250.758 369.184 237.374C356.885 241.897 344.625 239.195 341.336 231.029C337.959 222.597 339.31 212.957 351.987 207.759C355.491 206.316 359.519 205.39 363.575 204.944C360.868 193.752 357.538 184.757 353.969 177.471C347.434 178.108 340.577 178.352 333.345 178.131C332.798 180.686 330.877 185.87 324.093 184.919L299.425 181.461C292.61 180.506 292.188 174.993 292.396 172.391C285.382 170.615 278.856 168.495 272.779 166.09C267.274 172.167 261.564 179.927 255.959 189.858C259.735 191.402 263.323 193.396 266.326 195.751" fill="white"/>
<path d="M332.761 33.3688C301.908 29.1706 275.998 37.936 255.748 59.4802C240.423 75.7221 232.129 96.7546 234.035 114.334C235.548 127.99 242.739 139.271 255.466 147.84C269.974 157.611 289.605 164.485 313.86 168.202C338.175 171.262 358.935 170.081 375.571 164.677C390.164 159.937 400.21 151.072 405.388 138.354C412.09 121.95 409.864 99.4746 399.626 79.6493C386.111 53.3719 363.614 37.789 332.73 33.3645" fill="white"/>
<path d="M318.503 135.306C324.3 136.119 329.519 133.426 330.112 129.197C330.705 124.968 326.436 120.882 320.639 120.069C314.842 119.257 309.552 122.003 308.959 126.232C308.366 130.461 312.644 134.485 318.503 135.306Z" fill="#EF1923"/>
<path d="M344.54 137.973C342.882 136.568 340.398 136.79 339 138.465C338.696 138.835 331.112 147.633 317.051 145.662C302.99 143.69 298.117 133.146 297.923 132.739C297.043 130.713 294.716 129.816 292.74 130.68C290.733 131.541 289.803 133.915 290.687 135.91C290.947 136.517 297.35 150.953 315.944 153.56C334.538 156.166 344.663 144.047 345.081 143.535C346.448 141.856 346.233 139.352 344.57 137.978" fill="#EF1923"/>
<path d="M309.745 94.6033C316.385 86.9414 317.174 75.7009 309.084 69.4935C307.739 68.5441 305.91 67.9072 304.209 67.2566C302.615 67.1916 301.157 66.8287 299.527 67.0125C292.812 67.593 287.257 70.2071 281.215 73.1649C277.505 74.9594 273.923 77.4061 270.623 79.6387C263.43 84.5278 258.751 92.7817 259.39 101.908C259.71 107.026 262.389 111.016 266.278 114.225C269.938 117.274 275.106 118.316 279.42 117.145C286.261 115.219 289.928 110.596 295.017 106.363C299.83 102.313 305.559 99.3433 309.715 94.599M291.685 92.6741C291.969 90.6528 293.803 89.2295 295.838 89.5148C297.874 89.8001 299.312 91.6505 299.024 93.7029C298.737 95.7552 296.876 97.1431 294.81 96.8535C292.744 96.5639 291.393 94.7575 291.685 92.6741Z" fill="#EF1923"/>
<path d="M379.781 94.9405C377.253 91.891 374.483 88.5539 371.378 85.804C366.412 81.3031 361.76 77.2582 355.463 74.8536C353.978 74.2332 352.445 74.1768 350.894 73.8009C349.08 73.9588 347.178 74.0726 345.593 74.6114C336.107 78.3549 333.776 89.3792 338.052 98.5714C340.743 104.275 345.431 108.737 348.949 113.923C352.678 119.392 354.932 124.845 360.98 128.578C364.806 130.89 370.061 131.31 374.418 129.384C379.04 127.368 382.744 124.273 384.428 119.436C387.551 110.837 385.296 101.579 379.75 94.9362M351.825 104.846C349.759 104.556 348.347 102.741 348.639 100.658C348.931 98.5744 350.757 97.2132 352.853 97.5072C354.95 97.8011 356.265 99.6342 355.978 101.687C355.69 103.739 353.86 105.131 351.825 104.846Z" fill="#EF1923"/>
<path d="M387.332 212.206C383.955 203.774 364.725 202.569 352.018 207.763C345.213 210.551 341.687 214.622 340.403 219.071L323.813 216.746L324.528 211.646C347.956 206.908 352.573 183.839 352.612 183.559C352.708 182.875 352.584 182.191 352.191 181.629C351.798 181.067 351.19 180.696 350.512 180.601L349.679 180.484C349.687 179.756 349.66 179.055 349.544 178.309C348.501 172.519 346.147 168.448 343.139 165.458C343.059 164.685 342.82 163.923 342.458 163.143C341.141 160.421 338.235 158.048 334.671 156.788C331.101 155.558 327.327 155.568 324.625 156.901C324.559 156.924 324.488 156.977 324.418 157.031C316.004 155.376 310.861 156.399 308.889 157.01C306.688 157.684 304.095 158.684 302.225 160.134C301.741 160.003 301.256 159.872 300.763 159.803C296.569 159.215 292.551 160.966 290.415 164.091C285.067 162.993 279.94 165.92 278.392 170.459L275.216 170.014C274.537 169.919 273.851 170.108 273.318 170.541C272.786 170.973 272.448 171.592 272.383 172.28C272.343 172.56 270.44 196.01 291.662 207.007L290.947 212.107L274.357 209.781C274.32 205.115 272.075 200.266 266.299 195.715C255.51 187.227 236.72 183.103 231.124 190.277C225.559 197.455 229.783 210.16 240.542 218.643C249.347 225.585 259.827 227.53 266.376 224.104L344.112 235.001C349.493 240.131 360.077 241.107 370.483 236.859C383.159 231.66 390.714 220.607 387.337 212.175" fill="#EF1923"/>
<path d="M355.322 226.585C355.322 226.585 355.119 226.239 354.687 226.179L258.696 212.722C258.295 212.666 258.049 212.854 257.974 212.938C257.824 213.108 257.864 213.272 257.856 213.334L258.33 215.334C258.733 216.945 260.162 218.191 261.95 218.442L349.955 230.779C351.743 231.029 353.46 230.224 354.29 228.786L355.296 226.993C355.305 226.931 355.388 226.784 355.291 226.58" fill="white"/>
<path d="M314.443 172.564C313.082 172.183 311.584 171.878 310.179 171.586C308.161 171.176 306.236 170.779 304.869 170.207C301.842 168.927 300.104 166.971 299.907 164.787C297.277 164.482 294.764 165.81 294.058 167.931C293.839 168.598 293.355 169.132 292.717 169.423C292.079 169.714 291.383 169.744 290.731 169.462C290.136 169.22 289.625 169.053 289.132 168.984C286.788 168.656 284.583 169.583 283.541 171.181L319.28 176.191C318.062 174.562 316.686 173.164 314.448 172.533" fill="white"/>
<path d="M306.836 165.6C307.757 165.983 309.497 166.354 311.18 166.685C312.709 166.994 314.33 167.317 315.81 167.746C320.287 169.008 322.604 172.218 324.285 174.578C325.282 175.986 326.002 176.911 326.738 177.268L344.838 179.805C344.784 179.291 344.634 178.794 344.479 178.328C343.965 175.942 343.182 173.898 342.052 172.091C341.77 171.639 341.518 171.191 341.169 170.762C340.919 170.98 340.703 171.172 340.422 171.386C340.109 171.596 339.801 171.775 339.462 171.949C338.283 172.513 336.918 172.829 335.43 172.906C334.606 172.949 333.791 172.93 332.923 172.84C332.8 172.823 332.708 172.81 332.584 172.793C331.536 172.646 330.47 172.401 329.421 172.032C327.504 171.351 325.789 170.35 324.418 169.143C323.21 168.117 322.244 166.936 321.634 165.677C321.122 164.622 320.926 163.549 320.916 162.501C320.929 162.186 320.941 161.87 320.989 161.528C320.342 161.437 319.694 161.347 319.104 161.296C315.223 160.942 312.229 161.22 310.358 161.782C306.577 162.964 305.336 163.963 304.967 164.355C305.183 164.608 305.725 165.001 306.549 165.402C306.668 165.45 306.726 165.49 306.84 165.569" fill="white"/>
<path d="M328.876 163.807C329.198 163.979 329.555 164.124 329.951 164.211C330.286 164.29 330.599 164.302 330.907 164.345C331.185 164.384 331.409 164.352 331.665 164.325C332.814 164.2 333.703 163.691 333.882 162.86C333.9 162.736 333.851 162.634 333.864 162.54C333.898 161.404 332.738 160.258 330.975 159.821C330.79 159.795 330.605 159.769 330.42 159.743C330.081 159.695 329.707 159.675 329.359 159.689C328.597 159.741 327.937 159.966 327.501 160.38C327.251 160.599 327.088 160.861 327.009 161.199C326.86 161.812 327.117 162.451 327.664 163.035C327.964 163.362 328.369 163.609 328.841 163.834" fill="white"/>
<path d="M296.395 209.129L295.876 212.83L318.849 216.05L319.368 212.349C315.84 212.616 311.986 212.52 307.7 211.919C303.414 211.318 299.682 210.351 296.364 209.125" fill="white"/>
<path d="M292.491 201.765C293.218 202.184 293.946 202.603 294.743 202.968C298.362 204.744 302.728 206.117 307.997 206.887C308.151 206.909 308.274 206.926 308.398 206.943C308.521 206.961 308.675 206.982 308.799 207C314.076 207.708 318.652 207.588 322.614 206.907C323.486 206.744 324.327 206.576 325.111 206.369C336.421 203.516 342.245 195.835 345.086 189.923C345.969 188.113 346.579 186.454 346.978 185.178L277.197 175.396C277.355 180.999 279.259 194.107 292.399 201.752" fill="white"/>
</g>
</g>
<g clip-path="url(#clip1_504_5446)">
<path d="M200.394 174.538L190.869 175.779C187.949 168.743 179.861 164.081 170.667 164.364L170.342 161.867C172.064 162.049 173.846 161.512 175.199 160.218C176.393 159.072 177.084 157.56 177.122 155.904C177.153 154.782 176.886 153.699 176.353 152.727C178.455 150.955 179.2 147.912 177.976 145.328C177.276 143.844 176.037 142.71 174.469 142.153C173.406 141.783 172.276 141.676 171.214 141.891C170.196 139.331 167.523 137.698 164.681 138.068C161.838 138.439 159.673 140.702 159.345 143.437C156.585 143.669 154.207 145.655 153.685 148.466C153.388 150.08 153.731 151.737 154.668 153.088C155.296 154.022 156.152 154.749 157.149 155.203C156.484 157.881 157.672 160.774 160.184 162.148C161.332 162.786 162.631 163.023 163.928 162.855C164.252 162.812 164.573 162.745 164.891 162.653C165.037 162.608 165.177 162.514 165.323 162.47L165.652 164.992C156.689 167.049 150.065 173.626 149.048 181.201L139.523 182.441C138.151 182.62 137.15 183.893 137.333 185.292L137.446 186.166C134.134 185.074 130.713 182.751 127.339 180.015C125.52 177.153 123.707 174.519 121.9 172.139C126.104 170.728 130.025 169.099 133.636 167.232C145.637 161.046 153.414 151.448 156.142 139.485C159.573 124.357 154.775 106.212 143.255 90.9745C142.398 89.8416 141.518 88.737 140.617 87.6606C143.233 86.3293 145.462 84.3626 147.005 81.7995C152.271 73.1636 148.054 61.0385 137.508 54.6399C127.065 48.2533 114.321 50.0911 109.084 58.7487C107.85 60.7635 107.151 62.9882 106.917 65.2792C99.1658 63.0122 90.7851 61.9449 81.7312 62.1336C72.6871 62.3972 64.389 63.9099 56.7738 66.5781C56.4279 64.3118 55.6115 62.1322 54.266 60.1739C48.5912 51.8455 35.7557 50.6472 25.6775 57.5732C15.4995 64.5122 11.9318 76.8384 17.6348 85.1885C19.3261 87.6606 21.6474 89.5172 24.3394 90.7159C23.497 91.8416 22.6796 92.964 21.8719 94.1614C11.177 109.981 7.33299 128.363 11.5584 143.281C14.8936 155.064 23.1898 164.245 35.4779 169.807C38.8736 171.345 42.5457 172.671 46.4195 173.792C41.0379 183.484 36.347 196.922 33.6588 215.61C29.0443 247.351 34.8873 266.706 35.1443 267.511L35.8046 269.66L38.0608 269.849C38.3416 269.863 40.7007 270.064 44.6221 270.188C49.0966 274.558 55.0022 277.649 62.3106 279.441C60.9025 287.904 59.5097 302.716 72.0395 306.824C84.7287 310.988 95.2859 294.5 97.4313 286.245C97.957 284.246 98.8026 281.977 99.4325 279.609C100.352 279.464 101.243 279.297 102.134 279.13C102.94 281.032 103.797 282.749 104.438 284.164C107.928 291.685 114.995 304.277 127.716 300.893C140.583 297.464 140.235 278.638 137.449 270.873C136.929 269.417 136.335 267.386 135.587 265.146C138.176 262.828 140.327 260.262 141.99 257.455C145.745 256.305 147.953 255.535 148.245 255.446L150.378 254.686L150.466 252.439C150.496 251.699 151.001 236.495 143.017 213.355C148.543 213.143 153.291 211.635 155.37 207.351C156.808 204.37 157.267 201.466 156.609 198.757C157.642 198.699 158.742 198.581 159.889 198.432L184.725 195.197C201.706 192.985 204.314 185.356 203.526 179.312L203.178 176.639C202.996 175.241 201.728 174.263 200.331 174.445" fill="#EC7BB1"/>
<path d="M159.189 152.753C159.189 152.753 159.366 152.756 159.469 152.767C159.963 152.856 160.386 153.182 160.597 153.637C160.808 154.092 160.777 154.629 160.502 155.046C160.483 155.099 160.375 155.24 160.328 155.272C159.531 156.747 160.088 158.681 161.617 159.523C162.356 159.935 163.205 160.028 164.011 159.796C164.818 159.564 165.482 159.02 165.893 158.281C165.908 158.202 165.949 158.121 166.01 158.011C166.254 157.548 166.696 157.236 167.247 157.19C167.774 157.147 168.287 157.385 168.598 157.827C169.841 159.189 171.85 159.232 173.113 158.026C173.721 157.439 174.075 156.656 174.093 155.816C174.11 154.975 173.803 154.177 173.213 153.543C172.816 153.213 172.563 152.637 172.648 152.118C172.732 151.599 172.998 151.107 173.455 150.92C173.505 150.914 173.698 150.838 173.745 150.807C175.272 150.074 175.939 148.184 175.201 146.604C174.847 145.837 174.214 145.259 173.417 144.982C172.62 144.705 171.763 144.74 170.997 145.094C170.549 145.355 169.898 145.415 169.432 145.145C168.969 144.901 168.583 144.469 168.564 143.938C168.342 142.036 166.76 140.795 165.04 141.019C163.319 141.243 162.08 142.826 162.308 144.575C162.451 145.09 162.326 145.69 161.944 146.07C161.588 146.447 161.059 146.668 160.534 146.533C160.509 146.536 160.321 146.459 160.272 146.466C159.934 146.408 159.629 146.397 159.305 146.439C157.983 146.611 156.872 147.62 156.595 149.002C156.45 149.833 156.61 150.676 157.082 151.377C157.554 152.077 158.274 152.542 159.107 152.713M165.81 146.735C167.829 146.472 169.69 147.906 169.953 149.929C170.217 151.952 168.786 153.815 166.766 154.078C164.746 154.341 162.886 152.907 162.622 150.884C162.359 148.861 163.79 146.998 165.81 146.735Z" fill="white"/>
<path d="M162.335 179.444L159.627 178.705C159.443 178.653 159.299 178.519 159.201 178.354C159.104 178.189 159.077 177.989 159.13 177.805L159.867 175.093C159.919 174.908 160.027 174.767 160.192 174.669C160.357 174.572 160.556 174.546 160.741 174.598L163.449 175.337C163.817 175.442 164.047 175.843 163.943 176.213L163.206 178.925C163.139 179.187 162.912 179.395 162.638 179.43L185.579 176.442C183.113 172.115 177.578 169.331 171.299 169.413C170.463 169.42 169.631 169.452 168.758 169.566C167.885 169.679 167.072 169.862 166.262 170.069C160.176 171.623 155.538 175.733 154.26 180.522L162.538 179.443C162.538 179.443 162.389 179.463 162.307 179.423M175.938 174.269L177.022 171.69C177.176 171.314 177.587 171.159 177.962 171.313L180.538 172.4C180.726 172.477 180.845 172.614 180.918 172.782C180.991 172.951 180.967 173.157 180.915 173.342L179.831 175.921C179.735 176.162 179.502 176.32 179.253 176.352C179.128 176.368 179 176.359 178.891 176.298L176.315 175.211C176.127 175.134 176.008 174.997 175.935 174.828C175.862 174.66 175.886 174.454 175.938 174.269ZM172.072 175.154C172.072 175.154 172.24 175.081 172.34 175.068C173.113 174.967 173.818 175.511 173.915 176.26C174.013 177.009 173.474 177.74 172.701 177.84C172.402 177.879 172.136 177.787 171.892 177.666C171.511 177.462 171.209 177.095 171.147 176.62C171.06 175.946 171.49 175.357 172.097 175.15M166.081 171.794C166.231 171.774 166.387 171.805 166.518 171.839C167.089 171.942 167.578 172.386 167.66 173.011C167.741 173.635 167.407 174.187 166.856 174.436C166.738 174.502 166.592 174.547 166.442 174.566C165.669 174.667 164.989 174.121 164.889 173.346C164.788 172.572 165.33 171.866 166.078 171.769" fill="white"/>
<path d="M179.353 173.418L178.093 172.896L177.547 174.161L178.807 174.683L179.353 173.418Z" fill="white"/>
<path d="M161.071 176.183L160.705 177.518L162.038 177.886L162.405 176.55L161.071 176.183Z" fill="white"/>
<path d="M191.946 180.744L142.673 187.162L142.693 187.311C142.693 187.311 142.722 187.536 142.735 187.636C147.94 189.244 151.642 191.378 153.92 193.875C155.488 193.849 157.225 193.75 159.245 193.487L184.081 190.252C197.995 188.439 198.983 183.561 198.527 180.064L198.508 179.914L191.9 180.775L191.946 180.744Z" fill="white"/>
<path d="M100.284 272.716C113.924 270.356 124.077 266.341 130.672 260.707C121.985 262.93 110.52 265.44 97.3481 267.308C99.1967 268.845 100.049 270.715 100.284 272.716Z" fill="white"/>
<path d="M56.4385 270.376C58.5776 271.418 60.9465 272.278 63.5171 272.934C63.774 271.986 64.0624 271.085 64.457 270.22C61.5785 270.316 58.8963 270.361 56.4168 270.404" fill="white"/>
<path d="M135.857 213.093C131.534 212.615 127.209 211.731 123.668 211.023C114.142 209.14 106.15 207.362 97.8411 198.665C97.3705 198.168 96.9184 197.617 96.4631 197.041L62.5255 201.462C63.7666 192.69 65.6962 184.336 67.5348 177.62C64.0427 177.287 60.6688 176.888 57.4498 176.317C55.4595 183.815 53.3977 193.101 52.2021 202.806L42.6517 204.05C41.7866 207.922 40.9822 212.065 40.3297 216.595C36.7981 240.88 39.7106 257.594 41.0171 263.342C47.7596 263.709 68.1875 264.401 92.9986 261.169C117.81 257.937 137.379 252.036 143.802 249.954C143.616 244.823 142.464 231.308 135.857 213.093Z" fill="white"/>
<path d="M156.096 79.1676C151.971 76.7077 145.901 76.6347 141.104 78.936C140.365 77.94 139.447 77.1198 138.349 76.4755C137.304 75.8496 136.16 75.4398 134.946 75.2678C134.711 69.9644 131.813 64.6525 127.686 62.1675C125.595 60.9158 123.491 60.5296 121.379 61.0586C118.065 61.8967 114.977 64.8642 111.691 70.3975C111.045 71.4722 110.517 72.4808 110.036 73.4579C101.621 70.1851 92.2401 68.6386 81.9265 68.8898C58.2558 69.5854 39.9022 79.3672 27.4347 97.9325C17.9747 111.941 14.3897 128.612 18.0177 141.474C20.8378 151.445 27.6434 158.915 38.2586 163.704C50.384 169.186 65.9723 171.854 84.6579 171.63C103.3 170.878 118.749 167.418 130.557 161.308C140.893 155.974 147.305 148.154 149.59 138.053C151.732 128.604 149.959 117.329 144.924 106.708C145.23 106.719 145.532 106.705 145.832 106.666C146.131 106.627 146.405 106.591 146.698 106.502C150.015 105.689 153.081 102.75 156.42 97.2351C158.355 93.9859 164.22 84.1037 156.099 79.1926" fill="white"/>
<path d="M69.7576 100.649C66.4638 97.7511 60.7557 98.3168 54.8731 101.242C52.6906 102.009 48.6944 101.31 46.7255 99.4331C45.9947 98.6901 44.955 99.6637 46.0035 102.067C46.5153 103.27 47.3056 104.082 48.2879 104.614C46.2909 104.468 44.0813 103.664 42.7477 102.186C41.9574 101.375 40.7952 102.771 41.5347 105.722C41.8339 106.852 42.4281 108.298 43.767 109.623C43.5654 109.827 43.3637 110.031 43.1621 110.235C34.5671 119.787 31.0632 128.32 38.6049 135.212C46.2614 142.012 54.398 137.701 62.9833 128.074C71.535 118.578 75.1926 105.58 69.7294 100.628M60.3409 115.769C59.4898 117.607 57.7574 118.519 56.3566 117.889C54.9027 117.24 54.4647 115.239 55.2908 113.405C56.1949 111.585 57.9827 110.514 59.3932 111.219C60.8503 111.893 61.2786 113.819 60.3626 115.741" fill="#EC7BB1"/>
<path d="M122.799 108.168C122.595 107.966 122.366 107.767 122.162 107.565C123.427 106.181 123.943 104.691 124.178 103.569C124.779 100.595 123.54 99.2575 122.765 100.12C121.519 101.654 119.359 102.596 117.361 102.831C118.325 102.248 119.075 101.388 119.524 100.162C120.468 97.6764 119.363 96.7791 118.677 97.5541C116.829 99.522 112.891 100.441 110.651 99.7933C104.605 97.1773 98.8642 96.9091 95.7646 99.9797C90.5868 105.201 94.9129 117.972 103.954 127.03C113.008 136.188 121.376 140.077 128.655 132.88C135.821 125.597 131.868 117.248 122.799 108.168ZM110.064 116.506C108.711 117.216 106.932 116.406 105.962 114.602C104.957 112.727 105.261 110.782 106.686 110.038C108.029 109.253 109.906 110.228 110.898 112.004C111.815 113.789 111.495 115.812 110.067 116.531" fill="#EC7BB1"/>
<path d="M155.282 80.5181C151.296 78.1419 145.12 78.235 140.563 81.0131C139.92 79.776 138.962 78.6562 137.561 77.8228C136.268 77.0513 134.853 76.7022 133.388 76.7408C133.687 71.4441 130.887 65.9161 126.897 63.5148C121.474 60.2335 116.953 64.6577 113.065 71.2092C109.188 77.6577 107.371 83.7616 112.887 86.98C116.668 89.3323 122.575 89.3248 127.066 86.8095C127.71 88.2496 128.73 89.4629 130.207 90.2865C131.609 91.1199 133.177 91.4745 134.76 91.3698C134.704 96.584 137.433 101.766 141.272 103.983C146.699 107.29 151.216 102.84 155.118 96.3888C159.007 89.8372 160.78 83.7897 155.329 80.4867" fill="#EC7BB1"/>
<path d="M86.3521 158.938C85.7038 159.023 85.0272 159.086 84.3193 159.102C74.4393 159.372 69.801 152.382 69.6091 152.077C68.6561 150.601 69.0821 148.615 70.5555 147.661C72.0288 146.707 74.0118 147.135 74.9648 148.611C75.0591 148.751 77.9572 152.895 84.1728 152.72C90.4132 152.542 93.0542 148.287 93.1561 148.096C94.0526 146.607 96.015 146.098 97.5263 146.993C99.0377 147.888 99.5408 149.804 98.6724 151.314C98.5054 151.59 94.8303 157.834 86.377 158.935" fill="#EC7BB1"/>
<path d="M92.0176 140.522C92.1099 143.762 88.5029 146.441 84.0058 146.57C79.4837 146.701 75.7335 144.193 75.6413 140.954C75.5491 137.715 79.1495 134.985 83.6748 134.878C88.172 134.75 91.9005 137.287 91.9927 140.526" fill="#EC7BB1"/>
</g>
<defs>
<filter id="filter0_d_504_5446" x="190" y="0" width="245" height="364.03" filterUnits="userSpaceOnUse" color-interpolation-filters="sRGB">
<feFlood flood-opacity="0" result="BackgroundImageFix"/>
<feColorMatrix in="SourceAlpha" type="matrix" values="0 0 0 0 0 0 0 0 0 0 0 0 0 0 0 0 0 0 127 0" result="hardAlpha"/>
<feOffset dy="4"/>
<feGaussianBlur stdDeviation="2"/>
<feComposite in2="hardAlpha" operator="out"/>
<feColorMatrix type="matrix" values="0 0 0 0 0 0 0 0 0 0 0 0 0 0 0 0 0 0 0.25 0"/>
<feBlend mode="normal" in2="BackgroundImageFix" result="effect1_dropShadow_504_5446"/>
<feBlend mode="normal" in="SourceGraphic" in2="effect1_dropShadow_504_5446" result="shape"/>
</filter>
<clipPath id="clip0_504_5446">
<rect width="192.707" height="332.497" fill="white" transform="translate(240.159) rotate(7.9798)"/>
</clipPath>
<clipPath id="clip1_504_5446">
<rect width="186.184" height="257.508" fill="white" transform="translate(0 58.0476) rotate(-7.4211)"/>
</clipPath>
</defs>
</svg>
