<svg width="1188" height="335" viewBox="0 0 1188 335" fill="none" xmlns="http://www.w3.org/2000/svg" xmlns:xlink="http://www.w3.org/1999/xlink">
<rect y="149" width="1188" height="186" rx="29" fill="url(#pattern0_895_10571)"/>
<ellipse cx="444" cy="300.5" rx="63" ry="5.5" fill="black" fill-opacity="0.25"/>
<ellipse cx="699.5" cy="277.5" rx="50.5" ry="5.5" fill="black" fill-opacity="0.25"/>
<g clip-path="url(#clip0_895_10571)">
<path d="M616.159 133.492C619.256 128.121 624.531 128.183 629.875 130.165C627.434 126.827 625.485 123.149 624.149 119.095C619.305 104.339 622.233 85.8121 631.952 69.5137C632.674 68.295 633.424 67.1248 634.201 65.978C631.486 64.9144 629.115 63.1667 627.31 60.769C621.265 52.686 624.197 40.1604 633.913 32.7253C643.532 25.3226 656.234 25.8947 662.257 34.0047C663.679 35.8991 664.601 38.0334 665.066 40.3031C672.45 37.2708 680.582 35.3475 689.495 34.6574C698.412 34.0177 706.739 34.7135 714.467 36.6188C714.591 34.3304 715.161 32.0596 716.311 29.9733C721.064 21.0597 733.54 18.6098 744.127 24.5055C754.836 30.3921 759.569 42.346 754.816 51.2596C753.412 53.8966 751.301 55.9786 748.799 57.4313C749.737 58.4502 750.654 59.5214 751.547 60.5943C763.603 75.2941 769.247 93.1816 766.621 108.495C765.9 112.702 764.543 116.627 762.622 120.265C765.439 118.738 768.324 117.788 770.986 118.147C771.275 105.844 771.889 91.2879 772.488 81.1647C773.105 70.9389 773.647 64.0107 773.647 64.0107C773.645 63.9855 773.668 63.9585 773.688 63.9063C773.715 63.6004 773.743 63.3198 773.802 63.1128C775.606 56.5969 791.984 60.5666 798.955 62.5537C801.924 63.3958 816.815 67.9069 819.725 73.2356C820.465 74.5732 820.38 75.7444 820.163 76.4696C820.086 76.7539 819.982 77.0148 819.829 77.2795C819.829 77.2795 819.829 77.2795 819.831 77.3046C819.831 77.3046 816.772 83.509 812.055 92.5719C807.079 102.135 799.864 115.36 793.9 125.883C794.862 130.522 795.002 136.69 794.998 136.969C795.015 137.854 794.634 138.693 793.935 139.226C793.517 139.561 792.989 139.752 792.475 139.791C792.156 139.814 791.859 139.786 791.531 139.684L778.796 136.025C777.399 140.738 774.478 145.488 771.276 149.779C767.535 154.768 758.922 163.108 749.139 167.991C750.278 170.717 751.4 173.545 752.466 176.606C763.316 206.842 761.548 227.055 761.463 227.897L761.238 230.168L759.119 230.807C758.998 230.841 758.493 231.006 757.672 231.219C757.728 231.974 757.788 232.78 757.856 233.687C757.856 233.687 758.253 241.33 755.178 254.575C753.443 262.023 749.376 272.557 741.808 274.438C729.172 277.71 723.451 272.009 721.755 265.45C720.647 261.152 720.294 254.771 721.642 250.391C716.792 251.411 711.504 252.16 705.724 252.591C699.944 253.022 694.603 253.066 689.68 252.775C691.638 256.908 692.236 263.27 691.777 267.686C691.073 274.423 686.286 280.908 673.279 279.549C665.516 278.811 659.908 268.999 657.111 261.889C652.131 249.27 651.364 241.629 651.364 241.629C651.297 240.722 651.237 239.916 651.18 239.161C650.334 239.047 649.813 238.984 649.688 238.968L647.497 238.651L646.938 236.439C646.729 235.619 641.983 215.891 648.228 184.38C648.854 181.218 649.544 178.255 650.242 175.392C639.819 172.016 630.063 165.046 625.622 160.642C617.7 152.825 610.75 142.86 616.155 133.442" fill="#E578AC"/>
<path d="M689.159 156.308L707.822 154.916C712.696 154.553 713.475 150.798 713.543 148.741C718.935 147.731 723.986 146.443 728.701 144.927C734.669 152.635 740.776 163.525 746.287 178.966C754.562 202.076 755.114 219.052 755.014 224.985C748.567 226.707 728.952 231.512 704.288 233.351C679.6 235.193 659.514 233.348 652.882 232.602C651.904 226.749 649.924 209.779 654.687 185.797C657.846 169.71 662.271 158.035 667.03 149.526C671.941 150.325 677.103 150.851 682.585 151.05C682.958 153.073 684.285 156.672 689.159 156.308Z" fill="white"/>
<path d="M671.293 240.7C680.43 241.031 691.907 241.036 704.741 240.079L704.79 240.075C717.624 239.118 728.974 237.411 737.96 235.727C739.151 235.512 740.291 235.275 741.384 235.067C739.055 236.861 736.317 238.458 733.169 239.833C725.943 243.005 716.613 245.043 705.175 245.896C693.737 246.749 684.208 246.118 676.592 244.052C673.274 243.16 670.355 241.985 667.761 240.558C668.872 240.602 670.035 240.667 671.244 240.703" fill="white"/>
<path d="M614.781 64.4888C615.089 62.3388 616.207 60.4828 618.142 59.0217C621.942 56.1553 627.903 55.5082 632.839 57.2925C633.474 56.2322 634.292 55.3103 635.294 54.5518C636.274 53.8203 637.344 53.31 638.505 53.0209C638.209 47.7252 640.523 42.1081 644.349 39.2399C651.827 33.5163 658.628 42.809 660.851 45.8593C661.591 46.8676 662.229 47.8329 662.817 48.7767C670.762 44.6896 679.838 42.2148 689.974 41.4082C713.322 39.7682 732.358 47.6673 746.478 64.948C757.125 77.9295 762.35 94.1517 760.105 107.31C758.358 117.569 752.418 125.761 742.435 131.595C731.062 138.268 715.983 142.482 697.633 144.104C679.221 145.224 663.684 143.293 651.471 138.379C640.732 134.065 633.644 126.87 630.393 116.958C627.369 107.789 627.999 96.4228 631.857 85.3982C631.832 85.4 631.783 85.4037 631.759 85.4055C626.15 85.8238 621.466 79.4879 619.66 77.065C615.872 71.8524 614.319 67.8659 614.806 64.487" fill="white"/>
<path d="M719.786 70.9649C722.02 71.5326 725.877 70.4093 727.62 68.3548C728.274 67.5463 729.397 68.3995 728.575 70.9171C728.2 72.1606 727.504 73.0735 726.591 73.6987C728.561 73.3745 730.626 72.3342 731.787 70.7282C732.509 69.8387 733.786 71.1109 733.344 74.1066C733.16 75.26 732.73 76.7607 731.533 78.2174C731.744 78.4043 731.979 78.5893 732.166 78.778C741.578 87.4201 745.883 95.6076 739.163 103.25C732.337 110.799 723.9 107.3 714.505 98.5555C705.142 89.9097 700.237 77.3102 705.1 71.8575C708.036 68.6252 713.703 68.6583 719.786 70.9649ZM715.909 86.0172C716.928 87.7898 718.731 88.5163 720.027 87.7359C721.397 86.9501 721.614 84.908 720.622 83.1588C719.558 81.4402 717.668 80.5429 716.378 81.3989C715.01 82.2099 714.787 84.1764 715.885 86.0191" fill="#E578AC"/>
<path d="M653.767 84.6251C653.948 84.409 654.154 84.1911 654.335 83.975C652.96 82.7101 652.287 81.2915 651.933 80.1784C651.052 77.2813 652.125 75.8086 652.972 76.6064C654.359 78.0224 656.578 78.7178 658.552 78.7732C657.556 78.2904 656.71 77.5178 656.177 76.3167C655.015 73.947 655.999 72.9367 656.765 73.6393C658.794 75.4125 662.75 75.9531 664.877 75.0854C670.549 71.8769 676.15 71.0287 679.533 73.7898C685.154 78.4858 682.172 91.6735 674.193 101.587C666.199 111.629 658.374 116.34 650.504 109.887C642.725 103.327 645.769 94.6163 653.769 84.6502M667.125 91.6815C668.521 92.2358 670.196 91.2499 670.967 89.3692C671.781 87.4092 671.269 85.4975 669.796 84.8984C668.395 84.2685 666.657 85.411 665.86 87.2684C665.138 89.1455 665.68 91.1309 667.151 91.7049" fill="#E578AC"/>
<path d="M619.074 60.2943C622.733 57.5144 628.828 57.0092 633.581 59.3136C634.076 58.0358 634.921 56.808 636.202 55.8261C637.391 54.9271 638.759 54.4453 640.202 54.3123C639.367 49.0568 641.57 43.2708 645.277 40.4621C650.263 36.6463 655.139 40.6128 659.637 46.7601C664.102 52.8084 666.513 58.7061 661.4 62.4806C657.933 65.1955 652.114 65.7562 647.455 63.7233C646.976 65.2277 646.089 66.5347 644.734 67.5221C643.428 68.5058 641.938 68.9968 640.366 69.0633C640.951 74.2615 638.795 79.6895 635.246 82.3092C630.238 86.1519 625.359 82.1602 620.869 76.1137C616.394 69.9395 614.014 64.1155 619.047 60.2709" fill="#E578AC"/>
<path d="M696.701 131.613C706.425 130.888 710.281 123.484 710.43 123.169C711.223 121.591 710.636 119.66 709.097 118.837C707.558 118.015 705.681 118.611 704.863 120.191C704.777 120.35 702.347 124.76 696.2 125.218C690.052 125.677 686.914 121.581 686.886 121.532C685.867 120.089 683.899 119.78 682.523 120.819C681.123 121.861 680.829 123.858 681.848 125.301C682.042 125.591 686.955 132.365 696.679 131.64" fill="#E578AC"/>
<path d="M687.274 113.856C687.516 117.104 691.335 119.428 695.743 119.099C700.152 118.77 703.632 115.902 703.39 112.654C703.147 109.405 699.352 107.055 694.87 107.389C690.388 107.723 687.032 110.607 687.274 113.856Z" fill="#E578AC"/>
<path d="M774.47 123.584L788.689 127.665C789.02 129.463 789.223 131.524 789.353 133.262L771.031 127.994C772.033 126.577 773.266 124.94 774.47 123.584Z" fill="white"/>
<path d="M777.91 81.5452C778.169 77.0944 778.426 73.2768 778.628 70.3749C784.206 73.8333 792.798 76.4339 794.987 77.0556C799.114 78.2418 806.543 80.0935 812.304 80.069C810.994 82.6484 809.297 85.9909 807.228 89.9436C803.2 97.689 796.317 110.408 789.658 122.173L776.394 118.351C776.689 106.124 777.282 91.6199 777.885 81.5471" fill="white"/>
<path d="M796.43 71.6302C789.609 69.6573 784.745 67.5131 781.911 65.8505C781.474 65.6045 781.088 65.3801 780.751 65.152C783.824 65.0748 789.585 65.7087 797.488 67.9808C805.34 70.2313 810.576 72.7529 813.166 74.4589C812.75 74.49 812.305 74.4725 811.812 74.4587C808.553 74.3472 803.302 73.6246 796.456 71.6535" fill="white"/>
</g>
<g clip-path="url(#clip1_895_10571)">
<path d="M381.512 112.265C378.953 94.6525 385.957 74.3285 400.232 57.894C401.391 56.5518 402.576 55.2645 403.788 54.0045C400.152 48.992 393.229 37.1044 399.801 26.6411C407.182 14.9452 427.33 11.9596 434.064 18.1225C439.074 22.6146 441.228 28.3941 442.144 31.9549C451.437 29.791 461.43 29.2432 472.097 30.3114C482.763 31.4893 492.406 34.1188 501.053 38.1452C502.669 34.8583 505.955 29.6541 511.746 26.3124C519.584 21.6559 538.709 28.7776 543.557 41.7882C547.894 53.4019 538.709 63.5639 534.156 67.7273C535.072 69.2064 535.988 70.7129 536.85 72.2742C547.517 91.3382 550.264 112.703 544.203 129.411C539.409 142.586 529.308 152.365 514.978 157.624C510.992 159.076 506.763 160.281 502.265 161.212C503.989 164.499 505.659 168.115 507.275 172.032C510.265 174.908 513.308 177.236 516.406 178.414C534.668 185.234 538.062 195.259 532.029 204.572C529.362 208.68 524.594 209.913 519.126 209.694C522.251 223.28 523.948 241.412 513.524 255.765C509.456 261.38 503.827 265.872 496.716 269.242C496.985 270.748 497.201 272.09 497.443 273.158C499.436 282.389 497.066 303.836 482.171 305.808C467.437 307.808 461.376 292.414 458.548 283.375C457.982 281.567 457.228 279.321 456.555 276.856C455.962 276.856 455.397 276.856 454.804 276.856C449.794 276.856 445.08 276.637 440.636 276.199C439.289 279.568 437.861 282.553 437.026 284.663C433.39 293.729 419.195 310.93 405.593 304.302C392.152 297.783 395.869 281.102 398.697 271.707C399.478 269.105 400.448 265.599 401.849 262.01C399.694 260.093 397.754 258.011 396.111 255.738C382.051 236.373 390.024 210.105 393.876 197.45C394.28 196.163 394.603 195.012 394.872 194.081C400.152 174.88 406.697 160.966 413.512 150.886C410.306 149.352 407.209 147.708 404.38 145.928C391.398 137.793 383.478 126.125 381.458 112.237" fill="#E60012"/>
<path d="M506.143 196.683L540.944 183.755C539.813 181.673 539.328 180.221 539.328 180.221C536.311 171.84 560.365 160.363 575.045 154.885C589.725 149.434 615.394 142.422 618.411 150.804C618.411 150.804 630.128 180.386 589.886 196.163C566.048 204.544 552.796 197.642 545.9 190.493L508.864 204.27C508.406 204.435 507.948 204.517 507.49 204.517C505.874 204.517 504.339 203.504 503.773 201.86C503.019 199.778 504.069 197.45 506.143 196.683ZM581.482 172.525C601.738 164.992 612.324 156.61 612.135 154.364C610.869 152.529 597.455 153.05 577.2 160.582C556.944 168.115 546.358 176.496 546.547 178.742C547.813 180.577 561.227 180.057 581.482 172.525Z" fill="#E60012"/>
<path d="M577.2 160.582C556.944 168.115 546.358 176.496 546.547 178.742C547.813 180.577 561.227 180.057 581.482 172.525C601.738 164.992 612.324 156.61 612.135 154.364C610.869 152.529 597.455 153.05 577.2 160.582Z" fill="white"/>
<path d="M581.771 138.453L582.093 144.086L576.553 144.412L576.232 138.779L581.771 138.453Z" fill="white"/>
<path d="M576.553 145.435H576.607L582.129 145.106C582.398 145.106 582.641 144.969 582.802 144.778C582.991 144.586 583.072 144.312 583.045 144.038L582.722 138.396C582.722 138.122 582.587 137.875 582.398 137.711C582.21 137.519 581.967 137.464 581.671 137.464L576.122 137.793C575.853 137.793 575.611 137.93 575.449 138.122C575.287 138.313 575.18 138.587 575.206 138.861L575.557 144.476C575.584 145.024 576.015 145.435 576.553 145.435ZM581.025 143.134L577.469 143.353L577.254 139.738L580.809 139.519L581.025 143.134Z" fill="#E60012"/>
<path d="M545.177 150.363L547.339 155.559L542.229 157.758L540.067 152.561L545.177 150.363Z" fill="white"/>
<path d="M542.21 158.774C542.21 158.774 542.479 158.774 542.587 158.692L547.705 156.501C547.947 156.391 548.136 156.2 548.243 155.953C548.351 155.707 548.351 155.433 548.243 155.186L546.089 149.982C545.873 149.462 545.307 149.242 544.796 149.434L539.678 151.625C539.435 151.735 539.247 151.927 539.139 152.173C539.031 152.42 539.031 152.694 539.139 152.94L541.321 158.144C541.483 158.528 541.833 158.747 542.237 158.747M546.035 155.049L542.749 156.474L541.348 153.132L544.634 151.708L546.035 155.049Z" fill="#E60012"/>
<path d="M578.667 108.075L582.453 112.2L578.397 116.05L574.611 111.926L578.667 108.075Z" fill="white"/>
<path d="M578.411 117.086C578.653 117.086 578.896 116.976 579.084 116.812L583.125 112.95C583.529 112.566 583.556 111.936 583.179 111.525L579.381 107.417C579.192 107.225 578.95 107.115 578.68 107.088C578.357 107.088 578.169 107.17 577.953 107.362L573.886 111.224C573.697 111.416 573.589 111.662 573.563 111.936C573.563 112.21 573.643 112.456 573.832 112.648L577.63 116.757C577.818 116.949 578.061 117.058 578.33 117.086H578.357H578.411ZM581.051 112.155L578.465 114.648L576.014 111.991L578.626 109.526L581.051 112.183V112.155Z" fill="#E60012"/>
<path d="M554.196 115.387L559.368 117.387L561.334 112.128L556.162 110.101L554.196 115.387Z" fill="white"/>
<path d="M559.368 118.4C559.502 118.4 559.637 118.373 559.772 118.318C560.014 118.209 560.203 118.017 560.284 117.77L562.25 112.511C562.438 111.991 562.196 111.416 561.684 111.197L556.513 109.17C556.27 109.06 556.001 109.088 555.758 109.17C555.516 109.279 555.327 109.471 555.247 109.717L553.28 114.977C553.092 115.497 553.334 116.072 553.846 116.264L559.018 118.291C559.018 118.291 559.26 118.346 559.368 118.346M560.068 112.703L558.802 116.1L555.489 114.812L556.755 111.416L560.068 112.703Z" fill="#E60012"/>
<path d="M562.052 126.278L566.838 129.133L564.031 134L559.245 131.146L562.052 126.278Z" fill="white"/>
<path d="M564.001 134.972C564.351 134.972 564.674 134.807 564.863 134.479L567.664 129.631C567.799 129.411 567.826 129.11 567.772 128.864C567.718 128.617 567.529 128.398 567.314 128.261L562.519 125.412C562.277 125.275 562.008 125.248 561.765 125.303C561.496 125.358 561.28 125.549 561.146 125.768L558.344 130.644C558.075 131.137 558.237 131.74 558.695 132.041L563.462 134.89C563.624 134.972 563.785 135.027 563.974 135.027M565.455 129.466L563.651 132.589L560.58 130.754L562.385 127.631L565.455 129.466Z" fill="#E60012"/>
<path d="M546.088 138.396L550.156 142.176L553.927 138.04L549.833 134.205L546.088 138.396Z" fill="white"/>
<path d="M550.156 143.189C550.426 143.189 550.695 143.079 550.883 142.86L554.654 138.697C554.843 138.505 554.924 138.231 554.924 137.985C554.924 137.711 554.789 137.464 554.601 137.273L550.506 133.465C550.318 133.274 550.075 133.191 549.779 133.191C549.51 133.191 549.267 133.328 549.079 133.52L545.335 137.683C544.958 138.094 544.985 138.724 545.389 139.108L549.456 142.915C549.644 143.079 549.887 143.189 550.129 143.189M552.527 138.094L550.102 140.779L547.49 138.341L549.887 135.657L552.527 138.122V138.094Z" fill="#E60012"/>
<path d="M558.685 149.734L564.006 151.336L562.431 156.746L557.11 155.145L558.685 149.734Z" fill="white"/>
<path d="M562.438 157.761C562.869 157.761 563.273 157.487 563.381 157.021L564.943 151.598C565.105 151.078 564.809 150.502 564.27 150.338L558.937 148.749C558.398 148.612 557.859 148.886 557.698 149.434L556.108 154.858C556.028 155.104 556.054 155.378 556.189 155.624C556.324 155.871 556.512 156.035 556.782 156.118L562.115 157.706C562.115 157.706 562.304 157.761 562.384 157.761M562.761 152.009L561.738 155.488L558.317 154.474L559.341 150.995L562.761 152.036V152.009Z" fill="#E60012"/>
<path d="M570.029 163.973L575.51 164.854L574.644 170.427L569.163 169.547L570.029 163.973Z" fill="white"/>
<path d="M574.613 171.429C575.098 171.429 575.502 171.073 575.583 170.58L576.445 165.02C576.499 164.746 576.445 164.499 576.256 164.28C576.095 164.061 575.879 163.924 575.61 163.869L570.115 162.993C569.846 162.938 569.576 163.02 569.388 163.184C569.172 163.349 569.038 163.568 568.984 163.842L568.122 169.429C568.041 169.977 568.418 170.498 568.957 170.58L574.425 171.456C574.425 171.456 574.533 171.456 574.586 171.456M574.371 165.677L573.805 169.265L570.277 168.69L570.842 165.102L574.371 165.677Z" fill="#E60012"/>
<path d="M461.753 37.1043C464.905 37.1043 468.11 37.2687 471.369 37.5974C498.17 40.5282 518.102 53.4019 530.627 75.8897C540.136 92.872 542.749 112.402 537.496 126.891C533.402 138.149 525.025 146.175 512.554 150.749C498.332 155.98 480.419 157.651 459.302 155.707C438.238 153.187 421.053 147.818 408.205 139.738C396.919 132.671 390.32 123.057 388.596 111.169C386.387 95.885 392.879 77.3141 405.592 62.6874C420.353 45.6503 439.181 37.0496 461.726 37.0496" fill="white"/>
<path d="M444.622 160.801C444.622 160.993 444.568 161.13 444.568 161.349C444.568 161.349 433.848 164.718 422.669 172.579C422.669 172.579 429.834 177.428 439.908 188.658H470.857C478.345 197.751 486.426 200.71 496.015 203.997C500.46 205.503 506.035 207.448 511.53 208.653C514.709 221.143 517.133 238.591 507.813 251.437C499.059 263.489 481.254 269.598 454.884 269.598C450.736 269.598 446.804 269.433 443.087 269.132C445.592 259.381 444.541 248.89 427.976 245.658C416.232 243.385 409.471 248.561 405.269 255.272C404.057 254.067 402.953 252.807 401.956 251.437C390.05 235.03 397.323 211.146 400.798 199.641C401.202 198.272 401.579 197.094 401.848 196.108C402.548 193.561 403.276 191.123 404.03 188.767H419.841C417.794 182.577 408.447 179.482 408.447 179.482H407.235C409.067 174.634 410.979 170.306 412.946 166.444C415.882 164.691 423.127 160.774 433.04 158.09C436.73 159.103 440.582 160.007 444.595 160.801" fill="white"/>
<path d="M462.238 126.891C457.201 126.371 453.376 122.975 453.753 119.277C454.13 115.579 458.575 113.004 463.612 113.552C468.702 114.073 472.527 117.524 472.15 121.222C471.773 124.919 467.356 127.439 462.265 126.891" fill="#E60012"/>
<path d="M439.855 123.659C441.552 122.81 443.599 123.55 444.407 125.248C444.595 125.632 449.121 134.67 461.349 135.958C473.605 137.273 479.827 129.329 480.07 129.028C481.201 127.494 483.356 127.22 484.864 128.371C486.373 129.521 486.642 131.712 485.511 133.246C485.187 133.684 477.969 143.052 464.043 143.052C462.966 143.052 461.834 142.997 460.649 142.86C444.515 141.162 438.508 128.781 438.266 128.261C437.457 126.535 438.185 124.481 439.855 123.659Z" fill="#E60012"/>
<path d="M483.786 73.1507C485.133 72.6302 486.803 72.4933 488.339 72.2742C489.685 72.5481 491.005 72.5481 492.325 73.0411C497.847 74.9311 501.968 78.3275 506.412 82.1075C509.16 84.4083 511.665 87.2296 513.954 89.8043C518.964 95.4468 521.2 103.445 518.776 111.032C517.456 115.278 514.385 118.126 510.426 120.016C506.709 121.824 502.157 121.632 498.79 119.715C493.429 116.647 491.301 111.963 487.908 107.307C484.702 102.897 480.5 99.1446 478.022 94.269C474.009 86.3804 475.706 76.6841 483.759 73.1507M490.116 99.3089C491.894 99.5006 493.429 98.2681 493.618 96.4329C493.806 94.6525 492.541 93.0912 490.79 92.8995C488.985 92.7077 487.45 93.9951 487.261 95.7755C487.073 97.5833 488.339 99.1172 490.143 99.3089" fill="#E60012"/>
<path d="M419.14 79.8341C421.888 77.7798 424.905 75.5338 428.083 73.8629C433.201 71.0964 437.915 68.6313 443.706 67.9191C445.106 67.7274 446.372 67.9739 447.746 68.0013C449.228 68.5217 450.844 69.0147 452.029 69.8091C459.221 74.9859 458.897 84.7918 453.403 91.6943C449.982 95.9673 445.106 98.7338 441.066 102.404C436.81 106.266 433.767 110.402 427.922 112.292C424.231 113.443 419.733 112.703 416.474 110.156C412.999 107.499 410.548 104.075 410.117 99.6377C409.282 91.6943 413.08 84.3536 419.14 79.8889M440.581 94.1047C442.386 94.2965 443.921 93.0639 444.11 91.2561C444.298 89.4757 443.032 87.887 441.228 87.6953C439.45 87.5035 437.915 88.7909 437.753 90.5713C437.564 92.3791 438.83 93.913 440.581 94.1047Z" fill="#E60012"/>
</g>
<defs>
<clipPath id="clip0_895_10571">
<rect width="210.382" height="253.79" fill="white" transform="matrix(-0.99723 0.0743734 0.0743734 0.99723 815.799 14.9818)"/>
</clipPath>
<clipPath id="clip1_895_10571">
<rect width="239" height="291" fill="white" transform="matrix(-1 0 0 1 620 15)"/>
</clipPath>
<pattern id="pattern0_895_10571" patternUnits="userSpaceOnUse" patternTransform="matrix(5 0 0 5 0 149)" preserveAspectRatio="none" viewBox="0 0 5 5" width="1" height="1">
<g id="pattern0_895_10571_inner">
<path d="M3.75 1.25H5V3.75H3.75V5H1.25V3.75H0V1.25H1.25V0H3.75V1.25Z" fill="#E8E8E8"/>
</g>
</pattern></defs>
</svg>
