<svg width="218" height="280" viewBox="0 0 218 280" fill="none" xmlns="http://www.w3.org/2000/svg">
<g clip-path="url(#clip0_195_2951)">
<path d="M200.394 140.538L190.869 141.779C187.949 134.743 179.861 130.081 170.667 130.365L170.342 127.867C172.064 128.049 173.846 127.512 175.199 126.218C176.393 125.072 177.084 123.56 177.122 121.904C177.153 120.782 176.886 119.7 176.353 118.728C178.455 116.955 179.2 113.912 177.976 111.328C177.276 109.845 176.037 108.711 174.469 108.153C173.406 107.783 172.276 107.676 171.214 107.891C170.196 105.331 167.523 103.698 164.681 104.068C161.838 104.439 159.673 106.702 159.345 109.437C156.585 109.669 154.207 111.656 153.685 114.467C153.388 116.08 153.731 117.737 154.668 119.088C155.296 120.022 156.152 120.749 157.149 121.203C156.484 123.881 157.672 126.774 160.184 128.149C161.332 128.786 162.631 129.024 163.928 128.855C164.252 128.813 164.573 128.745 164.891 128.653C165.037 128.609 165.177 128.514 165.323 128.47L165.652 130.992C156.689 133.049 150.065 139.626 149.048 147.201L139.523 148.442C138.151 148.62 137.15 149.894 137.333 151.292L137.446 152.166C134.134 151.074 130.713 148.751 127.339 146.015C125.52 143.154 123.707 140.52 121.9 138.139C126.104 136.728 130.025 135.099 133.636 133.232C145.637 127.046 153.414 117.448 156.142 105.485C159.573 90.3577 154.775 72.2125 143.255 56.9748C142.398 55.8419 141.518 54.7373 140.617 53.6608C143.233 52.3295 145.462 50.3628 147.005 47.7997C152.271 39.1639 148.054 27.0388 137.508 20.6402C127.065 14.2536 114.321 16.0913 109.084 24.7489C107.85 26.7638 107.151 28.9884 106.917 31.2795C99.1658 29.0125 90.7851 27.9451 81.7312 28.1338C72.6871 28.3975 64.389 29.9101 56.7738 32.5784C56.4279 30.3121 55.6115 28.1325 54.266 26.1742C48.5912 17.8457 35.7557 16.6474 25.6775 23.5734C15.4995 30.5124 11.9318 42.8386 17.6348 51.1888C19.3261 53.6608 21.6474 55.5174 24.3394 56.7161C23.497 57.8418 22.6796 58.9643 21.8719 60.1617C11.177 75.9816 7.33299 94.3634 11.5584 109.281C14.8936 121.064 23.1898 130.245 35.4779 135.807C38.8736 137.346 42.5457 138.671 46.4195 139.792C41.0379 149.484 36.347 162.922 33.6588 181.61C29.0443 213.351 34.8873 232.706 35.1443 233.511L35.8046 235.66L38.0608 235.849C38.3416 235.863 40.7007 236.064 44.6221 236.188C49.0966 240.558 55.0022 243.65 62.3106 245.441C60.9025 253.904 59.5097 268.716 72.0395 272.824C84.7287 276.988 95.2859 260.5 97.4313 252.245C97.957 250.246 98.8026 247.977 99.4325 245.609C100.352 245.464 101.243 245.297 102.134 245.13C102.94 247.032 103.797 248.749 104.438 250.164C107.928 257.685 114.995 270.277 127.716 266.893C140.583 263.464 140.235 244.638 137.449 236.873C136.929 235.417 136.335 233.386 135.587 231.147C138.176 228.828 140.327 226.262 141.99 223.455C145.745 222.305 147.953 221.535 148.245 221.446L150.378 220.686L150.466 218.439C150.496 217.699 151.001 202.495 143.017 179.355C148.543 179.143 153.291 177.635 155.37 173.352C156.808 170.37 157.267 167.466 156.609 164.758C157.642 164.699 158.742 164.581 159.889 164.432L184.725 161.197C201.706 158.985 204.314 151.356 203.526 145.312L203.178 142.639C202.996 141.241 201.728 140.263 200.331 140.445" fill="#EC7BB1"/>
<path d="M159.189 118.754C159.189 118.754 159.366 118.756 159.469 118.768C159.963 118.856 160.386 119.182 160.597 119.637C160.808 120.092 160.777 120.63 160.502 121.046C160.483 121.1 160.375 121.241 160.328 121.272C159.531 122.748 160.088 124.682 161.617 125.524C162.356 125.936 163.205 126.028 164.011 125.796C164.818 125.564 165.482 125.02 165.893 124.281C165.908 124.203 165.949 124.122 166.01 124.012C166.254 123.548 166.696 123.237 167.247 123.19C167.774 123.147 168.287 123.385 168.598 123.827C169.841 125.189 171.85 125.232 173.113 124.027C173.721 123.439 174.075 122.657 174.093 121.816C174.11 120.976 173.803 120.177 173.213 119.543C172.816 119.214 172.563 118.637 172.648 118.118C172.732 117.599 172.998 117.107 173.455 116.921C173.505 116.914 173.698 116.838 173.745 116.807C175.272 116.075 175.939 114.184 175.201 112.604C174.847 111.838 174.214 111.26 173.417 110.982C172.62 110.705 171.763 110.741 170.997 111.094C170.549 111.356 169.898 111.415 169.432 111.146C168.969 110.901 168.583 110.469 168.564 109.938C168.342 108.037 166.76 106.795 165.04 107.019C163.319 107.243 162.08 108.827 162.308 110.575C162.451 111.09 162.326 111.69 161.944 112.07C161.588 112.447 161.059 112.668 160.534 112.533C160.509 112.537 160.321 112.46 160.272 112.466C159.934 112.408 159.629 112.397 159.305 112.44C157.983 112.612 156.872 113.62 156.595 115.002C156.45 115.834 156.61 116.677 157.082 117.377C157.554 118.078 158.274 118.543 159.107 118.714M165.81 112.735C167.829 112.472 169.69 113.906 169.953 115.929C170.217 117.952 168.786 119.815 166.766 120.078C164.746 120.341 162.886 118.907 162.622 116.884C162.359 114.861 163.79 112.998 165.81 112.735Z" fill="white"/>
<path d="M162.335 145.445L159.627 144.706C159.443 144.653 159.299 144.52 159.201 144.355C159.104 144.19 159.077 143.99 159.13 143.805L159.867 141.093C159.919 140.908 160.027 140.767 160.192 140.67C160.357 140.572 160.556 140.546 160.741 140.598L163.449 141.338C163.817 141.442 164.047 141.844 163.943 142.213L163.206 144.925C163.139 145.188 162.912 145.395 162.638 145.431L185.579 142.443C183.113 138.116 177.578 135.332 171.299 135.413C170.463 135.42 169.631 135.453 168.758 135.566C167.885 135.68 167.072 135.862 166.262 136.069C160.176 137.624 155.538 141.733 154.26 146.522L162.538 145.444C162.538 145.444 162.389 145.463 162.307 145.423M175.938 140.27L177.022 137.69C177.176 137.314 177.587 137.159 177.962 137.314L180.538 138.4C180.726 138.478 180.845 138.615 180.918 138.783C180.991 138.951 180.967 139.157 180.915 139.342L179.831 141.922C179.735 142.163 179.502 142.32 179.253 142.352C179.128 142.369 179 142.36 178.891 142.298L176.315 141.211C176.127 141.134 176.008 140.997 175.935 140.829C175.862 140.661 175.886 140.454 175.938 140.27ZM172.072 141.154C172.072 141.154 172.24 141.082 172.34 141.069C173.113 140.968 173.818 141.511 173.915 142.26C174.013 143.01 173.474 143.74 172.701 143.841C172.402 143.88 172.136 143.787 171.892 143.667C171.511 143.462 171.209 143.095 171.147 142.621C171.06 141.946 171.49 141.357 172.097 141.151M166.081 137.794C166.231 137.775 166.387 137.805 166.518 137.839C167.089 137.943 167.578 138.387 167.66 139.011C167.741 139.636 167.407 140.187 166.856 140.437C166.738 140.503 166.592 140.547 166.442 140.567C165.669 140.667 164.989 140.121 164.889 139.347C164.788 138.573 165.33 137.867 166.078 137.769" fill="white"/>
<path d="M179.353 139.419L178.093 138.897L177.547 140.162L178.807 140.683L179.353 139.419Z" fill="white"/>
<path d="M161.071 142.183L160.705 143.519L162.038 143.886L162.405 142.551L161.071 142.183Z" fill="white"/>
<path d="M191.946 146.744L142.673 153.162L142.693 153.312C142.693 153.312 142.722 153.536 142.735 153.636C147.94 155.244 151.642 157.378 153.92 159.876C155.488 159.849 157.225 159.75 159.245 159.487L184.081 156.252C197.995 154.439 198.983 149.561 198.527 146.065L198.508 145.915L191.9 146.775L191.946 146.744Z" fill="white"/>
<path d="M100.284 238.717C113.924 236.356 124.077 232.341 130.672 226.707C121.985 228.931 110.52 231.44 97.3481 233.308C99.1967 234.845 100.049 236.715 100.284 238.717Z" fill="white"/>
<path d="M56.4385 236.376C58.5776 237.418 60.9465 238.278 63.5171 238.934C63.774 237.986 64.0624 237.085 64.457 236.221C61.5785 236.316 58.8963 236.361 56.4168 236.404" fill="white"/>
<path d="M135.857 179.094C131.534 178.615 127.209 177.731 123.668 177.024C114.142 175.14 106.15 173.362 97.8411 164.665C97.3705 164.168 96.9184 163.617 96.4631 163.042L62.5255 167.462C63.7666 158.69 65.6962 150.336 67.5348 143.62C64.0427 143.287 60.6688 142.889 57.4498 142.317C55.4595 149.815 53.3977 159.101 52.2021 168.807L42.6517 170.051C41.7866 173.922 40.9822 178.066 40.3297 182.596C36.7981 206.88 39.7106 223.595 41.0171 229.343C47.7596 229.709 68.1875 230.401 92.9986 227.169C117.81 223.937 137.379 218.036 143.802 215.955C143.616 210.823 142.464 197.308 135.857 179.094Z" fill="white"/>
<path d="M156.096 45.1678C151.971 42.7079 145.901 42.635 141.104 44.9362C140.365 43.9402 139.447 43.12 138.349 42.4757C137.304 41.8499 136.16 41.4401 134.946 41.268C134.711 35.9647 131.813 30.6527 127.686 28.1678C125.595 26.9161 123.491 26.5298 121.379 27.0589C118.065 27.897 114.977 30.8645 111.691 36.3978C111.045 37.4725 110.517 38.481 110.036 39.4581C101.621 36.1854 92.2401 34.6388 81.9265 34.89C58.2558 35.5856 39.9022 45.3674 27.4347 63.9327C17.9747 77.9408 14.3897 94.6126 18.0177 107.475C20.8378 117.445 27.6434 124.915 38.2586 129.704C50.384 135.186 65.9723 137.854 84.6579 137.63C103.3 136.879 118.749 133.419 130.557 127.309C140.893 121.975 147.305 114.155 149.59 104.053C151.732 94.6047 149.959 83.3297 144.924 72.7082C145.23 72.7191 145.532 72.7051 145.832 72.6662C146.131 72.6272 146.405 72.5915 146.698 72.5025C150.015 71.6894 153.081 68.7501 156.42 63.2353C158.355 59.9862 164.22 50.104 156.099 45.1928" fill="white"/>
<path d="M69.7576 66.6494C66.4638 63.7511 60.7557 64.3168 54.8731 67.242C52.6906 68.0088 48.6944 67.3102 46.7255 65.4331C45.9947 64.6901 44.955 65.6637 46.0035 68.0671C46.5153 69.2704 47.3056 70.0818 48.2879 70.6143C46.2909 70.468 44.0813 69.6636 42.7477 68.1864C41.9574 67.3749 40.7952 68.7709 41.5347 71.7225C41.8339 72.8519 42.4281 74.2984 43.767 75.6226C43.5654 75.8267 43.3637 76.0307 43.1621 76.2348C34.5671 85.7869 31.0632 94.3203 38.6049 101.212C46.2614 108.012 54.398 103.701 62.9833 94.0742C71.535 84.5785 75.1926 71.5802 69.7294 66.6277M60.3409 81.7694C59.4898 83.6074 57.7574 84.5189 56.3566 83.8886C54.9027 83.2398 54.4647 81.2395 55.2908 79.4047C56.1949 77.5852 57.9827 76.5141 59.3932 77.2194C60.8503 77.8932 61.2786 79.8185 60.3626 81.7412" fill="#EC7BB1"/>
<path d="M122.799 74.1676C122.595 73.9656 122.366 73.7668 122.162 73.5648C123.427 72.1808 123.943 70.6912 124.178 69.5685C124.779 66.5946 123.54 65.2575 122.765 66.1204C121.519 67.6543 119.359 68.5959 117.361 68.8308C118.325 68.2481 119.075 67.3884 119.524 66.1615C120.468 63.6764 119.363 62.7791 118.677 63.5541C116.829 65.522 112.891 66.4413 110.651 65.7933C104.605 63.1773 98.8642 62.9091 95.7646 65.9797C90.5868 71.2007 94.9129 83.9719 103.954 93.0302C113.008 102.188 121.376 106.077 128.655 98.8805C135.821 91.5972 131.868 83.2477 122.799 74.1676ZM110.064 82.5064C108.711 83.216 106.932 82.4064 105.962 80.6024C104.957 78.7267 105.261 76.7821 106.686 76.0378C108.029 75.2532 109.906 76.228 110.898 78.0037C111.815 79.7892 111.495 81.812 110.067 82.5313" fill="#EC7BB1"/>
<path d="M155.282 46.5181C151.296 44.1419 145.12 44.235 140.563 47.0131C139.92 45.776 138.962 44.6562 137.561 43.8228C136.268 43.0513 134.853 42.7022 133.388 42.7408C133.687 37.4441 130.887 31.9161 126.897 29.5148C121.474 26.2335 116.953 30.6577 113.065 37.2092C109.188 43.6577 107.371 49.7616 112.887 52.98C116.668 55.3323 122.575 55.3248 127.066 52.8095C127.71 54.2496 128.73 55.4629 130.207 56.2865C131.609 57.1199 133.177 57.4745 134.76 57.3698C134.704 62.584 137.433 67.7656 141.272 69.9833C146.699 73.2896 151.216 68.8405 155.118 62.3888C159.007 55.8372 160.78 49.7897 155.329 46.4867" fill="#EC7BB1"/>
<path d="M86.3521 124.939C85.7038 125.023 85.0272 125.086 84.3193 125.102C74.4393 125.373 69.801 118.383 69.6091 118.078C68.6561 116.601 69.0821 114.616 70.5555 113.662C72.0288 112.708 74.0118 113.135 74.9648 114.611C75.0591 114.751 77.9572 118.895 84.1728 118.721C90.4132 118.543 93.0542 114.287 93.1561 114.096C94.0526 112.608 96.015 112.098 97.5263 112.993C99.0377 113.889 99.5408 115.804 98.6724 117.314C98.5054 117.59 94.8303 123.835 86.377 124.936" fill="#EC7BB1"/>
<path d="M92.0176 106.523C92.1099 109.762 88.5029 112.441 84.0058 112.57C79.4837 112.702 75.7335 110.193 75.6413 106.954C75.5491 103.715 79.1495 100.985 83.6748 100.879C88.172 100.75 91.9005 103.287 91.9927 106.526" fill="#EC7BB1"/>
</g>
<defs>
<clipPath id="clip0_195_2951">
<rect width="186.184" height="257.508" fill="white" transform="translate(0 24.0479) rotate(-7.4211)"/>
</clipPath>
</defs>
</svg>
