<svg width="251" height="194" viewBox="0 0 251 194" fill="none" xmlns="http://www.w3.org/2000/svg">
<g clip-path="url(#clip0_895_11585)">
<g clip-path="url(#clip1_895_11585)">
<path d="M201.852 127.185C198.404 122.18 193.11 122.85 187.971 125.33C190.04 122.068 191.619 118.515 192.62 114.65C196.202 100.573 192.153 83.4801 181.787 68.9343C180.942 67.7501 180.074 66.5882 179.184 65.471C182.588 61.7172 189.283 52.668 184.746 43.6187C179.674 33.4746 163.368 29.341 157.318 33.7874C152.847 37.005 150.578 41.4961 149.532 44.3114C142.08 41.7642 133.916 40.4682 125.063 40.4236C116.21 40.4459 108.046 41.7642 100.616 44.3114C99.5706 41.5184 97.3016 37.005 92.8082 33.7874C86.7577 29.341 70.4523 33.4746 65.3805 43.6187C60.8426 52.668 67.5382 61.7172 70.9417 65.471C70.0519 66.5882 69.1843 67.7501 68.339 68.9343C57.973 83.5024 53.9245 100.595 57.5059 114.672C58.4846 118.538 60.0863 122.113 62.1773 125.375C59.1297 123.9 56.0377 123.051 53.2794 123.654C53.3684 123.453 53.4573 123.274 53.5018 123.073V123.029C53.5463 122.85 53.5908 122.649 53.5908 122.448C52.4563 114.985 40.3775 86.6976 38.4199 82.1395L38.4644 82.0948L38.6424 81.9607C39.8213 81.0223 42.2238 78.4751 41.7566 74.2074C41.5119 71.9954 40.8001 69.3811 39.6211 66.834C38.9761 65.4486 37.8861 63.393 36.3512 61.4491C32.4139 56.4664 28.1206 53.8969 24.1166 55.4386C20.1126 57.0027 18.6444 61.8289 19.0671 68.1522C19.245 70.6324 19.8011 72.8891 20.246 74.3638C21.0913 77.0451 22.3148 79.4582 23.605 81.2681C26.1186 84.7314 29.5888 84.9995 31.0792 84.8878H31.3016C32.703 88.999 42.513 117.8 46.606 124.548C47.1843 125.419 48.1631 125.889 49.2086 125.978C48.8749 126.336 48.5413 126.738 48.2298 127.185C42.4462 135.586 48.3188 145.417 55.2592 153.26C59.241 157.751 68.2723 165.169 78.149 168.968C77.2592 171.649 76.3694 174.442 75.5463 177.414C75.3239 178.173 75.0569 179.089 74.7233 180.139C71.5645 190.44 64.9801 211.89 76.5696 227.687C84.9781 239.127 101.283 244.914 125.041 244.914C148.798 244.914 165.103 239.127 173.512 227.687C185.124 211.89 178.539 190.44 175.358 180.139C175.047 179.089 174.758 178.151 174.535 177.391C173.69 174.397 172.822 171.604 171.91 168.923C181.765 165.102 190.796 157.706 194.778 153.215C201.718 145.35 207.591 135.541 201.807 127.14" fill="#E60012"/>
<path d="M125.063 46.3672C102.818 46.4342 85.3558 55.193 73.1657 72.3754C63.9341 85.3348 60.1525 100.953 63.2445 113.175C65.647 122.671 71.8755 129.888 81.7299 134.67C92.9857 140.122 107.556 143.004 125.063 143.25C142.569 143.004 157.139 140.122 168.373 134.67C178.227 129.888 184.456 122.649 186.858 113.175C189.973 100.975 186.169 85.3348 176.937 72.3754C164.769 55.193 147.307 46.4342 125.018 46.3672" fill="white"/>
<path d="M125.04 119.588C129.267 119.588 132.692 117.174 132.692 114.136C132.692 111.097 129.267 108.639 125.04 108.639C120.814 108.639 117.433 111.097 117.433 114.136C117.433 117.174 120.858 119.588 125.04 119.588Z" fill="#E60012"/>
<path d="M143.748 118.895C142.413 118.091 140.678 118.493 139.877 119.834C139.833 119.901 135.362 127.073 125.085 127.073C114.807 127.073 110.47 120.146 110.27 119.834C109.447 118.515 107.734 118.091 106.399 118.917C105.064 119.744 104.642 121.487 105.465 122.805C105.709 123.207 111.671 132.748 125.085 132.748C138.498 132.748 144.46 123.207 144.704 122.805C145.505 121.465 145.105 119.722 143.77 118.917" fill="#E60012"/>
<path d="M164.436 85.1113C162.345 83.2121 160.054 81.1341 157.585 79.503C153.625 76.8218 149.933 74.431 145.239 73.3585C144.127 73.0903 143.037 73.1797 141.902 73.0903C140.656 73.3808 139.277 73.6489 138.232 74.1852C131.892 77.7602 131.336 85.7593 135.273 91.8145C137.72 95.5682 141.502 98.2495 144.505 101.556C147.686 105.042 149.821 108.662 154.47 110.695C157.407 111.946 161.166 111.723 164.058 109.935C167.128 108.058 169.441 105.511 170.153 101.936C171.51 95.5682 169.018 89.2896 164.414 85.1337M145.639 94.8309C144.149 94.8309 142.97 93.6913 142.97 92.2166C142.97 90.742 144.127 89.5801 145.639 89.5801C147.152 89.5801 148.264 90.742 148.264 92.2166C148.264 93.6913 147.107 94.8309 145.639 94.8309Z" fill="#E60012"/>
<path d="M114.83 91.792C118.79 85.7368 118.212 77.7154 111.872 74.1627C110.826 73.6265 109.469 73.3583 108.202 73.0679C107.067 73.1796 105.999 73.0679 104.865 73.336C100.171 74.4085 96.5008 76.7993 92.519 79.4805C90.0721 81.1116 87.7809 83.1896 85.6677 85.0888C81.063 89.2448 78.5716 95.5234 79.9285 101.891C80.6404 105.466 82.9538 108.014 86.0236 109.89C88.9154 111.678 92.6747 111.901 95.611 110.65C100.26 108.617 102.396 104.997 105.577 101.512C108.58 98.2047 112.339 95.5234 114.808 91.7697M101.884 92.2165C101.884 90.7418 103.041 89.58 104.509 89.58C105.977 89.58 107.178 90.7418 107.178 92.2165C107.178 93.6912 105.999 94.8308 104.509 94.8308C103.019 94.8308 101.884 93.6912 101.884 92.2165Z" fill="#E60012"/>
<path d="M133.961 153.997H116.165C111.271 153.997 110.403 150.154 110.292 148.3C105.154 147.741 100.327 146.892 95.7887 145.797C90.5612 153.439 85.4449 164.097 81.2852 179.023C81.0627 179.827 80.7736 180.788 80.4176 181.905C77.5481 191.289 71.542 210.795 81.3742 224.157C88.6037 233.988 103.307 238.971 125.085 238.971C146.863 238.971 161.566 233.988 168.774 224.157C178.606 210.773 172.622 191.267 169.73 181.905C169.396 180.788 169.085 179.827 168.863 179.023C164.703 164.075 159.609 153.416 154.426 145.775C149.866 146.87 145.016 147.719 139.855 148.277C139.722 150.11 138.877 153.975 133.983 153.975" fill="white"/>
<path d="M138.165 143.496H126.998V151.204H138.165V143.496Z" fill="white"/>
<path d="M139.767 172.632C137.965 168.23 133.004 164.924 126.998 164.32C126.353 164.253 125.708 164.208 125.063 164.208C124.929 164.208 124.796 164.208 124.64 164.208C123.839 164.208 123.061 164.298 122.282 164.387C116.632 165.192 112.072 168.387 110.337 172.587" fill="white"/>
<path d="M135.607 168.23L133.338 166.912C133.026 166.733 132.604 166.845 132.426 167.158L131.113 169.437C131.024 169.593 131.002 169.772 131.047 169.951C131.091 170.129 131.202 170.264 131.358 170.353L133.627 171.671C133.627 171.671 133.849 171.761 133.961 171.761C134.183 171.761 134.428 171.649 134.539 171.425L135.852 169.169C135.94 169.012 135.963 168.834 135.918 168.655C135.874 168.476 135.763 168.342 135.607 168.253M132.604 169.526L133.249 168.409L134.361 169.057L133.716 170.152L132.604 169.504V169.526Z" fill="#E60012"/>
<path d="M119.457 168.945L117.054 167.917C116.898 167.85 116.698 167.85 116.543 167.917C116.387 167.984 116.253 168.119 116.187 168.275L115.163 170.688C115.097 170.844 115.097 171.046 115.163 171.202C115.23 171.358 115.364 171.492 115.519 171.559L117.922 172.587C117.922 172.587 118.077 172.632 118.166 172.632H118.211C118.478 172.632 118.7 172.476 118.811 172.23L119.835 169.817C119.968 169.482 119.835 169.079 119.479 168.945M116.654 170.599L117.143 169.414L118.322 169.906L117.833 171.09L116.654 170.599Z" fill="#E60012"/>
<path d="M122.304 165.951C121.592 165.951 121.014 166.532 121.014 167.269C121.014 168.007 121.592 168.565 122.304 168.588C123.016 168.588 123.616 168.007 123.616 167.269C123.616 166.532 123.038 165.951 122.304 165.951Z" fill="#E60012"/>
<path d="M127.665 169.75C127.42 169.75 127.198 169.839 126.998 169.973C126.731 170.152 126.531 170.42 126.442 170.733C126.419 170.844 126.375 170.956 126.375 171.068C126.375 171.783 126.953 172.386 127.687 172.386C128.422 172.386 129 171.805 129 171.068C129 170.33 128.422 169.75 127.687 169.75" fill="#E60012"/>
<path d="M145.127 177.369H98.8135V177.503C98.8135 180.81 100.326 185.212 113.384 185.212H136.741C149.798 185.212 151.311 180.81 151.311 177.503V177.369H145.105H145.127Z" fill="white"/>
<path d="M153.669 172.632H144.727C142.836 165.638 135.74 160.276 126.998 159.561V155.919H140.522C141.835 155.919 142.88 154.869 142.88 153.55V141.105C142.88 139.786 141.835 138.736 140.522 138.736H124.64C123.349 138.736 122.282 139.786 122.282 141.105V159.65C113.94 160.611 107.222 165.839 105.398 172.61H96.4556C95.1654 172.61 94.0977 173.682 94.0977 174.978V177.481C94.0977 183.156 97.4566 189.926 113.384 189.926H136.741C152.69 189.926 156.027 183.156 156.027 177.481V174.978C156.027 173.682 154.981 172.61 153.669 172.61M126.998 143.496H138.164V151.204H126.998V143.496ZM122.282 164.432C123.06 164.32 123.839 164.253 124.64 164.231C124.773 164.231 124.907 164.231 125.062 164.231C125.73 164.231 126.375 164.275 126.998 164.342C133.004 164.946 137.964 168.23 139.766 172.632H118.189C118.189 172.632 118.189 172.632 118.166 172.632H110.359C112.071 168.431 116.654 165.236 122.304 164.432M151.311 177.525C151.311 180.832 149.798 185.234 136.741 185.234H113.384C100.326 185.234 98.8135 180.832 98.8135 177.525V177.391H151.311V177.525Z" fill="#E60012"/>
<path d="M214.642 185.1H35.4829C34.1927 185.1 33.125 186.15 33.125 187.468V274.587C33.125 275.883 34.1927 276.955 35.4829 276.955H45.849C47.1392 276.955 48.2069 275.883 48.2069 274.587V200.249H64.5567C56.3707 205.79 52.5001 217.386 59.396 229.229C61.5315 232.915 63.9339 236.133 66.4698 238.769H61.576C60.2858 238.769 59.218 239.82 59.218 241.138V250.902C59.218 252.198 60.2858 253.271 61.576 253.271H71.2302C70.8742 254.254 70.4961 255.282 70.1402 256.242C66.4698 266.565 65.4465 270.766 66.9147 273.738C67.6043 275.123 68.8277 276.084 70.5851 276.62C71.3859 276.866 72.1422 276.977 72.854 276.977C77.6144 276.977 80.395 271.458 85.0663 261.27C86.2676 258.678 87.4465 255.974 88.6255 253.293H161.477C162.656 255.997 163.857 258.678 165.036 261.27C169.707 271.458 172.488 276.977 177.248 276.977C177.96 276.977 178.717 276.866 179.517 276.62C181.252 276.084 182.498 275.123 183.188 273.738C184.678 270.766 183.633 266.565 179.962 256.242C179.629 255.259 179.228 254.254 178.872 253.271H188.549C189.839 253.271 190.907 252.22 190.907 250.902V241.138C190.907 239.842 189.861 238.769 188.549 238.769H183.633C186.168 236.111 188.549 232.915 190.706 229.229C197.602 217.386 193.754 205.79 185.568 200.249H201.918V274.587C201.918 275.883 202.985 276.955 204.276 276.955H214.642C215.932 276.955 217 275.883 217 274.587V187.468C217 186.172 215.932 185.1 214.642 185.1ZM164.013 200.249C160.009 202.93 156.561 207.22 154.448 213.186C151.111 222.57 151.133 232.223 154.826 238.792H95.2989C98.9915 232.245 99.0138 222.57 95.6771 213.186C93.5416 207.22 90.1159 202.93 86.0896 200.249H164.013ZM80.7954 259.303C75.4566 270.922 73.9218 272.687 71.9642 272.106C71.2746 271.883 71.1634 271.704 71.1412 271.637C70.2959 269.961 72.9875 262.387 74.5891 257.873C75.123 256.376 75.7013 254.835 76.2575 253.315H83.487C82.5972 255.326 81.7074 257.36 80.7954 259.326M179.006 271.615C179.006 271.615 178.872 271.883 178.183 272.084C176.247 272.687 174.69 270.9 169.351 259.281C168.462 257.315 167.572 255.282 166.66 253.271H173.867C174.423 254.79 175.002 256.332 175.536 257.829C177.137 262.342 179.829 269.917 178.983 271.593M186.213 243.529V248.556H63.9339V243.529H72.1199C77.2807 246.858 82.7974 247.774 88.1584 245.406C89.2928 244.914 90.3161 244.266 91.2504 243.529H158.874C159.809 244.266 160.832 244.892 161.966 245.406C167.327 247.774 172.844 246.858 178.005 243.529H186.191H186.213Z" fill="#E60012"/>
</g>
</g>
<defs>
<clipPath id="clip0_895_11585">
<rect width="251" height="194" fill="white"/>
</clipPath>
<clipPath id="clip1_895_11585">
<rect width="198" height="245" fill="white" transform="translate(19 32)"/>
</clipPath>
</defs>
</svg>
