<svg width="40" height="40" viewBox="0 0 40 40" fill="none" xmlns="http://www.w3.org/2000/svg">
<path d="M35.8044 19.556H34.7564C34.3244 17.504 32.2524 15.948 29.6524 15.788C28.9404 13.892 26.7844 12.564 24.2804 12.564C23.7244 12.568 23.1724 12.64 22.6324 12.78C21.4964 11.888 20.0884 11.412 18.6404 11.428C16.7684 11.38 14.9804 12.208 13.8084 13.672C10.9764 13.616 8.54438 15.34 8.14438 17.568C6.59638 17.676 5.15238 18.392 4.12838 19.56H2.19637C1.80437 19.56 1.48438 19.876 1.48438 20.272V22.732C1.49238 28.496 4.97638 33.688 10.3084 35.876V37.188C10.3084 38.68 11.5204 39.892 13.0124 39.892H24.9804C26.4724 39.892 27.6844 38.68 27.6844 37.188V35.876C33.0164 33.688 36.5004 28.496 36.5084 22.732V20.272C36.5084 19.88 36.1924 19.56 35.7964 19.56L35.8044 19.556ZM8.76838 18.952C9.15638 18.964 9.48438 18.66 9.49638 18.272C9.49638 18.264 9.49638 18.256 9.49638 18.248C9.45238 16.368 11.8004 14.888 14.1444 15.104C14.4044 15.112 14.6484 14.976 14.7804 14.752C15.6524 13.492 17.1124 12.776 18.6404 12.848C19.8564 12.82 21.0404 13.252 21.9524 14.064C22.0484 14.144 22.1604 14.2 22.2804 14.228C22.9444 14.256 23.5844 13.92 24.2804 13.984C26.4364 13.988 28.1444 15.184 28.4964 16.796C28.6204 17.04 28.8724 17.192 29.1484 17.188C31.0964 17.164 32.8084 18.184 33.2804 19.556H6.32838C7.07638 19.156 7.91638 18.948 8.76438 18.952H8.76838ZM26.2684 37.184C26.2684 37.892 25.6924 38.468 24.9844 38.468H13.0164C12.3084 38.468 11.7324 37.892 11.7324 37.184V36.364C13.0204 36.744 14.3564 36.936 15.6964 36.936H22.3084C23.6484 36.936 24.9844 36.74 26.2724 36.364V37.184H26.2684ZM35.0924 22.728C35.0844 29.788 29.3644 35.508 22.3044 35.516H15.6924C7.82838 35.516 2.18838 28.668 2.90438 20.976C2.92438 20.976 4.44838 20.972 4.46438 20.976C4.47238 20.968 34.1044 20.976 34.1204 20.976C34.1364 20.976 34.1524 20.976 34.1644 20.976H35.0924V22.724V22.728Z" fill="white"/>
<path d="M13.1202 8.22799C12.8842 8.53999 12.9442 8.98799 13.2562 9.22399C13.5602 9.45599 13.9922 9.40399 14.2362 9.10799C15.3442 7.71199 15.2722 5.71999 14.0722 4.40799C13.2642 3.52399 13.3122 2.15199 14.1762 1.32399C14.4522 1.04399 14.4522 0.595994 14.1762 0.319994C13.9042 0.0519939 13.4722 0.0439939 13.1922 0.303994C11.7682 1.66799 11.6962 3.91599 13.0242 5.36799C13.7522 6.16799 13.7922 7.37999 13.1202 8.22799Z" fill="white"/>
<path d="M18.58 8.22799C18.344 8.53999 18.404 8.98799 18.716 9.22399C19.02 9.45599 19.452 9.40399 19.696 9.10799C20.804 7.71199 20.736 5.71999 19.536 4.40799C18.728 3.52399 18.772 2.15199 19.64 1.32399C19.916 1.04799 19.916 0.595994 19.64 0.319994C19.368 0.0519939 18.936 0.0439939 18.656 0.303994C17.232 1.66399 17.16 3.91599 18.488 5.36799C19.216 6.16799 19.256 7.37999 18.584 8.22799H18.58Z" fill="white"/>
<path d="M24.0401 8.22799C23.8041 8.53999 23.8641 8.98799 24.1761 9.22399C24.4801 9.45599 24.9121 9.40399 25.1561 9.10799C26.2641 7.71199 26.1921 5.71999 24.9921 4.40799C24.1841 3.52399 24.2281 2.15199 25.0961 1.32399C25.3721 1.04799 25.3721 0.595994 25.0961 0.319994C24.8241 0.0519939 24.3921 0.0439939 24.1121 0.303994C22.6881 1.66399 22.6161 3.91599 23.9441 5.36799C24.6721 6.16799 24.7121 7.37999 24.0401 8.22799Z" fill="white"/>
</svg>
