<svg width="41" height="42" viewBox="0 0 41 42" fill="none" xmlns="http://www.w3.org/2000/svg">
<g clip-path="url(#clip0_200_3361)">
<path d="M33.4762 27.7872C33.5582 29.526 33.3163 31.332 32.7997 33.0036H31.8854C32.3528 31.5126 32.5332 29.841 32.197 28.3584C32.6357 28.2282 33.0662 28.035 33.4762 27.7872ZM19.2451 26.6658H19.2615C19.5239 28.7322 19.3025 30.9666 18.6793 33.0036H17.7445C18.3472 31.1094 18.4825 28.896 17.6994 27.2034C18.1258 26.8674 18.6547 26.6742 19.2451 26.6658ZM30.8276 25.4814C30.9793 25.473 31.131 25.4772 31.2786 25.4814C32.1437 25.536 32.9104 25.8258 33.509 26.3886C32.689 27.0186 31.8403 27.3756 31.008 27.4134C30.0855 27.4554 29.1425 27.132 28.1749 26.2584C29.0564 25.7796 29.9748 25.5108 30.8317 25.4772L30.8276 25.4814ZM7.05173 10.605C7.52324 10.6134 7.97424 10.7436 8.34324 10.9578C8.15053 11.2014 7.98243 11.487 7.84303 11.823C7.53143 12.537 8.60153 12.9948 8.87624 12.264C9.15093 11.5878 9.47894 11.319 9.90533 11.1342C10.139 11.0376 10.4834 11.025 10.7827 10.983C10.7376 11.2812 10.7417 11.6424 10.631 11.8356C10.426 12.1884 10.1103 12.453 9.28623 12.5412C8.49903 12.579 8.62204 13.8054 9.40104 13.6752C10.3768 13.5702 11.0861 13.1544 11.4961 12.5706L15.1205 11.655C17.1008 11.1552 17.9864 11.4534 19.6592 11.739C21.3361 12.0246 23.6772 12.2682 28.179 11.5794C33.4065 10.7814 36.3134 12.978 37.322 15.8634C37.9739 17.7324 38.0518 19.551 37.3138 21.1638C36.6414 22.6422 36.9653 24.0156 37.3712 25.1706C37.7771 26.3256 38.2199 27.3252 38.1092 28.2618L37.4327 33.789H36.2109L36.4118 33.2346C36.4282 33.1842 36.4405 33.1296 36.4446 33.075L36.625 30.4752C36.7275 29.0052 35.9034 27.909 35.0342 26.5062C34.1937 25.1454 32.812 24.4398 31.3401 24.3516C29.8682 24.2634 28.2938 24.7464 26.8998 25.704C25.7108 26.523 23.9068 27.1194 21.045 25.9014C18.585 24.8556 16.0389 26.2626 15.592 28.7532L14.6859 33.789H13.4395L13.6404 33.2346C13.6609 33.18 13.6732 33.1212 13.6773 33.0624L13.9479 27.9174C14.0012 26.9262 13.7142 26.0778 13.2673 25.3638C12.8163 24.654 12.2177 24.0576 11.6027 23.4444C10.4137 22.2516 9.15913 21.0168 8.55644 18.921C9.09354 18.6396 9.54043 18.312 9.88074 18.0264C10.4588 17.5476 9.74543 16.6572 9.17144 17.1444C7.96194 18.165 6.96564 18.3624 6.01033 18.4002C5.05504 18.438 4.12844 18.2322 3.18544 18.5724C2.14404 18.9504 1.57824 18.6354 1.29534 18.2406C1.01654 17.85 1.01654 17.3712 1.37323 17.0646C2.36953 16.2036 2.94354 15.3384 3.39044 14.4816C3.83324 13.629 4.16124 12.789 4.69834 11.8944C5.25184 10.9704 6.17844 10.5966 7.04764 10.6134L7.05173 10.605ZM7.03123 9.44159C6.89183 9.44159 6.75653 9.44579 6.61713 9.45839C5.52243 9.56759 4.43594 10.143 3.75534 11.2812C3.16084 12.2682 2.82054 13.1418 2.41054 13.9272C2.00054 14.7126 1.53724 15.4182 0.659835 16.1826C-0.151965 16.884 -0.184765 18.0894 0.397435 18.9042C0.975535 19.7148 2.17274 20.139 3.55854 19.6392C4.10384 19.4418 4.95254 19.5552 6.05544 19.53C6.92464 19.5132 7.05583 19.4418 7.51913 19.3284C8.22023 21.6636 9.65934 23.0874 10.8278 24.255C11.4387 24.8682 11.9758 25.4184 12.3325 25.9812C12.6892 26.544 12.8778 27.0984 12.8368 27.8418L12.5662 32.9028L12.1111 34.1502C11.9717 34.524 12.2423 34.9272 12.6359 34.923H15.1574C15.428 34.923 15.6576 34.7256 15.7068 34.4568L16.6949 28.9464C16.74 28.6986 16.8097 28.4676 16.904 28.2534C17.3427 29.7486 17.2033 31.8234 16.5637 33.3396C16.4038 33.7176 16.6744 34.1418 17.0762 34.1418H19.1795C19.4173 34.1418 19.6305 33.9864 19.7084 33.7596C20.4546 31.5546 20.6678 29.1354 20.4177 26.8716C20.4833 26.8968 20.553 26.9178 20.6186 26.9472C23.5255 28.1862 25.7149 27.7158 27.1704 26.859C28.2077 27.9972 29.8026 28.5852 31.09 28.5432C31.4426 30.0048 31.2704 31.9158 30.6718 33.3396C30.5119 33.7176 30.7825 34.1418 31.1843 34.1418H33.2958C33.5336 34.1418 33.7468 33.9864 33.8206 33.7596C34.4561 31.8906 34.6939 29.8746 34.6078 27.93C35.2023 28.896 35.5672 29.6058 35.518 30.387L35.3458 32.9028L34.8825 34.1586C34.7431 34.5324 35.0178 34.9356 35.4073 34.9314H37.9288C38.2158 34.9314 38.4536 34.7172 38.4864 34.4274L39.2244 28.4004C39.3802 27.0354 38.8103 25.8678 38.429 24.7842C38.0477 23.7006 37.8222 22.764 38.3306 21.651C38.4413 21.4074 38.4331 21.1218 38.5274 20.8782C38.8349 22.4196 39.1916 23.9862 39.9337 25.2798C40.2945 26.0022 41.3359 25.3722 40.8931 24.7002C39.9583 23.079 39.6549 20.7648 39.1178 18.5262L39.0071 18.0684C38.798 17.1948 38.6832 16.2708 38.3798 15.4896C37.2482 12.0624 33.6074 9.59699 28.015 10.4538C23.6075 11.1258 21.4632 10.8906 19.8478 10.6176C18.2324 10.3446 17.0229 10.0044 14.8581 10.5504L11.9676 11.277C12.0127 10.9452 12.025 10.6134 12.025 10.29C12.025 9.96659 11.7462 9.69779 11.4223 9.71879C10.8114 9.76499 10.1349 9.80279 9.47894 10.08C9.40104 10.1136 9.32313 10.1514 9.24523 10.1934C8.62613 9.70619 7.83483 9.44579 7.02303 9.44159H7.03123Z" fill="white"/>
</g>
<defs>
<clipPath id="clip0_200_3361">
<rect width="41" height="42" fill="white"/>
</clipPath>
</defs>
</svg>
