<svg width="37" height="37" viewBox="0 0 37 37" fill="none" xmlns="http://www.w3.org/2000/svg">
<g clip-path="url(#clip0_200_3363)">
<path d="M18.4996 37C16.1094 37 14.1632 35.0538 14.1632 32.6636C14.1632 27.8425 11.0885 23.9131 8.20623 20.6053C6.75583 18.944 6.20453 16.8017 6.76323 15.0146C7.15913 13.7492 8.04713 12.7798 9.31253 12.21C8.39863 10.7374 8.30613 8.8985 9.12013 7.2779C9.57523 6.3677 10.2708 5.6277 11.1329 5.1356C11.8433 4.7286 12.6425 4.514 13.475 4.4955C13.5934 3.3966 14.0707 2.3754 14.8477 1.5577C15.8097 0.555 17.1047 0 18.4996 0C19.8945 0 21.1932 0.555 22.1552 1.5614C22.9359 2.3754 23.4095 3.4003 23.5279 4.4992C24.3604 4.5177 25.1596 4.7323 25.87 5.1393C26.7284 5.6314 27.424 6.3714 27.8828 7.2816C28.6968 8.9022 28.6043 10.7411 27.6904 12.2137C28.9521 12.7835 29.8438 13.7529 30.2397 15.0183C30.7984 16.8054 30.2434 18.9477 28.7967 20.609C25.9144 23.9168 22.8397 27.8462 22.8397 32.6673C22.8397 35.0575 20.8935 37.0037 18.5033 37.0037L18.4996 37ZM13.5749 5.9385C11.9876 5.9385 10.9109 6.9301 10.4077 7.9254C9.84903 9.0391 9.71583 10.7078 11.0145 12.0583C11.1921 12.2433 11.2587 12.5097 11.1884 12.7576C11.1181 13.0055 10.922 13.1979 10.6704 13.2608C9.35693 13.5938 8.48373 14.3486 8.13963 15.4438C7.72893 16.7536 8.17293 18.3668 9.29403 19.6544C12.3502 23.1583 15.6062 27.343 15.6062 32.6599C15.6062 34.2546 16.9012 35.5496 18.4959 35.5496C20.0906 35.5496 21.3856 34.2546 21.3856 32.6599C21.3856 27.3393 24.6453 23.1583 27.6978 19.6544C28.8189 18.3668 29.2629 16.7536 28.8522 15.4438C28.5081 14.3486 27.6349 13.5901 26.3214 13.2608C26.0735 13.1979 25.8737 13.0055 25.8034 12.7576C25.7331 12.5097 25.7997 12.2433 25.9773 12.0583C27.276 10.7078 27.1428 9.0354 26.5841 7.9254C26.0328 6.8265 24.7785 5.735 22.9174 5.9718C22.7065 5.9977 22.4956 5.9311 22.3365 5.7868C22.1811 5.6425 22.096 5.4353 22.1034 5.2244C22.1478 4.2254 21.7926 3.2819 21.1044 2.5604C20.4162 1.8426 19.4912 1.4467 18.4959 1.4467C17.5006 1.4467 16.5719 1.8426 15.8874 2.5604C15.1992 3.2819 14.844 4.2254 14.8884 5.2244C14.8995 5.439 14.8144 5.6425 14.6553 5.7868C14.4999 5.9311 14.2853 5.9977 14.0744 5.9718C13.9005 5.9496 13.734 5.9385 13.5712 5.9385H13.5749Z" fill="white"/>
<path d="M14.8849 33.3851C14.5889 33.3851 14.3151 33.2038 14.2078 32.9115C13.7231 31.5832 12.3652 30.0884 10.1711 28.4715C8.18051 27.0026 5.81621 25.6484 3.76271 24.5199C1.83131 23.458 0.573314 21.6339 0.484514 19.7654C0.421614 18.4408 0.921114 17.2235 1.91271 16.2541C0.547414 15.1885 -0.170386 13.4939 0.033114 11.692C0.147814 10.6819 0.547414 9.74578 1.18381 8.99097C1.71291 8.36567 2.38631 7.88838 3.16331 7.58498C2.89691 6.51198 2.99311 5.39088 3.44451 4.35488C4.00321 3.07838 5.03181 2.11267 6.33791 1.63167C7.64771 1.15067 9.05741 1.22467 10.308 1.83887C11.5586 2.45307 12.4836 3.52608 12.9017 4.85808C13.0238 5.23918 12.8129 5.64617 12.4318 5.76458C12.0507 5.88668 11.6437 5.67578 11.5253 5.29468C11.2256 4.34378 10.567 3.57787 9.67161 3.13757C8.77991 2.70097 7.77351 2.64547 6.83741 2.98957C5.90131 3.33367 5.16871 4.02188 4.76911 4.93208C4.36951 5.84597 4.36211 6.85608 4.74691 7.77738C4.82831 7.97348 4.82091 8.19548 4.72471 8.38788C4.62851 8.57658 4.45091 8.71348 4.24371 8.76158C2.41221 9.18338 1.60931 10.6375 1.47241 11.8585C1.33181 13.0943 1.77951 14.7112 3.46301 15.5326C3.69611 15.6473 3.84781 15.873 3.86631 16.1283C3.88481 16.3836 3.76641 16.6315 3.55181 16.7758C2.43441 17.538 1.87201 18.5481 1.92751 19.6988C1.99411 21.0715 2.96351 22.4331 4.45831 23.2545C9.49771 26.0258 14.3336 29.0561 15.5657 32.4157C15.7026 32.7894 15.5102 33.2038 15.1365 33.3444C15.0551 33.374 14.97 33.3888 14.8886 33.3888L14.8849 33.3851Z" fill="white"/>
<path d="M22.1148 33.3851C22.0334 33.3851 21.9483 33.3703 21.8669 33.3407C21.4932 33.2038 21.3008 32.7894 21.4377 32.412C22.6698 29.0524 27.502 26.0221 32.5451 23.2508C34.0399 22.4294 35.0093 21.0641 35.0759 19.6951C35.1314 18.5481 34.569 17.538 33.4516 16.7721C33.2407 16.6278 33.1186 16.3799 33.1371 16.1246C33.1556 15.8693 33.311 15.6399 33.5404 15.5289C35.2239 14.7075 35.6753 13.0943 35.531 11.8548C35.3904 10.6338 34.5912 9.17971 32.7597 8.75791C32.5525 8.70981 32.3749 8.57291 32.2787 8.38421C32.1825 8.19551 32.1714 7.97351 32.2565 7.77371C32.6413 6.85241 32.6339 5.84231 32.2343 4.92841C31.8347 4.01821 31.1021 3.32631 30.166 2.98591C29.2299 2.64181 28.2235 2.69731 27.3318 3.13391C26.4364 3.57421 25.7778 4.34011 25.4781 5.29101C25.356 5.67211 24.9527 5.88301 24.5716 5.76091C24.1905 5.63881 23.9796 5.23551 24.1017 4.85441C24.5235 3.52241 25.4448 2.44941 26.6954 1.83521C27.946 1.22101 29.3557 1.14701 30.6655 1.62801C31.9753 2.10901 33.0039 3.07471 33.5589 4.35121C34.0103 5.38351 34.1028 6.50831 33.8401 7.58131C34.6171 7.88471 35.2905 8.36201 35.8196 8.98731C36.456 9.74211 36.8556 10.6782 36.9703 11.6883C37.1775 13.4902 36.456 15.1848 35.0944 16.2541C36.086 17.2235 36.5855 18.4408 36.5226 19.7654C36.4338 21.6339 35.1758 23.458 33.2444 24.5199C31.1909 25.6484 28.8229 27.0026 26.836 28.4715C24.6419 30.0921 23.284 31.5869 22.7993 32.9115C22.692 33.2038 22.4145 33.3851 22.1222 33.3851H22.1148Z" fill="white"/>
<path d="M18.4998 33.3851C18.1002 33.3851 17.7783 33.0632 17.7783 32.6636V5.25397C17.7783 4.85437 18.1002 4.53247 18.4998 4.53247C18.8994 4.53247 19.2213 4.85437 19.2213 5.25397V32.6636C19.2213 33.0632 18.8994 33.3851 18.4998 33.3851Z" fill="white"/>
<path d="M18.4999 14.3486C18.3334 14.3486 18.1669 14.2894 18.03 14.1784L14.0303 10.7781C13.7269 10.5191 13.6899 10.064 13.9489 9.76059C14.2079 9.45719 14.663 9.42019 14.9664 9.67919L18.4962 12.6799L22.026 9.67919C22.3294 9.42019 22.7845 9.45719 23.0435 9.76059C23.3025 10.064 23.2655 10.5191 22.9621 10.7781L18.9624 14.1784C18.8292 14.2931 18.6627 14.3486 18.4925 14.3486H18.4999Z" fill="white"/>
<path d="M18.4999 23.1879C18.3334 23.1879 18.1669 23.1324 18.03 23.0177L11.999 17.8895C11.6956 17.6305 11.6586 17.1754 11.9176 16.872C12.1766 16.5686 12.6317 16.5316 12.9351 16.7906L18.4999 21.5192L24.0647 16.7906C24.3681 16.5316 24.8232 16.5686 25.0822 16.872C25.3412 17.1754 25.3042 17.6305 25.0008 17.8895L18.9698 23.0177C18.8366 23.1324 18.6701 23.1879 18.4999 23.1879Z" fill="white"/>
</g>
<defs>
<clipPath id="clip0_200_3363">
<rect width="37" height="37" fill="white"/>
</clipPath>
</defs>
</svg>
