<svg width="21" height="46" viewBox="0 0 21 46" fill="none" xmlns="http://www.w3.org/2000/svg">
<path d="M10.901 45.8494C11.0107 45.7438 11.0678 45.5985 11.0721 45.4445V35.7132C15.5171 36.6551 19.8875 33.7943 20.8221 29.3313C21.0898 28.0638 21.0547 26.7566 20.7212 25.5066C20.6686 25.3086 20.515 25.1545 20.3175 25.1017C19.5233 24.8904 18.7072 24.8024 17.8866 24.8332C19.7164 22.9231 20.4097 20.1898 19.7076 17.6371C19.655 17.439 19.5014 17.285 19.3039 17.2322C18.6019 17.0429 17.8735 16.9549 17.1407 16.9769C18.6633 15.3044 19.2337 12.9673 18.6545 10.7755C18.6019 10.5774 18.4483 10.4234 18.2508 10.3706C16.8949 10.0096 15.4601 10.0889 14.1525 10.595C14.622 9.53871 14.8721 8.39437 14.8765 7.23683C14.8677 4.28356 13.2924 1.55916 10.7474 0.0759224C10.5719 -0.0253075 10.3525 -0.0253075 10.177 0.0759224C6.51308 2.17974 5.04313 6.72628 6.77197 10.5862C5.46437 10.0845 4.0339 10.0052 2.67803 10.3662C2.48057 10.419 2.32699 10.573 2.27434 10.7711C1.69513 12.9629 2.26556 15.2956 3.78818 16.9725C3.05978 16.9505 2.33138 17.0341 1.62492 17.2278C1.42747 17.2806 1.27389 17.4346 1.22123 17.6327C0.54549 20.1943 1.2695 22.9231 3.11682 24.8156C2.29628 24.7804 1.48012 24.8728 0.685904 25.0841C0.488447 25.1369 0.334869 25.291 0.282214 25.489C-0.893753 29.8947 1.71268 34.4236 6.10501 35.6076C7.35118 35.9421 8.65878 35.9773 9.92251 35.7132L9.89618 45.4269C9.89618 45.7438 10.1507 45.9991 10.4622 45.9991C10.4622 45.9991 10.4622 45.9991 10.4666 45.9991C10.6202 46.0079 10.7694 45.955 10.8835 45.8538L10.901 45.8494ZM19.6857 26.1052C20.5194 29.9519 18.0885 33.7458 14.2578 34.5821C13.2617 34.7977 12.2306 34.7977 11.2345 34.5821C10.3964 30.7398 12.8186 26.9458 16.6492 26.1052C17.6497 25.8851 18.6852 25.8851 19.6857 26.1052ZM12.3403 27.2187C11.8444 27.7161 11.4188 28.2706 11.0634 28.878V26.937C11.5373 27.0295 12.0112 27.0735 12.4895 27.0779L12.3403 27.2187ZM18.7115 18.2665C19.4399 21.6907 17.2635 25.0577 13.8541 25.7883C12.9853 25.9732 12.0858 25.9732 11.217 25.7883C10.4886 22.3641 12.665 18.9971 16.0744 18.2665C16.9432 18.0816 17.8427 18.0816 18.7115 18.2665ZM12.1209 19.182C11.7216 19.5825 11.3705 20.027 11.0765 20.5067L11.0634 19.0499C11.4144 19.1203 11.7654 19.1599 12.1209 19.1687V19.1864V19.182ZM17.6453 11.4401C18.2552 14.4197 16.3377 17.3334 13.367 17.9452C12.6386 18.0948 11.8883 18.0948 11.1599 17.9452C10.55 14.9655 12.4675 12.0519 15.4381 11.4401C16.1665 11.2904 16.9169 11.2904 17.6453 11.4401ZM7.22393 7.27204C7.2327 4.84693 8.46133 2.58906 10.4973 1.27748C13.7883 3.3901 14.7449 7.78259 12.6386 11.0792C12.213 11.7482 11.6777 12.3379 11.0546 12.8309V6.37418C11.0283 6.06169 10.7562 5.82402 10.4447 5.85042C10.1638 5.87243 9.94445 6.0969 9.92251 6.37418V12.8309C8.22877 11.4841 7.24148 9.43748 7.22832 7.27204H7.22393ZM3.34938 11.4401C6.32001 10.8283 9.22483 12.7517 9.83475 15.7313C9.98394 16.462 9.98394 17.2146 9.83475 17.9452C6.86412 18.557 3.95931 16.6336 3.34938 13.6539C3.20019 12.9233 3.20019 12.1707 3.34938 11.4401ZM9.93567 19.0455V20.5023C9.64168 20.0226 9.29065 19.5781 8.89135 19.1776C9.24238 19.1643 9.58903 19.1159 9.93567 19.0455ZM2.29189 18.2753C5.7057 17.5447 9.06248 19.7277 9.79087 23.1475C9.97517 24.019 9.97517 24.9212 9.79087 25.7927C6.37706 26.5233 3.02029 24.3403 2.29189 20.9205C2.1076 20.049 2.1076 19.1467 2.29189 18.2753ZM3.23529 32.6719C1.53278 30.951 0.813154 28.4863 1.31777 26.1184C5.14844 25.2777 8.93084 27.7073 9.76893 31.5496C9.98833 32.5531 9.98833 33.5918 9.76893 34.5953C7.40384 35.1014 4.9422 34.3796 3.22652 32.6675L3.23529 32.6763V32.6719ZM8.66317 27.2231L8.51837 27.0779C8.99666 27.0779 9.47055 27.0295 9.94006 26.937V28.878C9.58903 28.2706 9.15462 27.7117 8.6544 27.2143L8.66317 27.2231Z" fill="white"/>
</svg>
