<svg width="44" height="44" viewBox="0 0 44 44" fill="none" xmlns="http://www.w3.org/2000/svg">
<g clip-path="url(#clip0_201_3388)">
<path d="M37.5496 6.4504C33.4004 2.2836 27.8784 0 22 0C16.1216 0 10.5996 2.2836 6.4504 6.4504C2.2968 10.6128 0 16.1216 0 22C0 27.8784 2.2836 33.4004 6.4504 37.5496C10.6128 41.7032 16.1304 44 22 44C27.8696 44 33.4004 41.7164 37.5496 37.5496C41.6988 33.3828 44 27.8696 44 22C44 16.1304 41.7164 10.5996 37.5496 6.4504ZM41.0036 29.6428C36.7928 30.0696 32.8768 31.6624 29.5768 34.2804C28.9784 32.8944 28.248 31.57 27.3768 30.3248C31.5876 27.4428 36.7928 26.2372 41.8748 26.9588C41.6372 27.8872 41.3512 28.7804 41.0036 29.6428ZM23.8392 28.468C27.1964 31.8252 29.282 36.2516 29.7396 40.9684C28.6792 41.404 27.566 41.756 26.4308 42.0024C25.4716 38.104 23.4828 34.5488 20.6184 31.6844C15.6772 26.7432 8.6988 24.4596 1.8128 25.4848C1.7292 24.992 1.6632 24.4904 1.6148 23.9756C9.2884 20.856 17.952 22.5808 23.8436 28.4724L23.8392 28.468ZM26.466 29.1236C25.982 28.5252 25.4628 27.9488 24.9128 27.3988C24.3892 26.8752 23.8392 26.3824 23.2804 25.9204C28.9036 22.154 36.0932 21.4236 42.3896 23.9844C42.3412 24.486 42.2752 24.9876 42.1916 25.4848C36.6828 24.6708 31.0288 25.9776 26.4704 29.128L26.466 29.1236ZM22 1.518C33.2948 1.518 42.482 10.7052 42.482 22C42.482 22.132 42.482 22.2552 42.4732 22.3872C35.948 19.9012 28.6 20.68 22.7568 24.4376V16.038C24.1032 15.9808 26.9764 15.6112 28.8728 13.706C31.416 11.1628 31.2136 6.9652 31.2048 6.7936C31.1872 6.4064 30.8748 6.1028 30.492 6.0808C30.4832 6.0808 30.3688 6.072 30.1708 6.072C29.1764 6.072 25.7532 6.2436 23.5796 8.4128C22.2904 9.702 21.7096 11.4092 21.4456 12.804C21.1596 12.32 20.8208 11.8668 20.4028 11.4488C18.2292 9.2752 14.806 9.108 13.8116 9.108C13.6136 9.108 13.4992 9.1168 13.4904 9.1168C13.1032 9.1344 12.7996 9.4468 12.7776 9.8296C12.7688 10.01 12.5708 14.2032 15.1096 16.742C17.0148 18.6472 19.8968 19.008 21.2344 19.074V24.442C18.8144 22.8888 16.1128 21.824 13.2484 21.3048C9.284 20.592 5.2448 20.9748 1.518 22.396C1.518 22.264 1.5092 22.1408 1.5092 22.0088C1.518 10.7052 10.7052 1.518 22 1.518ZM22.77 14.52C22.8272 13.3452 23.1484 10.9912 24.6576 9.4864C26.1668 7.9816 28.5164 7.6648 29.6912 7.5988C29.634 8.7736 29.3128 11.1276 27.8036 12.6324C26.2944 14.1372 23.9536 14.454 22.77 14.52ZM21.2212 17.5516C20.0464 17.4944 17.6924 17.1732 16.1876 15.664C14.6872 14.1636 14.366 11.8052 14.3088 10.6304C15.4836 10.6876 17.8376 11.0088 19.3424 12.518C20.8296 14.0184 21.1552 16.368 21.2212 17.5516ZM3.7356 31.2664C8.0784 31.9 12.1264 33.9196 15.2592 37.0524C16.8036 38.5968 18.0752 40.3524 19.0432 42.2664C12.3596 41.2984 6.6968 37.0788 3.74 31.2664H3.7356ZM20.8164 42.4468C19.7252 40.04 18.216 37.8664 16.3328 35.9788C12.7468 32.3928 8.0344 30.1576 3.0008 29.6516C2.6488 28.7892 2.354 27.896 2.1296 26.9764C8.5096 26.0568 14.9688 28.1908 19.5492 32.7624C22.1848 35.398 24.046 38.6804 24.9348 42.2752C23.9756 42.416 22.9988 42.482 21.9956 42.482C21.6084 42.482 21.208 42.4732 20.8208 42.4424L20.8164 42.4468ZM31.1872 40.2996C30.998 38.7552 30.646 37.2284 30.1444 35.7676C33.0572 33.3388 36.5156 31.8032 40.2644 31.262C38.2844 35.1516 35.0944 38.3284 31.1872 40.2996Z" fill="white"/>
</g>
<defs>
<clipPath id="clip0_201_3388">
<rect width="44" height="44" fill="white"/>
</clipPath>
</defs>
</svg>
