<svg width="40" height="43" viewBox="0 0 40 43" fill="none" xmlns="http://www.w3.org/2000/svg">
<path d="M39.7513 21.7205C39.6763 15.8176 38.6315 10.2938 36.9299 6.77141C37.0224 6.67001 37.1106 6.56421 37.1944 6.45841C38.9666 4.26299 39.3237 1.86478 38.0188 0.872877C37.6705 0.608369 37.2296 0.467298 36.7447 0.467298C35.5941 0.467298 34.2098 1.23437 33.0328 2.50842C30.1629 0.908144 25.75 0 20.7552 0C15.2358 0 9.97208 1.12416 6.74508 2.9669C5.5592 1.67081 4.15731 0.881694 2.99347 0.881694C2.50854 0.881694 2.06769 1.02276 1.71942 1.28727C0.414518 2.27477 0.767195 4.67738 2.54381 6.8728C2.63639 6.98742 2.72896 7.09763 2.82595 7.20785C1.06256 10.739 0.0133469 16.2717 0.000121517 22.1878C-0.0131039 28.2627 1.05375 33.4294 2.94498 36.5374C2.80391 36.6873 2.67165 36.8416 2.54381 37.0047C0.771604 39.2001 0.414518 41.6027 1.71942 42.5902C2.06769 42.8547 2.50854 42.9958 2.99347 42.9958C4.28074 42.9958 5.86338 42.0303 7.1198 40.4786C7.18593 40.3948 7.25205 40.3154 7.31377 40.2317C10.6818 41.7879 15.6546 42.7048 20.8257 42.7048C25.6662 42.7048 30.0174 41.8804 32.927 40.4301C34.1261 41.7658 35.5544 42.5814 36.7403 42.5814C37.2252 42.5814 37.6661 42.4403 38.0143 42.1758C39.3193 41.1883 38.9666 38.7857 37.19 36.5903C37.1503 36.5418 37.1106 36.4933 37.0709 36.4492C38.8475 33.1561 39.8174 27.8439 39.7425 21.7293L39.7513 21.7205ZM35.3075 36.1318C35.1136 36.4492 35.1621 36.8504 35.4178 37.1149C35.5721 37.2736 35.7175 37.4367 35.8542 37.6042C37.1106 39.1604 37.2914 40.6196 36.9695 40.8665C36.9122 40.9106 36.8196 40.9194 36.7491 40.9194C36.1231 40.9194 34.9681 40.2714 33.9674 39.037C33.9233 38.9797 33.8792 38.9268 33.8351 38.8695C33.575 38.5256 33.0857 38.433 32.711 38.649C30.0791 40.17 25.7456 41.0384 20.8301 41.0384C15.562 41.0384 10.554 40.0597 7.4328 38.4198C7.03163 38.2082 6.52906 38.3404 6.29541 38.7196C6.14112 38.9664 5.96478 39.2133 5.77522 39.447C4.77449 40.6813 3.61947 41.3294 2.99347 41.3294C2.92294 41.3294 2.82595 41.3206 2.77305 41.2765C2.44682 41.0296 2.63198 39.5704 3.88839 38.0142C4.11322 37.7321 4.3601 37.472 4.61579 37.2339C4.91997 36.9562 4.96847 36.5021 4.73041 36.1671C2.82154 33.4603 1.69297 28.2318 1.7062 22.1834C1.71942 16.3113 2.83036 10.6685 4.60697 7.45472C4.78331 7.1329 4.726 6.74055 4.46149 6.48045C4.2587 6.28207 4.06473 6.06605 3.88398 5.84563C2.62757 4.28944 2.44682 2.83024 2.76864 2.58336C2.82595 2.53928 2.91853 2.53046 2.98906 2.53046C3.61507 2.53046 4.77008 3.17851 5.77081 4.41288C5.80607 4.45696 5.84134 4.50105 5.87661 4.54513C6.14993 4.90222 6.66573 4.98157 7.04485 4.73029C9.91036 2.82583 15.1653 1.64436 20.7552 1.64436C25.8161 1.64436 30.1849 2.601 32.7374 4.2674C33.1121 4.51427 33.6235 4.43051 33.8968 4.08224L33.9189 4.05579C33.9189 4.05579 33.9497 4.01611 33.9674 3.99407C34.9681 2.7597 36.1231 2.11166 36.7491 2.11166C36.8196 2.11166 36.9166 2.12047 36.9695 2.16456C37.2958 2.41143 37.1106 3.87064 35.8542 5.42682C35.6823 5.64284 35.4927 5.84563 35.2987 6.0396C35.043 6.29529 34.9813 6.67883 35.1488 6.99624C36.8858 10.2629 37.9703 15.7691 38.0452 21.7293C38.1201 27.7954 37.0974 33.1737 35.3075 36.1186V36.1318Z" fill="white"/>
<path d="M14.8875 20.4332H24.8638C25.3355 20.4332 25.7191 20.0629 25.7191 19.6044C25.7191 19.1459 25.3355 18.7756 24.8638 18.7756H14.8875C14.4158 18.7756 14.0322 19.1459 14.0322 19.6044C14.0322 20.0629 14.4158 20.4332 14.8875 20.4332Z" fill="white"/>
</svg>
