<svg width="47" height="47" viewBox="0 0 47 47" fill="none" xmlns="http://www.w3.org/2000/svg">
<path d="M46.8778 24.0029C42.9627 16.9952 36.5284 12.7088 28.9849 11.9145C25.2014 7.13931 13.3386 5.92671 12.8263 5.87971C12.4926 5.84681 12.1589 5.99251 11.9521 6.26041C11.7453 6.52831 11.6936 6.88551 11.8205 7.20511C12.9861 10.2272 14.1752 13.6582 14.4901 15.0635C12.3375 16.0505 10.4528 17.0986 9.2355 17.9728C6.5988 13.7616 1.2267 13.7099 0.9776 13.7099C0.4371 13.7099 0 14.147 0 14.6875C0 20.3604 1.9787 23.2086 3.2994 24.4776C1.9787 25.7513 0 28.5995 0 34.2724C0 34.8129 0.4371 35.25 0.9776 35.25C1.222 35.25 6.5988 35.1983 9.2308 30.9824C10.8429 32.1433 13.6347 33.6097 16.6803 34.8317C16.0082 35.9221 15.6604 37.6517 15.6604 40.1427C15.6604 40.6832 16.0975 41.1203 16.638 41.1203C16.9294 41.1203 23.5893 41.0639 26.9028 37.1723C35.3346 37.0078 42.5961 32.5945 46.8684 24.9523C47.0329 24.6562 47.0329 24.2943 46.8684 23.9982L46.8778 24.0029ZM14.2222 8.02291C17.5122 8.49761 22.9125 9.67261 25.9675 11.7688C23.1522 11.8769 19.5614 12.9438 16.3043 14.2786C15.8719 12.5584 14.9084 9.87001 14.2222 8.02291ZM17.6485 39.1087C17.7801 36.3827 18.4052 35.6871 18.5838 35.5461C20.492 36.2182 22.4237 36.7493 24.1815 37.0172C22.0571 38.5118 19.1619 38.9771 17.6485 39.1087ZM18.471 35.5132C18.471 35.5132 18.4757 35.5132 18.4804 35.5132C18.4757 35.5132 18.4804 35.5132 18.471 35.5132ZM26.4375 35.25C20.7176 35.25 11.3599 30.55 9.6256 28.7781C9.4423 28.5901 9.1885 28.482 8.9253 28.482C8.8642 28.482 8.8078 28.4867 8.7467 28.4961C8.4271 28.5572 8.1545 28.7734 8.0276 29.0695C6.7069 32.1339 3.6002 32.9705 1.9834 33.2008C2.2889 27.0626 5.1935 25.427 5.3439 25.3471C5.6682 25.1826 5.8656 24.8489 5.8703 24.487C5.875 24.1204 5.6682 23.7773 5.3439 23.6081C5.2123 23.5376 2.2936 21.9114 1.9834 15.7591C3.5955 15.9941 6.7163 16.8448 8.0276 19.881C8.1545 20.1818 8.4271 20.398 8.7467 20.4544C9.071 20.5155 9.4 20.4074 9.6256 20.1771C11.3599 18.4052 20.7129 13.7052 26.4375 13.7052C34.169 13.7052 40.8665 17.625 44.8944 24.4776C40.8665 31.3302 34.169 35.25 26.4375 35.25Z" fill="white"/>
<path d="M29.3749 24.4776C29.3749 19.9703 31.1515 17.2114 31.1703 17.1832C31.4664 16.732 31.3442 16.1257 30.893 15.8296C30.4418 15.5335 29.8355 15.6557 29.5394 16.1022C29.4501 16.2338 27.415 19.3452 27.415 24.4776C27.415 29.61 29.4501 32.7261 29.5394 32.853C29.7274 33.135 30.0376 33.2901 30.3572 33.2901C30.5452 33.2901 30.7332 33.2384 30.8977 33.1256C31.3489 32.8248 31.4711 32.2185 31.1703 31.7673C31.1515 31.7391 29.3749 29.0225 29.3749 24.4776Z" fill="white"/>
<path d="M26.978 15.8296C26.5268 15.5335 25.9252 15.6557 25.6244 16.1022C25.5351 16.2338 23.5 19.3452 23.5 24.4776C23.5 27.2177 24.0922 29.375 24.5857 30.6957C24.7314 31.0905 25.1074 31.3302 25.5022 31.3302C25.615 31.3302 25.7325 31.3114 25.8453 31.2691C26.3529 31.0811 26.6067 30.5171 26.4187 30.0095C25.9816 28.8345 25.4552 26.9216 25.4552 24.4776C25.4552 19.9703 27.2318 17.2114 27.2506 17.1832C27.5467 16.732 27.4245 16.1257 26.9733 15.8296H26.978Z" fill="white"/>
<path d="M35.2499 23.5C36.3324 23.5 37.2098 22.6225 37.2098 21.5401C37.2098 20.4577 36.3324 19.5802 35.2499 19.5802C34.1675 19.5802 33.29 20.4577 33.29 21.5401C33.29 22.6225 34.1675 23.5 35.2499 23.5Z" fill="white"/>
</svg>
