<svg width="40" height="47" viewBox="0 0 40 47" fill="none" xmlns="http://www.w3.org/2000/svg">
<path d="M27.4473 7.72897C24.3951 6.65254 22.2175 4.42947 21.6144 1.78052L21.4119 0.895971C21.2968 0.376476 20.8364 0.0161052 20.2701 0.00206481C19.7131 -0.0306961 19.2251 0.329674 19.0824 0.84917L18.7969 1.9022C18.0972 4.48096 15.9012 6.60574 12.918 7.59793C5.19298 10.1626 0 16.7663 0 24.0299C0 28.4152 1.85069 32.6179 5.2114 35.8566C8.3189 38.8519 12.43 40.7707 16.8956 41.3792C16.9785 41.4213 17.0706 41.4494 17.1626 41.4494C17.2133 41.4494 17.2685 41.44 17.3192 41.426C17.4066 41.4353 17.4895 41.4447 17.577 41.454L15.1968 42.5117C14.8884 42.6475 14.7503 43.0125 14.8838 43.3261C14.9851 43.5601 15.2061 43.6958 15.4408 43.6958C15.5237 43.6958 15.6066 43.6818 15.6848 43.6443L18.2169 42.5164L16.7897 45.2215C16.6286 45.5211 16.7437 45.8955 17.0383 46.0593C17.1304 46.1108 17.2271 46.1342 17.3238 46.1342C17.5401 46.1342 17.7519 46.0172 17.8578 45.8066L19.6164 42.4696V46.3822C19.6164 46.7239 19.888 47 20.2241 47C20.5602 47 20.8318 46.7239 20.8318 46.3822V42.4649L22.595 45.8019C22.7055 46.0078 22.9127 46.1295 23.129 46.1295C23.2257 46.1295 23.3224 46.1061 23.4145 46.0546C23.7091 45.8955 23.8196 45.5211 23.6631 45.2169L22.2359 42.5117L24.768 43.6397C24.8462 43.6771 24.9291 43.6911 25.012 43.6911C25.2467 43.6911 25.4677 43.5507 25.569 43.3214C25.7025 43.0078 25.5644 42.6428 25.2559 42.5071L22.7884 41.4072C31.8761 40.2887 39.1223 33.7037 39.9234 25.579C40.6876 17.7959 35.6787 10.6166 27.4519 7.71961L27.4473 7.72897ZM6.04467 34.958C2.92796 31.9534 1.21078 28.0735 1.21078 24.0299C1.21078 17.3045 6.06769 11.1736 13.3001 8.77264C13.3646 8.74924 13.4244 8.72584 13.4889 8.70244C12.7799 9.5121 12.0019 10.4622 11.2238 11.5386C7.8217 16.2655 6.14135 21.1235 6.36693 25.579C6.62474 30.7693 9.37315 35.4962 14.5431 39.6522C11.3113 38.8004 8.37415 37.1998 6.04007 34.9533L6.04467 34.958ZM17.3146 40.1857C11.1364 35.8987 7.85853 30.9658 7.58691 25.5229C7.21862 18.2078 12.3748 11.6556 15.3027 8.54799C13.3462 14.3139 9.91179 28.4573 17.9545 40.2559C17.7427 40.2372 17.5309 40.2091 17.3146 40.181V40.1857ZM19.6164 40.3448C19.575 40.3448 19.5289 40.3448 19.4875 40.3448C19.4783 40.3355 19.4783 40.3168 19.4691 40.3074C8.73784 25.6445 17.3192 6.62914 17.4066 6.43725C17.4204 6.40917 17.4204 6.38109 17.4296 6.35301C18.3826 5.4591 19.133 4.41075 19.6164 3.25944V40.3448ZM20.9745 40.3074C20.9745 40.3074 20.9699 40.3214 20.9653 40.3308C20.9193 40.3308 20.8778 40.3308 20.8364 40.3308V3.3156C21.3198 4.51372 22.0886 5.60419 23.0784 6.53086C23.6953 7.9349 31.3421 26.15 20.9745 40.3121V40.3074ZM22.9035 40.1623C22.7792 40.181 22.6595 40.1904 22.5352 40.2044C30.5456 28.3918 27.0836 14.2437 25.1363 8.51055C28.0596 11.5667 33.2296 18.0487 32.8889 25.3076C32.6311 30.7833 29.298 35.7583 22.9771 40.0874C22.9495 40.1062 22.9311 40.1342 22.9081 40.1623H22.9035ZM38.7126 25.4667C38.0635 32.075 32.7692 37.5929 25.7347 39.5679C31.0382 35.3652 33.8511 30.5961 34.0951 25.359C34.3022 20.9363 32.6127 16.1298 29.2105 11.459C28.5292 10.523 27.8478 9.68995 27.2125 8.95985C34.7994 11.7024 39.417 18.3154 38.7126 25.4667Z" fill="white"/>
</svg>
