<svg width="47" height="47" viewBox="0 0 47 47" fill="none" xmlns="http://www.w3.org/2000/svg">
<g clip-path="url(#clip0_207_2740)">
<path fill-rule="evenodd" clip-rule="evenodd" d="M18.621 16.7367C15.5472 16.7367 13.3617 18.8235 12.7319 21.3756C12.1068 23.9324 12.9857 26.9921 15.7164 29.0131C18.8466 31.3208 22.1272 32.7966 25.0318 32.9094C27.9176 33.0222 30.465 31.5934 31.5648 28.4491C32.9043 28.1436 34.1404 27.4856 35.0898 26.7148C36.0862 25.9064 36.8241 24.9946 37.0873 24.0311C37.2142 23.547 37.2142 23.0065 36.9416 22.5412C36.669 22.0712 36.1661 21.7704 35.588 21.6435L29.5344 20.3134C29.4639 20.2993 29.3934 20.2899 29.3182 20.2993C28.4816 20.3604 28.4111 21.5495 29.2242 21.714L35.2731 23.0441C35.776 23.1569 35.776 23.3402 35.6914 23.6504C35.5645 24.1251 35.0146 24.9241 34.1827 25.5962C32.5189 26.9451 29.9339 27.8381 27.7578 26.5738C26.9071 26.0051 26.1222 27.3587 27.0387 27.8099C27.9881 28.3598 28.9751 28.5948 29.9433 28.6089C28.9657 30.7803 27.3019 31.5511 25.0788 31.4665C22.6301 31.3725 19.5375 30.0377 16.5624 27.8428C14.2641 26.1461 13.6202 23.7115 14.1184 21.7046C14.6072 19.6977 16.1723 18.1561 18.6163 18.1561C19.6174 18.1984 19.6174 16.6803 18.6163 16.7226L18.621 16.7367Z" fill="white"/>
<path d="M18.4989 36.6741C19.8478 37.2005 21.3471 37.5953 22.7571 38.258C22.2683 38.8925 21.7748 39.2215 21.3518 39.3343C20.7784 39.4847 20.1909 39.3578 19.6034 38.7233C19.0159 38.0841 18.7621 37.3791 18.4942 36.6741H18.4989ZM6.9181 11.5056C7.2001 11.844 7.5291 12.2012 7.656 12.784C7.7829 13.3527 7.7735 13.9167 7.6419 14.2692C7.4586 14.7815 7.1672 14.9789 6.6925 14.8896C6.434 14.8379 6.1567 14.5888 6.0063 14.147C5.7196 13.3104 6.0251 12.5866 6.4622 11.9803C6.6737 11.6936 6.7348 11.6795 6.9181 11.5103V11.5056ZM6.3494 8.49761C6.528 8.70441 6.7395 8.90651 6.7724 9.16501C6.8194 9.53631 6.669 9.76661 6.6455 9.78071C5.87 9.78541 5.2919 9.98751 4.6715 10.1943C4.789 9.93581 4.789 9.70081 4.9864 9.45171C5.353 8.99581 5.8606 8.71851 6.3541 8.49761H6.3494ZM10.5653 5.17471C11.886 5.24991 13.437 5.92671 14.7483 7.23801C17.3662 10.3494 19.0159 12.6195 20.6139 14.288C22.2166 15.9612 23.8381 17.0375 26.1881 17.5686C30.8223 18.6214 35.3766 18.0245 37.5292 15.9612C39.6771 13.8979 40.2176 13.6253 40.5419 13.5595C40.8662 13.4937 40.9461 13.5595 41.0307 13.6535C41.1952 13.8462 41.2798 14.6546 40.5325 15.4019C40.0202 15.9189 40.5184 16.8025 41.2234 16.6004C42.013 16.3748 42.2198 16.5863 42.2104 16.9247C42.2057 17.4699 41.6981 18.6073 40.7863 19.5191C40.1988 20.1113 40.932 21.0607 41.6558 20.6471C41.9566 20.4685 42.1493 20.4638 42.2762 20.4967C42.4031 20.5249 42.5018 20.6001 42.5817 20.7364C42.7368 21.0043 42.7744 21.5166 42.2715 22.0336C40.4385 23.923 39.7946 25.6103 39.0473 27.26C38.3 28.9191 37.4399 30.6017 35.0429 32.8765C31.9644 35.8046 31.8234 35.9456 29.5016 38.6481C28.7261 39.5505 27.3772 39.9265 26.0565 38.7186C23.4292 36.3122 20.1251 35.9268 18.2028 34.9962C13.7989 32.8718 10.9225 30.7521 9.1835 28.576C7.4398 26.3999 6.7959 24.1768 6.8523 21.6247C6.8993 19.4627 7.4868 17.3759 8.5349 15.5805C9.1271 14.5653 9.254 13.442 9.0472 12.4879C8.8733 11.6889 8.549 10.8993 8.0085 10.3212C8.2012 9.91701 8.2435 9.43761 8.1871 8.99111C8.1119 8.38951 7.8299 7.76441 7.3176 7.29911C7.7406 5.91731 8.7135 5.28751 10.006 5.18881C10.1846 5.17471 10.3679 5.17471 10.5559 5.18881L10.5653 5.17471ZM9.8133 1.78131C9.9214 1.96931 10.0483 2.14321 10.2645 2.28421C10.4807 2.42051 10.7862 2.47221 11.0118 2.42991C11.4583 2.34061 11.6369 2.12441 11.8202 1.97401C12.1962 1.67321 12.356 1.50401 12.7931 1.61681C13.2631 1.74371 13.6626 2.29361 13.6861 2.84821C13.7096 3.36991 13.5216 3.86811 12.6004 4.15951C11.9471 3.92451 11.2891 3.77881 10.6452 3.74591C10.3961 3.73181 10.1517 3.73181 9.9073 3.75061C8.1636 3.88221 6.6126 4.95381 5.9875 6.77741C5.4188 6.60821 5.1086 6.14291 4.9629 5.49901C4.7796 4.68121 5.0146 3.65661 5.6491 3.04561C5.9734 2.74011 6.1802 2.82941 6.5045 2.92811C6.6878 2.97981 6.8194 3.12081 7.1061 3.23361C7.2471 3.28531 7.4962 3.38401 7.8346 3.22421C8.1683 3.06441 8.2905 2.71661 8.314 2.51921C8.3939 1.92231 8.5584 1.58861 8.8874 1.42411C9.2117 1.25491 9.6817 1.56511 9.8086 1.78131H9.8133ZM8.925 -0.16449C7.8581 -0.16449 7.421 0.67211 7.1437 1.64971C7.1296 1.64501 7.1343 1.64501 7.1202 1.63561C6.8476 1.50401 6.4716 1.36771 6.0204 1.38181C5.5692 1.40061 5.0757 1.60741 4.6574 2.00691C3.6046 3.02211 3.2709 4.51671 3.5623 5.81391C3.7268 6.53771 4.1498 7.21921 4.7561 7.68451C4.4271 7.94301 4.1216 8.22971 3.8631 8.54931C3.2427 9.32011 2.8291 10.2225 2.8291 11.1484C2.8291 11.6372 3.3085 11.9803 3.7738 11.8252C4.2203 11.6748 4.6809 11.5103 5.1368 11.3693C4.6198 12.1824 4.2156 13.3339 4.648 14.5982C4.93 15.4301 5.5457 16.0458 6.3071 16.2573C6.3964 16.2855 6.4857 16.2996 6.5797 16.3137C5.8794 17.9493 5.4705 19.7259 5.4282 21.573C5.3624 24.3977 6.1332 27.0344 8.0696 29.4596C9.8791 31.7203 12.6897 33.7977 16.7364 35.8469C16.8539 36.2934 17.0184 36.8527 17.2581 37.4731C17.5777 38.2909 17.9772 39.1416 18.607 39.7479C19.1381 40.2602 19.7679 40.6174 20.4259 40.749V44.7205C20.4259 45.2751 20.0875 45.6934 19.1334 45.6934H17.0419C16.0408 45.6464 16.0408 47.1739 17.0419 47.1269H19.1334C20.6609 47.1269 21.8641 46.0553 21.8641 44.7205V40.6691C22.6725 40.4153 23.3963 39.8278 24.0261 38.9442C24.3974 39.1839 24.7593 39.4565 25.1024 39.7667C25.6194 40.2367 26.1787 40.5375 26.7521 40.702V44.6359C26.7521 45.1952 26.3808 45.6981 25.4549 45.6981H23.3634C22.3623 45.6511 22.3623 47.1786 23.3634 47.1316H25.4549C26.4936 47.1316 27.1986 46.5441 27.6592 45.8109L28.8342 46.9342C29.5251 47.6345 30.5591 46.5582 29.8259 45.9002L28.1809 44.3304V40.8336C29.1303 40.7302 29.9998 40.2743 30.6014 39.574C32.9232 36.8762 32.9608 36.8339 36.0393 33.9105C38.5726 31.4994 39.5925 29.5536 40.3633 27.8475C41.1341 26.1414 41.6511 24.7361 43.3102 23.0253C44.1891 22.1182 44.3865 20.8539 43.8272 20.0126C43.4794 19.4909 43.0376 19.2089 42.5394 19.1149C42.9906 18.3864 43.6345 17.672 43.6486 16.9576C43.6627 16.3654 43.4277 15.7074 42.8731 15.3596C42.6757 15.2327 42.389 15.2421 42.1493 15.3079C42.5817 14.3867 42.7227 13.4279 42.1258 12.7276C41.7075 12.2341 40.979 12.0085 40.2599 12.1589C39.5408 12.3046 38.8076 12.7558 36.7819 14.6969C34.7609 16.6427 30.8458 17.1597 26.5124 16.1727C24.4115 15.6933 23.1472 14.8567 21.6573 13.301C20.1627 11.7406 18.5412 9.41881 15.8199 6.27921C15.3311 5.71991 14.6778 5.26871 14.1326 4.91621C14.8188 4.33811 15.1619 3.54381 15.129 2.77771C15.082 1.62621 14.3535 0.50761 13.1785 0.22561C12.3137 0.0235102 11.4442 0.43711 10.8379 0.93061C10.4102 0.33371 9.7945 -0.16449 8.9297 -0.16449H8.925Z" fill="white"/>
<path fill-rule="evenodd" clip-rule="evenodd" d="M10.7674 6.52359C11.5053 6.52359 12.1069 7.12519 12.1069 7.86309C12.1069 8.60099 11.5053 9.20259 10.7674 9.20259C10.0295 9.20259 9.43262 8.60099 9.43262 7.86309C9.43262 7.12519 10.0295 6.52359 10.7674 6.52359Z" fill="white"/>
</g>
<defs>
<clipPath id="clip0_207_2740">
<rect width="47" height="47" fill="white"/>
</clipPath>
</defs>
</svg>
