<svg width="51" height="45" viewBox="0 0 51 45" fill="none" xmlns="http://www.w3.org/2000/svg">
<path d="M50.9886 31.7148C50.108 28.2092 47.1847 25.2286 42.9743 23.5368C40.8379 22.6776 38.5972 22.1791 36.4243 21.7018C35.0903 21.4101 33.7147 21.1025 32.3963 20.7207C23.8922 18.2492 16.6387 12.1608 10.2919 6.82553C9.58847 5.99288 8.85895 5.30343 8.12422 4.76778C8.23886 4.59276 8.34829 4.41775 8.43166 4.22682C8.53067 4.00408 8.53067 3.74951 8.43166 3.52676C7.84284 2.15846 6.47238 1.12959 4.9404 0.906841C4.20046 0.800771 3.44489 0.906841 2.75705 1.19323C2.2985 0.779557 1.79826 0.397707 1.25112 0.100712C0.834254 -0.122035 0.323591 0.0370699 0.099525 0.456045C-0.11933 0.880324 0.0369949 1.40007 0.448651 1.62811C0.745669 1.78722 1.02705 1.97284 1.29281 2.17968C1.18338 2.29105 1.07916 2.39712 0.985368 2.5191C0.0786817 3.65935 -0.244391 5.53148 0.19332 7.06418C0.271483 7.33997 0.474706 7.55741 0.745669 7.64757C1.02184 7.74303 1.31365 7.78546 1.61067 7.78546C1.64715 7.78546 1.68362 7.78016 1.7201 7.78016C1.74615 8.57568 1.86079 9.46666 2.08486 10.5008C2.27245 11.3706 2.50693 12.2828 2.80916 13.3223C6.27437 23.2822 12.7931 32.2186 21.1722 38.4873C26.5498 42.4968 31.4584 44.3583 36.1846 44.1833C36.6901 44.162 37.2059 44.1249 37.727 44.0878C39.7592 43.934 41.6664 43.7908 43.089 44.8356C43.2349 44.9417 43.412 45 43.584 45C43.7143 45 43.8393 44.9682 43.9592 44.9098C44.2406 44.7666 44.4229 44.4803 44.4334 44.162C44.5376 40.9216 42.8701 37.591 39.8374 34.8863C41.0046 34.7378 42.1302 34.4885 43.1932 34.1226C43.6622 33.9581 44.1311 33.7725 44.6001 33.5816C46.4708 32.8391 48.2321 32.1391 49.8631 32.7383C50.1601 32.8497 50.4884 32.7808 50.7229 32.5633C50.9573 32.3459 51.0511 32.0171 50.973 31.7095L50.9886 31.7148ZM2.76748 5.06477C2.68931 5.4148 2.47046 5.72771 2.18386 5.90272C2.04317 5.98758 1.88684 6.04061 1.72531 6.05652C1.6263 5.17615 1.85037 4.195 2.31413 3.61162C2.81437 2.9805 3.58037 2.59865 4.3672 2.59865C4.47663 2.59865 4.59127 2.60926 4.7007 2.62517C5.51359 2.74185 6.26916 3.22977 6.69124 3.87679C6.4307 4.26395 6.06073 4.56094 5.64386 4.70414C5.12799 4.87915 4.51311 4.8102 4.04413 4.51321C3.80964 4.37002 3.52305 4.3488 3.26772 4.45487C3.0176 4.56094 2.83001 4.78899 2.77269 5.05947L2.76748 5.06477ZM42.6513 42.6718C41.0672 42.1043 39.3163 42.2369 37.6072 42.3642C37.1121 42.4013 36.6171 42.4384 36.1273 42.4543C31.8023 42.624 27.2376 40.8633 22.1831 37.0925C14.075 31.0306 7.76467 22.3806 4.42973 12.7866C4.14835 11.832 3.92949 10.9622 3.74711 10.1296C3.47615 8.88328 3.37714 7.89683 3.42404 7.09601C3.66374 6.88917 3.87739 6.66112 4.04413 6.39064C4.73196 6.59218 5.49275 6.57626 6.17537 6.34822C6.42028 6.26336 6.65998 6.15199 6.88404 6.0141C7.60314 6.49141 8.32223 7.15434 9.04133 8.0029C9.38525 8.41127 9.70832 8.83555 10.0158 9.28634C15.2474 16.9499 20.6563 24.868 28.5299 29.8586C29.6658 30.5798 30.8539 31.2322 32.0107 31.8686C32.0211 31.8686 32.0264 31.8792 32.0368 31.8845C32.1097 31.9269 32.1879 31.9693 32.2661 32.0118C33.8918 32.9028 35.5801 33.8256 37.1121 34.9128C37.3727 35.0984 37.6332 35.284 37.8938 35.4909C39.2225 36.5303 42.1041 39.1503 42.6565 42.6771L42.6513 42.6718ZM20.9273 20.9964C21.3024 20.8532 21.6985 20.7737 22.1101 20.7737C23.986 20.7737 25.5128 22.3276 25.5128 24.2369C25.5128 24.5179 25.4763 24.7937 25.4086 25.0748C25.3877 25.165 25.3513 25.2498 25.3252 25.3347C23.7724 24.0035 22.3133 22.5397 20.9325 21.0017L20.9273 20.9964ZM26.7061 26.4696C26.8207 26.2151 26.9145 25.9552 26.9927 25.69C27.6388 24.7778 28.6654 24.2369 29.7648 24.2369C31.6408 24.2369 33.1675 25.7908 33.1675 27.7C33.1675 28.5751 32.8288 29.3918 32.2504 30.0336C31.302 29.5085 30.3433 28.9729 29.4314 28.3948C28.4882 27.7955 27.5815 27.1538 26.7113 26.4749L26.7061 26.4696ZM38.2637 32.8868C36.3878 32.8868 34.861 31.3329 34.861 29.4237C34.861 27.5144 36.3878 25.9605 38.2637 25.9605C40.1396 25.9605 41.6664 27.5144 41.6664 29.4237C41.6664 31.3329 40.1396 32.8868 38.2637 32.8868ZM43.9957 31.9746C43.5423 32.155 43.0942 32.3353 42.6513 32.4891C42.5366 32.5315 42.4116 32.558 42.2969 32.5952C42.9639 31.7148 43.3651 30.6223 43.3651 29.429C43.3651 26.5651 41.0776 24.2369 38.2637 24.2369C36.7943 24.2369 35.4707 24.8786 34.538 25.8916C33.8137 23.9187 31.9482 22.5026 29.7596 22.5026C28.8113 22.5026 27.9046 22.7784 27.1177 23.2663C26.6696 20.8638 24.5957 19.0448 22.1101 19.0448C21.2764 19.0448 20.4687 19.2516 19.7444 19.6387C17.7486 17.2787 15.8936 14.7595 14.1063 12.2033C19.3901 16.4248 25.247 20.4502 31.9326 22.3913C33.303 22.789 34.7099 23.1019 36.07 23.3989C38.1699 23.8603 40.3481 24.3429 42.3542 25.1491C43.9071 25.7696 47.3671 27.4826 48.873 30.792C47.1847 30.6965 45.5798 31.3488 44.0009 31.9746H43.9957Z" fill="white"/>
</svg>
