<svg width="42" height="52" viewBox="0 0 42 52" fill="none" xmlns="http://www.w3.org/2000/svg">
<path d="M41.1422 50.3113H37.8011C33.8881 47.0328 28.1377 45.0947 21.8578 44.9336V39.9664L25.8079 36.0903C26.5333 36.2202 27.264 36.2877 27.9947 36.2877C31.3729 36.2877 34.7723 34.916 37.298 32.4376C40.4909 29.3045 41.8835 24.8049 40.9251 20.7002C40.851 20.3832 40.6021 20.139 40.2791 20.0663C36.0961 19.1258 31.5106 20.4923 28.3177 23.6254C25.2413 26.6442 23.8434 30.9256 24.5953 34.9004L21.8578 37.5867V22.0563L24.4365 19.5259C24.9342 19.6091 25.4372 19.6506 25.9455 19.6506C28.466 19.6506 30.9917 18.6322 32.8714 16.7825C35.2489 14.4496 36.2814 11.0982 35.5719 8.03789C35.4977 7.72094 35.2489 7.47674 34.9259 7.404C31.8071 6.70256 28.3918 7.71575 26.0144 10.0539C23.7534 12.2725 22.7103 15.4056 23.2239 18.3361L21.8631 19.6714V18.0399C21.8631 15.442 20.8412 12.9947 18.9826 11.145C19.4909 8.21455 18.4478 5.08145 16.1921 2.86802C13.8041 0.535079 10.3888 -0.483309 7.27005 0.218132C6.94705 0.290873 6.69819 0.535079 6.62406 0.852026C5.90923 3.91238 6.94176 7.26371 9.32451 9.59665C11.2042 11.4412 13.7352 12.4648 16.2504 12.4648C16.7587 12.4648 17.2617 12.4232 17.7648 12.3401C19.295 13.8728 20.1422 15.894 20.1422 18.0399V30.3956L17.4047 27.7094C18.1566 23.7294 16.7587 19.448 13.6823 16.4344C10.4894 13.3013 5.90393 11.9348 1.72088 12.8752C1.39788 12.948 1.14902 13.1922 1.07489 13.5091C0.11649 17.6138 1.50908 22.1135 4.70197 25.2517C7.22769 27.7302 10.6271 29.1019 14.0053 29.1019C14.7413 29.1019 15.472 29.0343 16.1921 28.9044L20.1422 32.7805V44.9388C13.8623 45.0999 8.11195 47.038 4.19894 50.3165H0.857791C0.381241 50.3165 0 50.6958 0 51.1583C0 51.6207 0.386536 52 0.857791 52H41.1422C41.6188 52 42 51.6207 42 51.1583C42 50.6958 41.6135 50.3165 41.1422 50.3165V50.3113ZM29.5303 24.8101C32.1725 22.2174 35.8949 21.0119 39.3578 21.5991C39.9561 25.0023 38.7277 28.6498 36.0855 31.2426C33.7186 33.5651 30.4834 34.7757 27.3434 34.5783L35.3548 26.717C35.6884 26.3896 35.6884 25.8545 35.3548 25.5271C35.0212 25.1998 34.4758 25.1998 34.1422 25.5271L26.1309 33.3885C25.9349 30.3073 27.1634 27.1326 29.5303 24.8101ZM27.2216 11.2385C29.0484 9.44596 31.5953 8.59385 33.9939 8.94197C34.3487 11.2957 33.4803 13.7949 31.6536 15.5875C30.118 17.0943 28.0635 17.9412 26.025 17.962L30.9599 13.1194C31.2935 12.7921 31.2935 12.2569 30.9599 11.9296C30.6263 11.6022 30.0809 11.6022 29.7474 11.9296L24.8071 16.7773C24.823 14.7717 25.6861 12.7557 27.2269 11.2437L27.2216 11.2385ZM8.19667 1.7613C10.5953 1.41318 13.1422 2.2653 14.969 4.05787C16.5045 5.56466 17.3676 7.58065 17.3888 9.58106L12.4539 4.73852C12.1203 4.41118 11.5749 4.41118 11.2413 4.73852C10.9077 5.06586 10.9077 5.60103 11.2413 5.92837L16.1815 10.7761C14.1377 10.7605 12.0832 9.91359 10.5424 8.4016C8.71558 6.60903 7.8472 4.10983 8.20197 1.7561L8.19667 1.7613ZM5.90923 24.0515C3.26702 21.4588 2.03858 17.8061 2.63691 14.408C6.09985 13.8209 9.82224 15.0263 12.4644 17.619C14.8313 19.9416 16.0651 23.1163 15.8638 26.1974L7.8525 18.3361C7.51891 18.0087 6.97353 18.0087 6.63994 18.3361C6.30635 18.6634 6.30635 19.1986 6.63994 19.5259L14.6513 27.3872C11.5113 27.5795 8.2761 26.3741 5.90923 24.0515ZM21 46.6067C26.2262 46.6067 31.2458 47.968 34.9312 50.3113H7.06884C10.7489 47.9628 15.7738 46.6067 21 46.6067Z" fill="white"/>
</svg>
