<svg width="37" height="38" viewBox="0 0 37 38" fill="none" xmlns="http://www.w3.org/2000/svg">
<path d="M27.3532 15.02L29.5155 14.8806C29.5155 14.8806 29.5228 14.8806 29.5265 14.8806C31.0684 14.7487 32.4488 13.9196 33.3225 12.6082L35.0333 10.0343C36.5201 7.79211 37.0965 5.08635 36.6559 2.41074C36.5678 1.88692 36.3072 1.40079 35.918 1.05032C35.5289 0.696084 35.0296 0.488819 34.512 0.462439C31.8724 0.334311 29.3246 1.24628 27.3348 3.02877L25.0513 5.07881C23.8876 6.12268 23.2525 7.63383 23.3075 9.22036C23.3075 9.22036 23.3075 9.2279 23.3075 9.23167L23.4324 11.4513C23.4801 12.318 23.1717 13.1697 22.5843 13.7915L4.73137 32.615C4.25411 33.1275 4.00814 33.8285 4.03751 34.5897C4.07055 35.4301 4.44501 36.2554 5.04342 36.798C5.58308 37.2879 6.32099 37.5668 7.06256 37.5668C7.14333 37.5668 7.22043 37.5668 7.30119 37.5555C8.04277 37.4952 8.69257 37.1598 9.13311 36.6058L25.1945 16.1619C25.7268 15.4873 26.5161 15.0728 27.3605 15.0163L27.3532 15.02ZM24.3318 15.4534L8.27038 35.8973C8.02441 36.2064 7.64628 36.3948 7.20941 36.4325C6.6881 36.4739 6.14844 36.2968 5.77398 35.9539C5.39952 35.6109 5.16089 35.0871 5.13887 34.5482C5.12051 34.096 5.26002 33.689 5.52434 33.4064L23.3736 14.5829C24.1739 13.7312 24.5961 12.5705 24.53 11.3872L24.4052 9.17137C24.3648 7.92778 24.8604 6.74824 25.7746 5.93049L28.058 3.88044C29.8312 2.29015 32.1037 1.47616 34.4569 1.59298C34.7249 1.60805 34.9819 1.71357 35.1838 1.89823C35.3857 2.07911 35.5179 2.3316 35.5656 2.60293C35.9584 4.98837 35.4445 7.40019 34.1192 9.39748L32.4084 11.9713C31.7256 13.0001 30.6426 13.6483 29.4384 13.7538L27.2834 13.8933C26.1343 13.9686 25.0587 14.5377 24.3318 15.4572V15.4534Z" fill="white"/>
<path d="M35.7789 32.4717L23.8108 21.2794C23.5869 21.0683 23.2381 21.0872 23.0325 21.3171C22.8269 21.5469 22.8453 21.9049 23.0692 22.116L35.0373 33.3046C35.3236 33.5759 35.4852 33.9716 35.4925 34.4238C35.5035 34.9627 35.2979 35.5016 34.9418 35.8671C34.5857 36.2327 34.0644 36.4437 33.5358 36.4324C33.0952 36.4249 32.7061 36.259 32.4454 35.9689L21.7806 23.9475C21.5751 23.7176 21.2263 23.6987 21.0024 23.9098C20.7784 24.1208 20.7601 24.4788 20.9656 24.7087L31.6341 36.7301C32.104 37.2502 32.7722 37.5441 33.5137 37.5592C33.5321 37.5592 33.5504 37.5592 33.5725 37.5592C34.3728 37.5592 35.1694 37.2275 35.7201 36.6623C36.2818 36.0857 36.6085 35.2378 36.5939 34.3974C36.5792 33.6324 36.2928 32.9503 35.7825 32.4642L35.7789 32.4717Z" fill="white"/>
<path d="M6.65472 14.9144C7.56884 15.7774 8.75463 16.2711 9.99549 16.3012C9.99916 16.3012 10.0028 16.3012 10.0065 16.3012L12.1725 16.3088C13.0169 16.3088 13.8282 16.6781 14.3972 17.315L15.3517 18.389C15.4619 18.5133 15.6087 18.5736 15.7592 18.5736C15.8914 18.5736 16.0236 18.5246 16.13 18.4266C16.354 18.2156 16.3723 17.8576 16.1667 17.6277L15.2122 16.55C14.4339 15.6794 13.3253 15.1782 12.1762 15.1745L10.0138 15.1669C9.05567 15.1405 8.1342 14.7637 7.42566 14.1042L1.14795 6.44292C1.08554 6.36378 1.08921 6.25073 1.15896 6.17913C1.20669 6.13014 1.26542 6.1226 1.29479 6.1226C1.32416 6.1226 1.37923 6.13014 1.43063 6.17913L7.14665 12.0466C7.71202 12.627 8.62981 12.627 9.19517 12.0466L9.867 11.357L11.0601 10.1322L11.732 9.44262C12.2973 8.86228 12.2973 7.92016 11.732 7.33981L6.01226 1.47231C5.93884 1.39694 5.93884 1.27258 6.01226 1.19721C6.08201 1.12561 6.19215 1.12184 6.26924 1.1859L13.7328 7.62999C14.3752 8.36107 14.746 9.30319 14.768 10.2868L14.7754 12.5064C14.779 13.6897 15.2673 14.824 16.119 15.6267L17.1433 16.5839C17.3672 16.7949 17.716 16.7761 17.9216 16.5462C18.1272 16.3163 18.1088 15.9583 17.8849 15.7473L16.8643 14.7938C16.2402 14.206 15.8841 13.3731 15.8804 12.5064L15.873 10.283C15.873 10.283 15.873 10.2755 15.873 10.2717C15.8437 8.99794 15.3628 7.78072 14.5221 6.84238C14.5074 6.82353 14.489 6.80846 14.4707 6.79339L6.98145 0.315389C6.46381 -0.133059 5.71122 -0.0991428 5.23397 0.390758C4.73102 0.907038 4.73102 1.75118 5.23397 2.26746L10.95 8.13496C11.0858 8.27439 11.0858 8.49673 10.95 8.63617L10.6673 8.92634L4.29782 2.39181C4.08122 2.16948 3.73246 2.16948 3.51953 2.39181C3.30293 2.61415 3.30293 2.97216 3.51953 3.19073L9.88903 9.72902L9.47785 10.1511L3.10469 3.61657C2.88809 3.39423 2.53932 3.39423 2.3264 3.61657C2.1098 3.83891 2.1098 4.19691 2.3264 4.41548L8.69589 10.9538L8.41321 11.2439C8.27738 11.3834 8.06078 11.3834 7.92494 11.2439L2.20892 5.37644C1.96295 5.12395 1.63988 4.98829 1.29479 4.98829C0.949703 4.98829 0.622968 5.12772 0.38067 5.37644C-0.0965833 5.86634 -0.129624 6.63888 0.307246 7.17023L6.61066 14.8617C6.61066 14.8617 6.64003 14.8956 6.65839 14.9144H6.65472Z" fill="white"/>
</svg>
